SplineFontDB: 3.0
FontName: ChaiForOne
FullName: Daway.Caiguangxian
FamilyName: ChaiForOne
Weight: Regular
Copyright: (c) 2018 Daway Caiguangxian. All Rights Reserved.\nChai ForOne OpenType Layout logic copyright (c) 2013 & 2018, Caiguangxian. \nThis layout logic for Chai ForOne is open source software under the MIT License; see embedded license description for details.
UComments: "Chai ForOne Font designed by Caiguangxian.+AAoA-Chai ForOne letter used triacode characters that include 64 symbols.+AAoA-Chai ForOne letter used on touch pad gesture language.+AAoA-triacode forone symbol have 64 that is matching Braille symbol code.+AAoA-triacode forone symbol is a Taiji symbol language character. "
Version: 1.0
ItalicAngle: 0
UnderlinePosition: -283
UnderlineWidth: 141
Ascent: 1556
Descent: 492
InvalidEm: 0
sfntRevision: 0x00010000
LayerCount: 2
Layer: 0 1 "Back" 1
Layer: 1 1 "Fore" 0
PreferredKerning: 4
HasVMetrics: 1
XUID: [1021 766 1022632015 10093]
FSType: 0
OS2Version: 0
OS2_WeightWidthSlopeOnly: 0
OS2_UseTypoMetrics: 0
CreationTime: 1517286295
ModificationTime: 1518050961
PfmFamily: 17
TTFWeight: 400
TTFWidth: 5
LineGap: 184
VLineGap: 184
Panose: 2 11 6 9 3 8 4 2 2 4
OS2TypoAscent: 0
OS2TypoAOffset: 1
OS2TypoDescent: 0
OS2TypoDOffset: 1
OS2TypoLinegap: 184
OS2WinAscent: 0
OS2WinAOffset: 1
OS2WinDescent: 0
OS2WinDOffset: 1
HheadAscent: 0
HheadAOffset: 1
HheadDescent: 0
HheadDOffset: 1
OS2Vendor: 'Chai'
MarkAttachClasses: 11
"ChaiForOneNumber" 49 zero one two three four five six seven eight nine
"ChaiForOneCaptalLetter" 51 A B C D E F G H I J K L M N O P Q R S T U V W X Y Z
"ChaiForOneSmallLetter" 51 a b c d e f g h i j k l m n o p q r s t u v w x y z
"ChaiForOneExtendLetter" 139 Agrave Adieresis Egrave Edieresis Ntilde Ograve Odieresis Ugrave Udieresis agrave adieresis egrave edieresis ntilde ograve odieresis ugrave

StartChar: exclam
Encoding: 1 33 0
GlifName: exclam
Width: 1234
LayerCount: 2
Fore
SplineSet
516 1493 m 1,0,-1
 719 1493 l 1,1,-1
 719 838 l 1,2,-1
 698 481 l 1,3,-1
 537 481 l 1,4,-1
 516 838 l 1,5,-1
 516 1493 l 1,0,-1
516 254 m 1,6,-1
 719 254 l 1,7,-1
 719 0 l 1,8,-1
 516 0 l 1,9,-1
 516 254 l 1,6,-1
EndSplineSet
Validated: 1
EndChar

StartChar: quotedbl
Encoding: 2 34 1
GlifName: quotedbl
Width: 1234
LayerCount: 2
Fore
SplineSet
895 1493 m 1,0,-1
 895 938 l 1,1,-1
 721 938 l 1,2,-1
 721 1493 l 1,3,-1
 895 1493 l 1,0,-1
512 1493 m 1,4,-1
 512 938 l 1,5,-1
 338 938 l 1,6,-1
 338 1493 l 1,7,-1
 512 1493 l 1,4,-1
EndSplineSet
Validated: 1
EndChar

StartChar: numbersign
Encoding: 3 35 2
GlifName: numbersign
Width: 1234
LayerCount: 2
Fore
SplineSet
684 1470 m 1,0,-1
 580 1055 l 1,1,-1
 825 1055 l 1,2,-1
 930 1470 l 1,3,-1
 1090 1470 l 1,4,-1
 985 1055 l 1,5,-1
 1229 1055 l 1,6,-1
 1229 901 l 1,7,-1
 948 901 l 1,8,-1
 864 567 l 1,9,-1
 1114 567 l 1,10,-1
 1114 414 l 1,11,-1
 825 414 l 1,12,-1
 721 0 l 1,13,-1
 561 0 l 1,14,-1
 666 414 l 1,15,-1
 420 414 l 1,16,-1
 315 0 l 1,17,-1
 156 0 l 1,18,-1
 260 414 l 1,19,-1
 2 414 l 1,20,-1
 2 567 l 1,21,-1
 299 567 l 1,22,-1
 383 901 l 1,23,-1
 117 901 l 1,24,-1
 117 1055 l 1,25,-1
 420 1055 l 1,26,-1
 524 1470 l 1,27,-1
 684 1470 l 1,0,-1
788 901 m 1,28,-1
 543 901 l 1,29,-1
 459 567 l 1,30,-1
 705 567 l 1,31,-1
 788 901 l 1,28,-1
EndSplineSet
Validated: 1
EndChar

StartChar: dollar
Encoding: 4 36 3
GlifName: dollar
Width: 1234
LayerCount: 2
Fore
SplineSet
692 580 m 1,0,-1
 692 146 l 1,1,2
 802 149 802 149 864 207 c 128,-1,3
 926 265 926 265 926 365 c 0,4,5
 926 458 926 458 870 509.5 c 128,-1,6
 814 561 814 561 692 580 c 1,0,-1
592 770 m 1,7,-1
 592 1183 l 1,8,9
 488 1179 488 1179 429.5 1123 c 128,-1,10
 371 1067 371 1067 371 973 c 0,11,12
 371 887 371 887 425.5 837 c 128,-1,13
 480 787 480 787 592 770 c 1,7,-1
692 -301 m 1,14,-1
 592 -301 l 1,15,-1
 591 0 l 1,16,17
 489 5 489 5 388.5 28 c 128,-1,18
 288 51 288 51 190 92 c 1,19,-1
 190 272 l 1,20,21
 290 210 290 210 391.5 177 c 128,-1,22
 493 144 493 144 592 142 c 1,23,-1
 592 600 l 1,24,25
 392 631 392 631 291 722 c 128,-1,26
 190 813 190 813 190 963 c 0,27,28
 190 1120 190 1120 295.5 1213.5 c 128,-1,29
 401 1307 401 1307 592 1321 c 1,30,-1
 592 1556 l 1,31,-1
 692 1556 l 1,32,-1
 693 1321 l 1,33,34
 772 1316 772 1316 853 1301 c 128,-1,35
 934 1286 934 1286 1018 1260 c 1,36,-1
 1018 1087 l 1,37,38
 933 1130 933 1130 852.5 1153.5 c 128,-1,39
 772 1177 772 1177 692 1181 c 1,40,-1
 692 750 l 1,41,42
 898 719 898 719 1006 622 c 128,-1,43
 1114 525 1114 525 1114 371 c 128,-1,44
 1114 217 1114 217 997.5 114 c 128,-1,45
 881 11 881 11 693 2 c 1,46,-1
 692 -301 l 1,14,-1
EndSplineSet
Validated: 1
EndChar

StartChar: percent
Encoding: 5 37 4
GlifName: percent
Width: 1234
LayerCount: 2
Fore
SplineSet
696 319 m 0,0,1
 696 241 696 241 748.5 188 c 0,2,3
 801 135 801 135 879 135 c 0,4,5
 956 135 956 135 1009.5 188.5 c 0,6,7
 1063 242 1063 242 1063 319 c 0,8,9
 1063 396 1063 396 1009 450 c 0,10,11
 955 504 955 504 879 504 c 0,12,13
 801 504 801 504 748.5 451 c 0,14,15
 696 398 696 398 696 319 c 0,0,1
561 319 m 0,16,17
 561 454 561 454 653 546.5 c 0,18,19
 745 639 745 639 879 639 c 0,20,21
 943 639 943 639 1000.5 615 c 0,22,23
 1058 591 1058 591 1104 545 c 0,24,25
 1150 498 1150 498 1175 440 c 0,26,27
 1200 382 1200 382 1200 319 c 0,28,29
 1200 186 1200 186 1107 93 c 0,30,31
 1014 0 1014 0 879 0 c 0,32,33
 743 0 743 0 652 91.5 c 0,34,35
 561 183 561 183 561 319 c 0,16,17
121 465 m 1,36,-1
 86 561 l 1,37,-1
 1128 979 l 1,38,-1
 1169 883 l 1,39,-1
 121 465 l 1,36,-1
168 1112 m 0,40,41
 168 1033 168 1033 220.5 980.5 c 0,42,43
 273 928 273 928 352 928 c 0,44,45
 429 928 429 928 483 981.5 c 0,46,47
 537 1035 537 1035 537 1112 c 0,48,49
 537 1189 537 1189 483 1242.5 c 0,50,51
 429 1296 429 1296 352 1296 c 0,52,53
 275 1296 275 1296 221.5 1243 c 0,54,55
 168 1190 168 1190 168 1112 c 0,40,41
33 1112 m 0,56,57
 33 1247 33 1247 125 1339.5 c 0,58,59
 217 1432 217 1432 352 1432 c 0,60,61
 416 1432 416 1432 474.5 1408 c 0,62,63
 533 1384 533 1384 578 1339 c 0,64,65
 623 1294 623 1294 647.5 1235.5 c 0,66,67
 672 1177 672 1177 672 1112 c 0,68,69
 672 978 672 978 579 885.5 c 0,70,71
 486 793 486 793 352 793 c 0,72,73
 217 793 217 793 125 885 c 0,74,75
 33 977 33 977 33 1112 c 0,56,57
EndSplineSet
Validated: 1
EndChar

StartChar: ampersand
Encoding: 6 38 5
GlifName: ampersand
Width: 1234
VWidth: 0
LayerCount: 2
Fore
SplineSet
400.349 845.015 m 1,0,1
 312.4867 961.464 312.4867 961.464 283.2 1033.99 c 128,-1,2
 253.9119 1106.5154 253.9119 1106.5154 253.9119 1173.934 c 0,3,4
 253.9119 1308.77 253.9119 1308.77 345.7683 1408.365 c 128,-1,5
 437.6247 1507.9607 437.6247 1507.9607 573.8563 1507.9607 c 128,-1,6
 710.0873 1507.9607 710.0873 1507.9607 794.8433 1413.9832 c 128,-1,7
 879.5992 1320.0066 879.5992 1320.0066 879.5992 1188.2352 c 0,8,9
 879.5992 974.7452 879.5992 974.7452 633.7622 823.5632 c 1,10,-1
 867.1742 481.3662 l 1,11,12
 907.1117 571.2558 907.1117 571.2558 929.2992 689.7492 c 1,13,-1
 1095.2622 648.8898 l 1,14,15
 1052.6616 452.7638 1052.6616 452.7638 979.8872 326.0998 c 1,16,17
 1069.5249 189.2198 1069.5249 189.2198 1183.1242 96.2648 c 1,18,-1
 1075.7362 -49.8072 l 1,19,20
 978.9989 21.6967 978.9989 21.6967 876.0482 161.6398 c 1,21,22
 718.0732 -40.6142 718.0732 -40.6142 510.3982 -40.6142 c 128,-1,23
 302.7232 -40.6142 302.7232 -40.6142 185.5732 114.6518 c 0,24,25
 90.6103 241.3158 90.6103 241.3158 90.6103 397.6038 c 0,26,27
 90.612 674.9588 90.612 674.9588 400.349 845.015 c 1,0,1
551.225 942.056 m 1,28,29
 655.063 1012.5384 655.063 1012.5384 685.682 1065.656 c 128,-1,30
 716.3002 1118.7742 716.3002 1118.7742 716.3002 1189.257 c 128,-1,31
 716.3002 1259.7394 716.3002 1259.7394 674.144 1308.26 c 128,-1,32
 631.9878 1356.7815 631.9878 1356.7815 568.088 1356.7815 c 128,-1,33
 504.1882 1356.7815 504.1882 1356.7815 461.144 1308.7708 c 128,-1,34
 418.1001 1260.761 418.1001 1260.761 418.1001 1191.8108 c 128,-1,35
 418.1001 1122.8601 418.1001 1122.8601 480.2251 1037.0558 c 2,36,-1
 551.225 942.056 l 1,28,29
482.888 724.478 m 1,37,38
 353.313 635.6089 353.313 635.6089 308.05 559.507 c 128,-1,39
 262.7873 483.4074 262.7873 483.4074 262.7873 400.667 c 128,-1,40
 262.7873 317.9263 262.7873 317.9263 325.8 219.864 c 128,-1,41
 388.8127 121.8005 388.8127 121.8005 504.188 121.8005 c 0,42,43
 576.0757 121.8005 576.0757 121.8005 652.844 173.3855 c 128,-1,44
 729.6126 224.9714 729.6126 224.9714 775.763 306.6905 c 1,45,-1
 482.888 724.478 l 1,37,38
EndSplineSet
Validated: 1
EndChar

StartChar: quotesingle
Encoding: 7 39 6
GlifName: quotesingle
Width: 1234
LayerCount: 2
Fore
SplineSet
702 1493 m 1,0,-1
 702 938 l 1,1,-1
 528 938 l 1,2,-1
 528 1493 l 1,3,-1
 702 1493 l 1,0,-1
EndSplineSet
Validated: 1
EndChar

StartChar: parenleft
Encoding: 8 40 7
GlifName: parenleft
Width: 1234
LayerCount: 2
Fore
SplineSet
885 1554 m 1,0,1
 752 1326 752 1326 686.5 1099.5 c 0,2,3
 621 873 621 873 621 643 c 0,4,5
 621 414 621 414 686.5 187 c 0,6,7
 752 -40 752 -40 885 -270 c 1,8,-1
 725 -270 l 1,9,10
 574 -32 574 -32 500 193.5 c 0,11,12
 426 419 426 419 426 643 c 0,13,14
 426 866 426 866 500 1092 c 0,15,16
 574 1318 574 1318 725 1554 c 1,17,-1
 885 1554 l 1,0,1
EndSplineSet
Validated: 1
EndChar

StartChar: parenright
Encoding: 9 41 8
GlifName: parenright
Width: 1234
LayerCount: 2
Fore
SplineSet
348 1554 m 1,0,-1
 508 1554 l 1,1,2
 659 1318 659 1318 733 1092 c 0,3,4
 807 866 807 866 807 643 c 0,5,6
 807 418 807 418 733 192 c 0,7,8
 659 -34 659 -34 508 -270 c 1,9,-1
 348 -270 l 1,10,11
 481 -38 481 -38 546.5 189 c 0,12,13
 612 416 612 416 612 643 c 0,14,15
 612 871 612 871 546.5 1098 c 0,16,17
 481 1325 481 1325 348 1554 c 1,0,-1
EndSplineSet
Validated: 1
EndChar

StartChar: asterisk
Encoding: 10 42 9
GlifName: asterisk
Width: 1234
LayerCount: 2
Fore
SplineSet
1067 1247 m 1,0,-1
 709 1053 l 1,1,-1
 1067 858 l 1,2,-1
 1010 760 l 1,3,-1
 674 963 l 1,4,-1
 674 586 l 1,5,-1
 559 586 l 1,6,-1
 559 963 l 1,7,-1
 223 760 l 1,8,-1
 166 858 l 1,9,-1
 524 1053 l 1,10,-1
 166 1247 l 1,11,-1
 223 1346 l 1,12,-1
 559 1143 l 1,13,-1
 559 1520 l 1,14,-1
 674 1520 l 1,15,-1
 674 1143 l 1,16,-1
 1010 1346 l 1,17,-1
 1067 1247 l 1,0,-1
EndSplineSet
Validated: 1
EndChar

StartChar: plus
Encoding: 11 43 10
GlifName: plus
Width: 1234
LayerCount: 2
Fore
SplineSet
700 1171 m 1,0,-1
 700 727 l 1,1,-1
 1145 727 l 1,2,-1
 1145 557 l 1,3,-1
 700 557 l 1,4,-1
 700 113 l 1,5,-1
 532 113 l 1,6,-1
 532 557 l 1,7,-1
 88 557 l 1,8,-1
 88 727 l 1,9,-1
 532 727 l 1,10,-1
 532 1171 l 1,11,-1
 700 1171 l 1,0,-1
EndSplineSet
Validated: 1
EndChar

StartChar: comma
Encoding: 12 44 11
GlifName: comma
Width: 1234
LayerCount: 2
Fore
SplineSet
502 303 m 1,0,-1
 754 303 l 1,1,-1
 754 96 l 1,2,-1
 557 -287 l 1,3,-1
 403 -287 l 1,4,-1
 502 96 l 1,5,-1
 502 303 l 1,0,-1
EndSplineSet
Validated: 1
EndChar

StartChar: hyphen
Encoding: 13 45 12
GlifName: hyphen
Width: 1234
LayerCount: 2
Fore
SplineSet
356 643 m 1,0,-1
 877 643 l 1,1,-1
 877 479 l 1,2,-1
 356 479 l 1,3,-1
 356 643 l 1,0,-1
EndSplineSet
Validated: 1
EndChar

StartChar: period
Encoding: 14 46 13
GlifName: period
Width: 1234
LayerCount: 2
Fore
SplineSet
489 305 m 1,0,-1
 741 305 l 1,1,-1
 741 0 l 1,2,-1
 489 0 l 1,3,-1
 489 305 l 1,0,-1
EndSplineSet
Validated: 1
EndChar

StartChar: slash
Encoding: 15 47 14
GlifName: slash
Width: 1234
LayerCount: 2
Fore
SplineSet
995 1710 m 1,0,-1
 1185 1710 l 1,1,-1
 243 -383 l 1,2,-1
 52 -383 l 1,3,-1
 995 1710 l 1,0,-1
EndSplineSet
Validated: 1
EndChar

StartChar: colon
Encoding: 26 58 25
GlifName: colon
Width: 1234
LayerCount: 2
Fore
SplineSet
489 1063 m 1,0,-1
 741 1063 l 1,1,-1
 741 760 l 1,2,-1
 489 760 l 1,3,-1
 489 1063 l 1,0,-1
489 305 m 1,4,-1
 741 305 l 1,5,-1
 741 0 l 1,6,-1
 489 0 l 1,7,-1
 489 305 l 1,4,-1
EndSplineSet
Validated: 1
EndChar

StartChar: semicolon
Encoding: 27 59 26
GlifName: semicolon
Width: 1234
LayerCount: 2
Fore
SplineSet
502 303 m 1,0,-1
 754 303 l 1,1,-1
 754 96 l 1,2,-1
 557 -287 l 1,3,-1
 403 -287 l 1,4,-1
 502 96 l 1,5,-1
 502 303 l 1,0,-1
489 1063 m 1,6,-1
 741 1063 l 1,7,-1
 741 760 l 1,8,-1
 489 760 l 1,9,-1
 489 1063 l 1,6,-1
EndSplineSet
Validated: 1
EndChar

StartChar: less
Encoding: 28 60 27
GlifName: less
Width: 1234
LayerCount: 2
Fore
SplineSet
1145 961 m 1,0,-1
 295 641 l 1,1,-1
 1145 324 l 1,2,-1
 1145 141 l 1,3,-1
 88 559 l 1,4,-1
 88 725 l 1,5,-1
 1145 1143 l 1,6,-1
 1145 961 l 1,0,-1
EndSplineSet
Validated: 1
EndChar

StartChar: equal
Encoding: 29 61 28
GlifName: equal
Width: 1234
LayerCount: 2
Fore
SplineSet
88 524 m 1,0,-1
 1145 524 l 1,1,-1
 1145 352 l 1,2,-1
 88 352 l 1,3,-1
 88 524 l 1,0,-1
88 930 m 1,4,-1
 1145 930 l 1,5,-1
 1145 760 l 1,6,-1
 88 760 l 1,7,-1
 88 930 l 1,4,-1
EndSplineSet
Validated: 1
EndChar

StartChar: greater
Encoding: 30 62 29
GlifName: greater
Width: 1234
LayerCount: 2
Fore
SplineSet
88 961 m 1,0,-1
 88 1143 l 1,1,-1
 1145 725 l 1,2,-1
 1145 559 l 1,3,-1
 88 141 l 1,4,-1
 88 324 l 1,5,-1
 938 641 l 1,6,-1
 88 961 l 1,0,-1
EndSplineSet
Validated: 1
EndChar

StartChar: question
Encoding: 31 63 30
GlifName: question
Width: 1234
LayerCount: 2
Fore
SplineSet
244 1407 m 1,0,1
 430.351 1520 430.351 1520 624.675 1520 c 0,2,3
 819 1520 819 1520 929.5 1424 c 0,4,5
 1040 1328 1040 1328 1040 1167 c 0,6,7
 1040 1091 1040 1091 1006.5 1025.5 c 0,8,9
 973 960 973 960 879 868 c 2,10,-1
 791 782 l 2,11,12
 722 716 722 716 703 674 c 0,13,14
 684 632 684 632 684 571 c 2,15,-1
 684 401 l 1,16,-1
 494 401 l 1,17,-1
 494 555 l 2,18,19
 494 653 494 653 524.5 721.5 c 0,20,21
 555 790 555 790 639 872 c 2,22,-1
 729 961 l 2,23,24
 791 1020 791 1020 814.5 1064 c 0,25,26
 838 1108 838 1108 838 1157 c 0,27,28
 838 1246 838 1246 772.5 1301 c 0,29,30
 707 1356 707 1356 598 1356 c 0,31,32
 441.441 1356 441.441 1356 244 1219 c 1,33,-1
 244 1407 l 1,0,1
487 254 m 1,34,-1
 690 254 l 1,35,-1
 690 0 l 1,36,-1
 487 0 l 1,37,-1
 487 254 l 1,34,-1
EndSplineSet
Validated: 1
EndChar

StartChar: at
Encoding: 32 64 31
GlifName: at
Width: 1200
Flags: W
LayerCount: 2
Fore
SplineSet
800.658203125 -88.3447265625 m 5,0,1
 778.626953125 -100.708984375 778.626953125 -100.708984375 777.948242188 -102.002929688 c 4,2,3
 772.30078125 -112.485351562 772.30078125 -112.485351562 765.606445312 -119.268554688 c 132,-1,4
 758.912109375 -126.049804688 758.912109375 -126.049804688 704.969726562 -134.154296875 c 4,5,6
 652.270507812 -142.072265625 652.270507812 -142.072265625 601.965820312 -142.072265625 c 4,7,8
 600.778320312 -142.072265625 600.778320312 -142.072265625 599.592773438 -142.068359375 c 4,9,10
 598.811523438 -142.069335938 598.811523438 -142.069335938 598.032226562 -142.069335938 c 4,11,12
 434.852539062 -142.069335938 434.852539062 -142.069335938 350.021484375 -102.213867188 c 4,13,14
 109.565429688 10.7587890625 109.565429688 10.7587890625 109.08984375 422.790039062 c 4,15,16
 109.087890625 423.962890625 109.087890625 423.962890625 109.087890625 425.1328125 c 4,17,18
 109.087890625 835.521484375 109.087890625 835.521484375 275.030273438 1080.37792969 c 4,19,20
 414.462890625 1287.00976562 414.462890625 1287.00976562 678.202148438 1287.00976562 c 4,21,22
 879.505859375 1287.00976562 879.505859375 1287.00976562 983.921875 1153.43164062 c 132,-1,23
 1088.31835938 1019.87792969 1088.31835938 1019.87792969 1088.31835938 779.520507812 c 6,24,-1
 1088.31835938 779.43359375 l 5,25,-1
 1088.31835938 779.161132812 l 6,26,27
 1088.31835938 464.611328125 1088.31835938 464.611328125 981.680664062 316.860351562 c 4,28,29
 918.918945312 229.833984375 918.918945312 229.833984375 828.262695312 229.833984375 c 6,30,-1
 828.060546875 229.833984375 l 6,31,32
 737.272460938 229.930664062 737.272460938 229.930664062 702.245117188 305.478515625 c 4,33,34
 689.732421875 331.62109375 689.732421875 331.62109375 685.459960938 365.12109375 c 5,35,36
 588.174804688 230.10546875 588.174804688 230.10546875 495.220703125 229.446289062 c 4,37,38
 343.9765625 230.252929688 343.9765625 230.252929688 343.819335938 477.122070312 c 4,39,40
 343.919921875 638.041015625 343.919921875 638.041015625 387.334960938 761.426757812 c 4,41,42
 456.790039062 958.817382812 456.790039062 958.817382812 589.966796875 958.817382812 c 4,43,44
 590.317382812 958.817382812 590.317382812 958.817382812 590.66796875 958.81640625 c 132,-1,45
 591.173828125 958.821289062 591.173828125 958.821289062 591.6796875 958.821289062 c 4,46,47
 670.961914062 958.821289062 670.961914062 958.821289062 736.147460938 842.262695312 c 5,48,-1
 747.336914062 922.392578125 l 6,49,50
 751.091796875 948.668945312 751.091796875 948.668945312 787.4140625 948.668945312 c 4,51,52
 798.841796875 948.668945312 798.841796875 948.668945312 813.4921875 946.067382812 c 4,53,54
 835.697265625 942.302734375 835.697265625 942.302734375 832.911132812 922.392578125 c 6,55,-1
 774.325195312 503.528320312 l 6,56,57
 770.158203125 473.071289062 770.158203125 473.071289062 770.158203125 448.607421875 c 4,58,59
 770.158203125 348.8125 770.158203125 348.8125 839.494140625 348.73046875 c 4,60,61
 960.49609375 348.96484375 960.49609375 348.96484375 982.99609375 677.44921875 c 4,62,63
 986.208007812 726.361328125 986.208007812 726.361328125 986.208007812 788.814453125 c 4,64,65
 986.208007812 1048.57519531 986.208007812 1048.57519531 817.443359375 1135.01171875 c 4,66,67
 754.06640625 1167.35449219 754.06640625 1167.35449219 669.943359375 1167.35449219 c 4,68,69
 668.721679688 1167.35449219 668.721679688 1167.35449219 667.49609375 1167.34765625 c 4,70,71
 389.962890625 1165.80273438 389.962890625 1165.80273438 280.295898438 873.677734375 c 4,72,73
 213.845703125 700.9296875 213.845703125 700.9296875 210.849609375 436.146484375 c 5,74,75
 211.734375 215.19140625 211.734375 215.19140625 285.892578125 106.51953125 c 4,76,77
 373.28515625 -21.8740234375 373.28515625 -21.8740234375 571.46875 -21.8740234375 c 4,78,79
 572.181640625 -21.8740234375 572.181640625 -21.8740234375 572.896484375 -21.8720703125 c 4,80,81
 574.439453125 -21.8798828125 574.439453125 -21.8798828125 575.978515625 -21.8798828125 c 4,82,83
 685.388671875 -21.8798828125 685.388671875 -21.8798828125 773.66796875 18.6484375 c 4,84,85
 790.395507812 26.328125 790.395507812 26.328125 797.978515625 26.328125 c 4,86,87
 810.922851562 27.044921875 810.922851562 27.044921875 821.990234375 27.044921875 c 4,88,89
 887.263671875 27.044921875 887.263671875 27.044921875 887.263671875 2.1259765625 c 4,90,91
 887.263671875 -26.5771484375 887.263671875 -26.5771484375 800.65625 -88.3427734375 c 5,92,-1
 800.658203125 -88.3447265625 l 5,0,1
706.525390625 720.245117188 m 5,93,94
 655.15234375 840.443359375 655.15234375 840.443359375 595.869140625 840.443359375 c 4,95,96
 595.573242188 840.443359375 595.573242188 840.443359375 595.27734375 840.440429688 c 4,97,98
 594.715820312 840.448242188 594.715820312 840.448242188 594.15625 840.448242188 c 4,99,100
 496.717773438 840.448242188 496.717773438 840.448242188 459.67578125 630.098632812 c 4,101,102
 447.216796875 561.661132812 447.216796875 561.661132812 447.002929688 491.454101562 c 4,103,104
 447 490.592773438 447 490.592773438 447 489.737304688 c 4,105,106
 447 420.803710938 447 420.803710938 464.08203125 385.016601562 c 4,107,108
 481.376953125 348.783203125 481.376953125 348.783203125 522.868164062 348.73046875 c 4,109,110
 581.33203125 348.921875 581.33203125 348.921875 674.928710938 483.497070312 c 5,111,-1
 706.525390625 720.245117188 l 5,93,94
EndSplineSet
Validated: 1
EndChar

StartChar: bracketleft
Encoding: 59 91 58
GlifName: bracketleft
Width: 1234
LayerCount: 2
Fore
SplineSet
463 1556 m 1,0,-1
 887 1556 l 1,1,-1
 887 1413 l 1,2,-1
 647 1413 l 1,3,-1
 647 -127 l 1,4,-1
 887 -127 l 1,5,-1
 887 -270 l 1,6,-1
 463 -270 l 1,7,-1
 463 1556 l 1,0,-1
EndSplineSet
Validated: 1
EndChar

StartChar: backslash
Encoding: 60 92 59
GlifName: backslash
Width: 1234
LayerCount: 2
Fore
SplineSet
293 1493 m 1,0,-1
 1079 -190 l 1,1,-1
 889 -190 l 1,2,-1
 102 1493 l 1,3,-1
 293 1493 l 1,0,-1
EndSplineSet
Validated: 1
EndChar

StartChar: bracketright
Encoding: 61 93 60
GlifName: bracketright
Width: 1234
LayerCount: 2
Fore
SplineSet
770 1556 m 1,0,-1
 770 -270 l 1,1,-1
 346 -270 l 1,2,-1
 346 -127 l 1,3,-1
 586 -127 l 1,4,-1
 586 1413 l 1,5,-1
 346 1413 l 1,6,-1
 346 1556 l 1,7,-1
 770 1556 l 1,0,-1
EndSplineSet
Validated: 1
EndChar

StartChar: asciicircum
Encoding: 62 94 61
GlifName: asciicircum
Width: 1234
LayerCount: 2
Fore
SplineSet
705 1493 m 1,0,-1
 1161 936 l 1,1,-1
 983 936 l 1,2,-1
 616 1331 l 1,3,-1
 250 936 l 1,4,-1
 72 936 l 1,5,-1
 528 1493 l 1,6,-1
 705 1493 l 1,0,-1
EndSplineSet
Validated: 1
EndChar

StartChar: underscore
Encoding: 63 95 62
GlifName: underscore
Width: 1234
LayerCount: 2
Fore
SplineSet
1024 -403 m 1,0,-1
 1024 -483 l 1,1,-1
 0 -483 l 1,2,-1
 0 -403 l 1,3,-1
 1024 -403 l 1,0,-1
EndSplineSet
Validated: 1
EndChar

StartChar: grave
Encoding: 64 96 63
GlifName: grave
Width: 1234
LayerCount: 2
Fore
SplineSet
477 1638 m 1,0,-1
 758 1262 l 1,1,-1
 604 1262 l 1,2,-1
 279 1638 l 1,3,-1
 477 1638 l 1,0,-1
EndSplineSet
Validated: 1
EndChar

StartChar: braceleft
Encoding: 91 123 90
GlifName: braceleft
Width: 1234
LayerCount: 2
Fore
SplineSet
1012 -190 m 1,0,-1
 1012 -334 l 1,1,-1
 948 -334 l 2,2,3
 699 -334 699 -334 614.5 -260 c 128,-1,4
 530 -186 530 -186 530 35 c 2,5,-1
 530 274 l 2,6,7
 530 425 530 425 476.5 483 c 128,-1,8
 423 541 423 541 283 541 c 2,9,-1
 221 541 l 1,10,-1
 221 684 l 1,11,-1
 283 684 l 2,12,13
 424 684 424 684 477 741 c 128,-1,14
 530 798 530 798 530 948 c 2,15,-1
 530 1188 l 2,16,17
 530 1409 530 1409 614.5 1482.5 c 128,-1,18
 699 1556 699 1556 948 1556 c 2,19,-1
 1012 1556 l 1,20,-1
 1012 1413 l 1,21,-1
 942 1413 l 2,22,23
 802 1413 802 1413 759.5 1369.5 c 128,-1,24
 717 1326 717 1326 717 1184 c 2,25,-1
 717 936 l 2,26,27
 717 779 717 779 671.5 708 c 128,-1,28
 626 637 626 637 516 612 c 1,29,30
 627 585 627 585 672 514 c 128,-1,31
 717 443 717 443 717 287 c 2,32,-1
 717 39 l 2,33,34
 717 -104 717 -104 759.5 -147 c 128,-1,35
 802 -190 802 -190 942 -190 c 2,36,-1
 1012 -190 l 1,0,-1
EndSplineSet
Validated: 1
EndChar

StartChar: bar
Encoding: 92 124 91
GlifName: bar
Width: 1234
LayerCount: 2
Fore
SplineSet
702 1565 m 1,0,-1
 702 -483 l 1,1,-1
 530 -483 l 1,2,-1
 530 1565 l 1,3,-1
 702 1565 l 1,0,-1
EndSplineSet
Validated: 1
EndChar

StartChar: braceright
Encoding: 93 125 92
GlifName: braceright
Width: 1234
LayerCount: 2
Fore
SplineSet
221 -190 m 1,0,-1
 289 -190 l 2,1,2
 430 -190 430 -190 473 -146 c 0,3,4
 516 -102 516 -102 516 39 c 2,5,-1
 516 287 l 2,6,7
 516 443 516 443 561 514 c 0,8,9
 606 585 606 585 717 612 c 1,10,11
 607 637 607 637 561.5 708 c 0,12,13
 516 779 516 779 516 936 c 2,14,-1
 516 1184 l 2,15,16
 516 1325 516 1325 473 1369 c 0,17,18
 430 1413 430 1413 289 1413 c 2,19,-1
 221 1413 l 1,20,-1
 221 1556 l 1,21,-1
 283 1556 l 2,22,23
 532 1556 532 1556 616 1482.5 c 0,24,25
 700 1409 700 1409 700 1188 c 2,26,-1
 700 948 l 2,27,28
 700 798 700 798 753.5 741 c 0,29,30
 807 684 807 684 948 684 c 2,31,-1
 1012 684 l 1,32,-1
 1012 541 l 1,33,-1
 948 541 l 2,34,35
 807 541 807 541 753.5 483 c 0,36,37
 700 425 700 425 700 274 c 2,38,-1
 700 35 l 2,39,40
 700 -186 700 -186 616 -260 c 0,41,42
 532 -334 532 -334 283 -334 c 2,43,-1
 221 -334 l 1,44,-1
 221 -190 l 1,0,-1
EndSplineSet
Validated: 1
EndChar

StartChar: asciitilde
Encoding: 94 126 93
GlifName: asciitilde
Width: 1234
LayerCount: 2
Fore
SplineSet
864 657 m 0,0,1
 998.194 657 998.194 657 1145 780 c 1,2,-1
 1145 606 l 1,3,4
 1000.085 492 1000.085 492 848 492 c 0,5,6
 758 492 758 492 645 543 c 0,7,8
 488.8 614 488.8 614 381 614 c 0,9,10
 229.365 614 229.365 614 88 492 c 1,11,-1
 88 666 l 1,12,13
 236.2 780 236.2 780 395 780 c 0,14,15
 512.2 780 512.2 780 641.6 718.5 c 0,16,17
 771 657 771 657 864 657 c 0,0,1
EndSplineSet
Validated: 1
EndChar

StartChar: Ntilde
Encoding: 99 209 98
GlifName: N_tilde
Width: 1234
Flags: W
LayerCount: 2
Fore
SplineSet
235.936 0 m 1,0,1
 199.1757 0 199.1757 0 172.5749 25.1655 c 128,-1,2
 146.0004 50.3061 146.0004 50.3061 146.0004 84.992 c 2,3,-1
 146.000425977 85.0605966 l 1,4,-1
 147.000425977 1403.5605966 l 2,5,6
 147.028258077 1440.2051966 147.028258077 1440.2051966 176.237625977 1465.6698966 c 0,7,8
 202.459625977 1488.5301966 202.459625977 1488.5301966 236.312825977 1488.5301966 c 0,9,10
 240.169595977 1488.5301966 240.169595977 1488.5301966 244.125415977 1488.2334876 c 0,11,12
 266.620715977 1486.5457076 266.620715977 1486.5457076 286.372415977 1473.9385876 c 128,-1,13
 306.124215977 1461.3314876 306.124215977 1461.3314876 316.021815977 1444.1826876 c 2,14,-1
 907.620815977 419.1826876 l 1,15,-1
 906.500695977 1405.9066876 l 1,16,-1
 906.50063723 1406.0098166 l 2,17,18
 906.50063723 1440.6669166 906.50063723 1440.6669166 933.04933723 1465.7949166 c 128,-1,19
 959.63753723 1490.9602166 959.63753723 1490.9602166 996.40403723 1490.9975166 c 2,20,-1
 996.51323323 1490.99757208 l 2,21,22
 1033.21023323 1490.99757208 1033.21023323 1490.99757208 1059.81583323 1465.92337208 c 128,-1,23
 1086.46113323 1440.81197208 1086.46113323 1440.81197208 1086.50063323 1406.08827208 c 2,24,-1
 1088.00063323 85.08827208 l 2,25,26
 1088.02436863 64.30277208 1088.02436863 64.30277208 1077.05143323 44.87287208 c 128,-1,27
 1066.07853323 25.44307208 1066.07853323 25.44307208 1047.14323323 13.78747208 c 0,28,29
 1024.86143323 0.0717720800002 1024.86143323 0.0717720800002 999.74203323 0.0717720800002 c 0,30,31
 988.21633323 0.0717720800002 988.21633323 0.0717720800002 976.09323323 2.95938208 c 0,32,33
 937.54883323 12.14024208 937.54883323 12.14024208 918.97823323 44.31488208 c 2,34,-1
 326.74823323 1070.40488208 l 1,35,-1
 326.00116323 84.93488208 l 2,36,37
 325.97480073 50.21618208 325.97480073 50.21618208 299.34166323 25.10578208 c 128,-1,38
 272.70856323 -0.00461791999992 272.70856323 -0.00461791999992 235.93666323 -0.00461791999992 c 1,39,-1
 235.936 0 l 1,0,1
EndSplineSet
Validated: 524289
EndChar

StartChar: ntilde
Encoding: 108 241 107
GlifName: ntilde
Width: 1234
Flags: W
LayerCount: 2
Fore
SplineSet
231.004 22.2939 m 128,-1,1
 208.9045 44.4921 208.9045 44.4921 209 75.2331 c 2,2,-1
 212 1040.7331 l 2,3,4
 212.100466 1073.0664 212.100466 1073.0664 236.4955 1095.4768 c 128,-1,5
 260.8905 1117.8872 260.8905 1117.8872 294.5764 1115.1308 c 128,-1,6
 328.2623 1112.37441 328.2623 1112.37441 348.4674 1083.4735 c 2,7,-1
 886.1284 314.4195 l 1,8,-1
 883.50046 1036.7275 l 2,9,10
 883.3889 1067.3906 883.3889 1067.3906 905.43746 1089.6393 c 128,-1,11
 927.48606 1111.888 927.48606 1111.888 958.22706 1111.9999 c 128,-1,12
 988.96806 1112.111744 988.96806 1112.111744 1011.17796 1090.0241 c 128,-1,13
 1033.38786 1067.9364 1033.38786 1067.9364 1033.49946 1037.2733 c 2,14,-1
 1036.99946 75.2733 l 2,15,16
 1037.128882 39.7007 1037.128882 39.7007 1010.91406 18.123 c 128,-1,17
 984.69916 -3.4546 984.69916 -3.4546 951.87886 1.0365 c 128,-1,18
 919.05856 5.5276 919.05856 5.5276 900.53226 32.0271 c 2,19,-1
 361.26326 803.3811 l 1,20,-1
 358.99931 74.7671 l 2,21,22
 358.9037915 44.0261 358.9037915 44.0261 336.66681 21.9656 c 128,-1,23
 314.42981 -0.0948 314.42981 -0.0948 283.76661 0.000500000000031 c 128,-1,0
 253.10341 0.0956765 253.10341 0.0956765 231.004 22.2939 c 128,-1,1
EndSplineSet
Validated: 524289
EndChar

StartChar: dagger
Encoding: 113 8224 112
GlifName: dagger
Width: 1234
LayerCount: 2
Fore
SplineSet
528 1493 m 1,0,-1
 705 1493 l 1,1,-1
 705 1073 l 1,2,-1
 1071 1073 l 1,3,-1
 1071 920 l 1,4,-1
 705 920 l 1,5,-1
 705 -197 l 1,6,-1
 528 -197 l 1,7,-1
 528 920 l 1,8,-1
 162 920 l 1,9,-1
 162 1073 l 1,10,-1
 528 1073 l 1,11,-1
 528 1493 l 1,0,-1
EndSplineSet
Validated: 1
EndChar

StartChar: degree
Encoding: 114 176 113
GlifName: degree
Width: 1234
LayerCount: 2
Fore
SplineSet
934 1200.5 m 0,0,1
 934 1068 934 1068 841 976.5 c 0,2,3
 748 885 748 885 613.5 885 c 0,4,5
 479 885 479 885 389 975 c 0,6,7
 299 1065 299 1065 299 1199.5 c 0,8,9
 299 1334 299 1334 391 1427 c 0,10,11
 483 1520 483 1520 617.065 1520 c 0,12,13
 751.13 1520 751.13 1520 842.565 1426.5 c 0,14,15
 933.9998 1333 933.9998 1333 934 1200.5 c 0,0,1
616 1391 m 0,16,17
 537 1391 537 1391 481.5 1335.5 c 0,18,19
 426 1280 426 1280 426 1200 c 0,20,21
 426 1120 426 1120 480.5 1066 c 0,22,23
 535 1012 535 1012 614.5 1012 c 0,24,25
 694 1012 694 1012 750.5 1067 c 0,26,27
 807 1122 807 1122 807 1200.5 c 0,28,29
 807 1279 807 1279 751 1335 c 0,30,31
 695 1391 695 1391 616 1391 c 0,16,17
EndSplineSet
Validated: 1
EndChar

StartChar: cent
Encoding: 115 162 114
GlifName: cent
Width: 1234
LayerCount: 2
Fore
SplineSet
801 1145 m 1,0,1
 915 1139 915 1139 1061 1077 c 1,2,-1
 1061 905 l 1,3,4
 927 985 927 985 801 993 c 1,5,-1
 801 123 l 1,6,7
 929.301 133.1826 929.301 133.1826 1061 213 c 1,8,-1
 1061 41 l 1,9,10
 915 -21 915 -21 801 -27 c 1,11,-1
 801 -313 l 1,12,-1
 698 -313 l 1,13,-1
 698 -27 l 1,14,15
 473 -5 473 -5 343 151.5 c 0,16,17
 213 308 213 308 213 558.5 c 0,18,19
 213 809 213 809 344.5 967.5 c 0,20,21
 476 1126 476 1126 698 1145 c 1,22,-1
 698 1432 l 1,23,-1
 801 1432 l 1,24,-1
 801 1145 l 1,0,1
698 127 m 1,25,-1
 698 991 l 1,26,27
 566 979 566 979 486 861 c 0,28,29
 406 743 406 743 406 559 c 0,30,31
 406 375 406 375 486 257.5 c 0,32,33
 566 140 566 140 698 127 c 1,25,-1
EndSplineSet
Validated: 1
EndChar

StartChar: sterling
Encoding: 116 163 115
GlifName: sterling
Width: 1234
LayerCount: 2
Fore
SplineSet
817 1520 m 0,0,1
 946 1520 946 1520 1092 1462 c 1,2,-1
 1092 1278 l 1,3,4
 968 1366 968 1366 835 1366 c 0,5,6
 702 1366 702 1366 638.5 1276.5 c 0,7,8
 575 1187 575 1187 575 995 c 2,9,-1
 575 778 l 1,10,-1
 946 778 l 1,11,-1
 946 635 l 1,12,-1
 575 635 l 1,13,-1
 575 170 l 1,14,-1
 1112 170 l 1,15,-1
 1112 0 l 1,16,-1
 139 0 l 1,17,-1
 139 170 l 1,18,-1
 375 170 l 1,19,-1
 375 635 l 1,20,-1
 176 635 l 1,21,-1
 176 778 l 1,22,-1
 375 778 l 1,23,-1
 375 1016 l 2,24,25
 375 1270 375 1270 484.5 1395 c 0,26,27
 594 1520 594 1520 817 1520 c 0,0,1
EndSplineSet
Validated: 1
EndChar

StartChar: section
Encoding: 117 167 116
GlifName: section
Width: 1234
LayerCount: 2
Fore
SplineSet
364 1440.5 m 0,0,1
 464 1520 464 1520 620 1520 c 0,2,3
 776 1520 776 1520 936 1462 c 1,4,-1
 936 1298 l 1,5,6
 770 1376 770 1376 663 1376 c 0,7,8
 556 1376 556 1376 502.5 1336 c 0,9,10
 449 1296 449 1296 449 1225 c 0,11,12
 449 1135 449 1135 654 1020 c 0,13,14
 680 1005 680 1005 694 997 c 0,15,16
 906 878 906 878 971 801 c 0,17,18
 1036 724 1036 724 1036 623 c 0,19,20
 1036 444.86 1036 444.86 852 340 c 1,21,22
 971 238.557 971 238.557 971 105.779 c 0,23,24
 971 -27 971 -27 869 -111 c 0,25,26
 767 -195 767 -195 610 -195 c 0,27,28
 453 -195 453 -195 279 -137 c 1,29,-1
 279 27 l 1,30,31
 453 -51 453 -51 563 -51 c 0,32,33
 673 -51 673 -51 729.5 -9 c 0,34,35
 786 33 786 33 786 109 c 0,36,37
 786 211 786 211 565 334 c 1,38,-1
 541 348 l 1,39,40
 327 468 327 468 263 544.5 c 0,41,42
 199 621 199 621 199 723 c 0,43,44
 199 906.923 199 906.923 383 1006 c 1,45,46
 264 1093.2667 264 1093.2667 264 1227.133 c 0,47,48
 264 1361 264 1361 364 1440.5 c 0,0,1
750 410 m 1,49,50
 872 498.5484 872 498.5484 872 583.274 c 0,51,52
 872 667.9998 872 667.9998 800.5 736 c 0,53,54
 729 804.0002 729 804.0002 485 936 c 1,55,56
 362 846.7258 362 846.7258 362 762.363 c 0,57,58
 362 678.0001 362 678.0001 432.5 610.5 c 0,59,60
 503 542.9999 503 542.9999 750 410 c 1,49,50
EndSplineSet
Validated: 1
EndChar

StartChar: bullet
Encoding: 118 8226 117
GlifName: bullet
Width: 1234
LayerCount: 2
Fore
SplineSet
319 762 m 0,0,1
 319 886 319 886 405 971.5 c 0,2,3
 491 1057 491 1057 616 1057 c 0,4,5
 740 1057 740 1057 826.5 971 c 0,6,7
 913 885 913 885 913 762 c 0,8,9
 913 638 913 638 826 551.5 c 0,10,11
 739 465 739 465 614 465 c 0,12,13
 490 465 490 465 404.5 550.5 c 0,14,15
 319 636 319 636 319 762 c 0,0,1
EndSplineSet
Validated: 1
EndChar

StartChar: paragraph
Encoding: 119 182 118
GlifName: paragraph
Width: 1234
LayerCount: 2
Fore
SplineSet
582 1493 m 2,0,-1
 1030 1493 l 1,1,-1
 1030 -197 l 1,2,-1
 889 -197 l 1,3,-1
 889 1370 l 1,4,-1
 698 1370 l 1,5,-1
 698 -197 l 1,6,-1
 557 -197 l 1,7,-1
 557 649 l 1,8,9
 342 666 342 666 224 776.5 c 0,10,11
 106 887 106 887 106 1074 c 0,12,13
 106 1261 106 1261 236.5 1377 c 0,14,15
 367 1493 367 1493 582 1493 c 2,0,-1
EndSplineSet
Validated: 1
EndChar

StartChar: germandbls
Encoding: 120 223 119
GlifName: germandbls
Width: 1234
LayerCount: 2
Fore
SplineSet
459 184 m 1,0,1
 608.548 123 608.548 123 721.774 123 c 0,2,3
 835 123 835 123 899 171.5 c 0,4,5
 963 220 963 220 963 296 c 0,6,7
 963 372 963 372 930.5 419.5 c 0,8,9
 898 467 898 467 778 541 c 2,10,-1
 711 580 l 1,11,12
 528 691.391 528 691.391 528 848 c 0,13,14
 528 976 528 976 609 1061.5 c 0,15,16
 690 1147 690 1147 846 1182 c 1,17,18
 844 1289 844 1289 783.5 1346 c 0,19,20
 723 1403 723 1403 606 1403 c 0,21,22
 489 1403 489 1403 432 1337.5 c 0,23,24
 375 1272 375 1272 375 1133 c 2,25,-1
 375 0 l 1,26,-1
 188 0 l 1,27,-1
 188 1137 l 2,28,29
 188 1350 188 1350 293 1453 c 0,30,31
 398 1556 398 1556 608 1556 c 0,32,33
 1025.954 1556 1025.954 1556 1030 1119 c 1,34,35
 875 1105 875 1105 791 1043 c 0,36,37
 707 981 707 981 707 881 c 0,38,39
 707 832 707 832 734.5 793.5 c 0,40,41
 762 755 762 755 829 713 c 2,42,-1
 887 676 l 2,43,44
 1038 583 1038 583 1093.5 501 c 0,45,46
 1149 419 1149 419 1149 303 c 0,47,48
 1149 149 1149 149 1037 60 c 0,49,50
 925 -29 925 -29 729 -29 c 0,51,52
 593.75 -29 593.75 -29 459 20 c 1,53,-1
 459 184 l 1,0,1
EndSplineSet
Validated: 1
EndChar

StartChar: registered
Encoding: 121 174 120
GlifName: registered
Width: 1234
LayerCount: 2
Fore
SplineSet
600 1100 m 2,0,1
 891 1100 891 1100 891 901 c 0,2,3
 891 830 891 830 847 783.5 c 0,4,5
 803 737 803 737 723 723 c 1,6,7
 759.8776 713.29538 759.8776 713.29538 838 592 c 2,8,-1
 952 406 l 1,9,-1
 809 406 l 1,10,-1
 702 580 l 2,11,12
 653 660 653 660 622.5 681 c 0,13,14
 592 702 592 702 547 702 c 2,15,-1
 492 702 l 1,16,-1
 492 406 l 1,17,-1
 362 406 l 1,18,-1
 362 1100 l 1,19,-1
 600 1100 l 2,0,1
594 1016 m 2,20,-1
 492 1016 l 1,21,-1
 492 784 l 1,22,-1
 594 784 l 2,23,24
 684 784 684 784 721 811 c 0,25,26
 758 838 758 838 758 900.5 c 0,27,28
 758 963 758 963 721 989.5 c 0,29,30
 684 1016 684 1016 594 1016 c 2,20,-1
616.5 1358 m 0,31,32
 871 1358 871 1358 1052 1175.989 c 0,33,34
 1233 993.978 1233 993.978 1233 741.489 c 0,35,36
 1233 489 1233 489 1051 307 c 0,37,38
 869 125 869 125 616.5 125 c 0,39,40
 364 125 364 125 182 307 c 0,41,42
 0 489 0 489 0 741.489 c 0,43,44
 0 993.978 0 993.978 181 1175.989 c 0,45,46
 362 1358 362 1358 616.5 1358 c 0,31,32
616.5 1255 m 0,47,48
 403 1255 403 1255 252.5 1104.5 c 0,49,50
 102 954 102 954 102 742.5 c 0,51,52
 102 531 102 531 254 379 c 0,53,54
 406 227 406 227 616.5 227 c 0,55,56
 827 227 827 227 978.5 378.5 c 0,57,58
 1130 530 1130 530 1130 742.5 c 0,59,60
 1130 955 1130 955 980 1105 c 0,61,62
 830 1255 830 1255 616.5 1255 c 0,47,48
EndSplineSet
Validated: 1
EndChar

StartChar: copyright
Encoding: 122 169 121
GlifName: copyright
Width: 1234
LayerCount: 2
Fore
SplineSet
637 1116 m 0,0,1
 762.261 1116 762.261 1116 864 1071 c 1,2,-1
 864 963 l 1,3,4
 750.071 1018 750.071 1018 635.036 1018 c 0,5,6
 520 1018 520 1018 452.5 943.5 c 0,7,8
 385 869 385 869 385 739 c 0,9,10
 385 609 385 609 455 538 c 0,11,12
 525 467 525 467 645.462 467 c 0,13,14
 765.924 467 765.924 467 864 518 c 1,15,-1
 864 414 l 1,16,17
 762.261 369 762.261 369 637 369 c 0,18,19
 457 369 457 369 353.5 469 c 0,20,21
 250 569 250 569 250 741.5 c 0,22,23
 250 914 250 914 354 1015 c 0,24,25
 458 1116 458 1116 637 1116 c 0,0,1
616.5 1255 m 0,26,27
 403 1255 403 1255 252.5 1104.5 c 0,28,29
 102 954 102 954 102 742.5 c 0,30,31
 102 531 102 531 254 379 c 0,32,33
 406 227 406 227 616.5 227 c 0,34,35
 827 227 827 227 978.5 378.5 c 0,36,37
 1130 530 1130 530 1130 742.5 c 0,38,39
 1130 955 1130 955 980 1105 c 0,40,41
 830 1255 830 1255 616.5 1255 c 0,26,27
616.5 1358 m 0,42,43
 871 1358 871 1358 1052 1175.989 c 0,44,45
 1233 993.978 1233 993.978 1233 741.489 c 0,46,47
 1233 489 1233 489 1051 307 c 0,48,49
 869 125 869 125 616.5 125 c 0,50,51
 364 125 364 125 182 307 c 0,52,53
 0 489 0 489 0 741.489 c 0,54,55
 0 993.978 0 993.978 181 1175.989 c 0,56,57
 362 1358 362 1358 616.5 1358 c 0,42,43
EndSplineSet
Validated: 1
EndChar

StartChar: acute
Encoding: 123 180 122
GlifName: acute
Width: 1234
LayerCount: 2
Fore
SplineSet
756 1638 m 1,0,-1
 954 1638 l 1,1,-1
 629 1262 l 1,2,-1
 475 1262 l 1,3,-1
 756 1638 l 1,0,-1
EndSplineSet
Validated: 1
EndChar

StartChar: dieresis
Encoding: 124 168 123
GlifName: dieresis
Width: 1234
LayerCount: 2
Fore
SplineSet
319 1552 m 1,0,-1
 522 1552 l 1,1,-1
 522 1350 l 1,2,-1
 319 1350 l 1,3,-1
 319 1552 l 1,0,-1
711 1552 m 1,4,-1
 913 1552 l 1,5,-1
 913 1350 l 1,6,-1
 711 1350 l 1,7,-1
 711 1552 l 1,4,-1
EndSplineSet
Validated: 1
EndChar

StartChar: notequal
Encoding: 125 8800 124
GlifName: notequal
Width: 1234
LayerCount: 2
Fore
SplineSet
88 930 m 1,0,-1
 735 930 l 1,1,-1
 981 1245 l 1,2,-1
 1106 1143 l 1,3,-1
 942 930 l 1,4,-1
 1145 930 l 1,5,-1
 1145 760 l 1,6,-1
 811 760 l 1,7,-1
 627 524 l 1,8,-1
 1145 524 l 1,9,-1
 1145 352 l 1,10,-1
 498 352 l 1,11,-1
 250 37 l 1,12,-1
 125 141 l 1,13,-1
 289 352 l 1,14,-1
 88 352 l 1,15,-1
 88 524 l 1,16,-1
 418 524 l 1,17,-1
 602 760 l 1,18,-1
 88 760 l 1,19,-1
 88 930 l 1,0,-1
EndSplineSet
Validated: 1
EndChar

StartChar: AE
Encoding: 126 198 125
GlifName: A_E_
Width: 1234
LayerCount: 2
Fore
SplineSet
1161 1493 m 1,0,-1
 1161 1323 l 1,1,-1
 823 1323 l 1,2,-1
 823 881 l 1,3,-1
 1130 881 l 1,4,-1
 1130 711 l 1,5,-1
 823 711 l 1,6,-1
 823 170 l 1,7,-1
 1180 170 l 1,8,-1
 1180 0 l 1,9,-1
 637 0 l 1,10,-1
 637 383 l 1,11,-1
 285 383 l 1,12,-1
 184 0 l 1,13,-1
 0 0 l 1,14,-1
 410 1493 l 1,15,-1
 1161 1493 l 1,0,-1
530 1323 m 1,16,-1
 328 551 l 1,17,-1
 637 551 l 1,18,-1
 637 1323 l 1,19,-1
 530 1323 l 1,16,-1
EndSplineSet
Validated: 1
EndChar

StartChar: Oslash
Encoding: 127 216 126
GlifName: O_slash
Width: 1234
LayerCount: 2
Fore
SplineSet
371 303 m 1,0,1
 401 225 401 225 466.5 180 c 0,2,3
 532 135 532 135 616 135 c 0,4,5
 770 135 770 135 837.5 275.5 c 0,6,7
 905 416 905 416 905 745 c 0,8,9
 905 946 905 946 885 1036 c 1,10,-1
 371 303 l 1,0,1
842 1190 m 1,11,12
 790.7654 1356 790.7654 1356 624.883 1356 c 0,13,14
 459 1356 459 1356 393.5 1210 c 0,15,16
 328 1064 328 1064 328 686 c 0,17,18
 328 539 328 539 338 471 c 1,19,-1
 842 1190 l 1,11,12
117 745 m 0,20,21
 117 1520 117 1520 604.788 1520 c 0,22,23
 845.576 1520 845.576 1520 961 1358 c 1,24,-1
 1100 1559 l 1,25,-1
 1200 1485 l 1,26,-1
 1032 1247 l 1,27,28
 1116 1081.049 1116 1081.049 1116 718.024 c 0,29,30
 1116 355 1116 355 992.5 163 c 0,31,32
 869 -29 869 -29 622.5 -29 c 0,33,34
 376 -29 376 -29 254 133 c 1,35,-1
 111 -70 l 1,36,-1
 8 0 l 1,37,-1
 186 252 l 1,38,39
 117 409.406 117 409.406 117 745 c 0,20,21
EndSplineSet
Validated: 1
EndChar

StartChar: infinity
Encoding: 128 8734 127
GlifName: infinity
Width: 1234
LayerCount: 2
Fore
SplineSet
694 627 m 1,0,1
 751 491 751 491 796.5 441 c 0,2,3
 842 391 842 391 908 391 c 0,4,5
 974 391 974 391 1019.5 458 c 0,6,7
 1065 525 1065 525 1065 632.5 c 0,8,9
 1065 740 1065 740 1023 804 c 0,10,11
 981 868 981 868 913 868 c 0,12,13
 845 868 845 868 792.5 809.5 c 0,14,15
 740 751 740 751 694 627 c 1,0,1
537 635 m 1,16,17
 481 769 481 769 435 818.5 c 0,18,19
 389 868 389 868 323 868 c 0,20,21
 257 868 257 868 211.5 801.5 c 0,22,23
 166 735 166 735 166 627.5 c 0,24,25
 166 520 166 520 207.5 455.5 c 0,26,27
 249 391 249 391 316.5 391 c 0,28,29
 384 391 384 391 437 450 c 0,30,31
 490 509 490 509 537 635 c 1,16,17
616 764 m 1,32,33
 663 881 663 881 736.5 944.5 c 0,34,35
 810 1008 810 1008 901 1008 c 0,36,37
 1020 1008 1020 1008 1106 898.5 c 0,38,39
 1192 789 1192 789 1192 625.5 c 0,40,41
 1192 462 1192 462 1110.5 356 c 0,42,43
 1029 250 1029 250 903 250 c 0,44,45
 820 250 820 250 756 300 c 0,46,47
 692 350 692 350 614 481 c 1,48,49
 549 357 549 357 483 303.5 c 0,50,51
 417 250 417 250 332 250 c 0,52,53
 207 250 207 250 124 357 c 0,54,55
 41 464 41 464 41 633 c 0,56,57
 41 802 41 802 119.5 905 c 0,58,59
 198 1008 198 1008 330 1008 c 0,60,61
 424 1008 424 1008 492 950.5 c 0,62,63
 560 893 560 893 616 764 c 1,32,33
EndSplineSet
Validated: 1
EndChar

StartChar: plusminus
Encoding: 129 177 128
GlifName: plusminus
Width: 1234
LayerCount: 2
Fore
SplineSet
88 170 m 1,0,-1
 1145 170 l 1,1,-1
 1145 0 l 1,2,-1
 88 0 l 1,3,-1
 88 170 l 1,0,-1
700 1171 m 1,4,-1
 700 842 l 1,5,-1
 1145 842 l 1,6,-1
 1145 672 l 1,7,-1
 700 672 l 1,8,-1
 700 340 l 1,9,-1
 532 340 l 1,10,-1
 532 672 l 1,11,-1
 88 672 l 1,12,-1
 88 842 l 1,13,-1
 532 842 l 1,14,-1
 532 1171 l 1,15,-1
 700 1171 l 1,4,-1
EndSplineSet
Validated: 1
EndChar

StartChar: lessequal
Encoding: 130 8804 129
GlifName: lessequal
Width: 1234
LayerCount: 2
Fore
SplineSet
1143 438 m 1,0,-1
 1143 256 l 1,1,-1
 86 588 l 1,2,-1
 86 756 l 1,3,-1
 1143 1087 l 1,4,-1
 1143 903 l 1,5,-1
 342 672 l 1,6,-1
 1143 438 l 1,0,-1
1143 170 m 1,7,-1
 1143 0 l 1,8,-1
 86 0 l 1,9,-1
 86 170 l 1,10,-1
 1143 170 l 1,7,-1
EndSplineSet
Validated: 1
EndChar

StartChar: greaterequal
Encoding: 131 8805 130
GlifName: greaterequal
Width: 1234
LayerCount: 2
Fore
SplineSet
88 438 m 1,0,-1
 891 672 l 1,1,-1
 88 903 l 1,2,-1
 88 1087 l 1,3,-1
 1145 756 l 1,4,-1
 1145 588 l 1,5,-1
 88 256 l 1,6,-1
 88 438 l 1,0,-1
88 170 m 1,7,-1
 1145 170 l 1,8,-1
 1145 0 l 1,9,-1
 88 0 l 1,10,-1
 88 170 l 1,7,-1
EndSplineSet
Validated: 1
EndChar

StartChar: yen
Encoding: 132 165 131
GlifName: yen
Width: 1234
LayerCount: 2
Fore
SplineSet
37 1493 m 1,0,-1
 252 1493 l 1,1,-1
 616 834 l 1,2,-1
 979 1493 l 1,3,-1
 1196 1493 l 1,4,-1
 866 932 l 1,5,-1
 1118 932 l 1,6,-1
 1118 821 l 1,7,-1
 803 821 l 1,8,-1
 717 670 l 1,9,-1
 717 635 l 1,10,-1
 1118 635 l 1,11,-1
 1118 524 l 1,12,-1
 717 524 l 1,13,-1
 717 0 l 1,14,-1
 514 0 l 1,15,-1
 514 524 l 1,16,-1
 115 524 l 1,17,-1
 115 635 l 1,18,-1
 514 635 l 1,19,-1
 514 670 l 1,20,-1
 424 821 l 1,21,-1
 115 821 l 1,22,-1
 115 932 l 1,23,-1
 358 932 l 1,24,-1
 37 1493 l 1,0,-1
EndSplineSet
Validated: 1
EndChar

StartChar: partialdiff
Encoding: 133 8706 132
GlifName: partialdiff
Width: 1234
LayerCount: 2
Fore
SplineSet
872 946 m 0,0,1
 872 1206 872 1206 727 1206 c 0,2,3
 672 1206 672 1206 600 1148 c 0,4,5
 528 1090 528 1090 492 1090 c 0,6,7
 456 1090 456 1090 432 1112 c 0,8,9
 408 1134 408 1134 408 1165 c 0,10,11
 408 1227 408 1227 480 1276 c 0,12,13
 552 1325 552 1325 653 1325 c 0,14,15
 833 1325 833 1325 940 1170 c 0,16,17
 1047 1015 1047 1015 1047 752 c 0,18,19
 1047 417 1047 417 902.5 196 c 0,20,21
 758 -25 758 -25 545 -25 c 0,22,23
 393 -25 393 -25 291.5 83 c 0,24,25
 190 191 190 191 190 371.5 c 0,26,27
 190 552 190 552 300.5 680.5 c 0,28,29
 411 809 411 809 573 809 c 0,30,31
 674 809 674 809 739 763.5 c 0,32,33
 804 718 804 718 842 621 c 1,34,35
 872 795 872 795 872 946 c 0,0,1
793 494 m 0,36,37
 793 610 793 610 749.5 672.5 c 0,38,39
 706 735 706 735 627 735 c 0,40,41
 518 735 518 735 447.5 606 c 0,42,43
 377 477 377 477 377 270 c 0,44,45
 377 154 377 154 420 92.5 c 0,46,47
 463 31 463 31 543 31 c 0,48,49
 652 31 652 31 722.5 161 c 0,50,51
 793 291 793 291 793 494 c 0,36,37
EndSplineSet
Validated: 1
EndChar

StartChar: summation
Encoding: 134 8721 133
GlifName: summation
Width: 1234
LayerCount: 2
Fore
SplineSet
332 -299 m 1,0,-1
 1085 -299 l 1,1,-1
 1085 -436 l 1,2,-1
 143 -436 l 1,3,-1
 143 -344 l 1,4,-1
 692 575 l 1,5,-1
 143 1423 l 1,6,-1
 143 1518 l 1,7,-1
 1065 1518 l 1,8,-1
 1065 1378 l 1,9,-1
 332 1378 l 1,10,-1
 854 575 l 1,11,-1
 332 -299 l 1,0,-1
EndSplineSet
Validated: 1
EndChar

StartChar: product
Encoding: 135 8719 134
GlifName: product
Width: 1234
LayerCount: 2
Fore
SplineSet
152 -436 m 1,0,-1
 152 1518 l 1,1,-1
 1081 1518 l 1,2,-1
 1081 -436 l 1,3,-1
 926 -436 l 1,4,-1
 926 1386 l 1,5,-1
 307 1386 l 1,6,-1
 307 -436 l 1,7,-1
 152 -436 l 1,0,-1
EndSplineSet
Validated: 1
EndChar

StartChar: integral
Encoding: 136 8747 135
GlifName: integral
Width: 1234
LayerCount: 2
Fore
SplineSet
393 -262 m 0,0,1
 499 -262 499 -262 513 426 c 0,2,3
 515 534 515 534 516 591 c 0,4,5
 528 1106 528 1106 623 1328 c 0,6,7
 718 1550 718 1550 920 1550 c 0,8,9
 1000 1550 1000 1550 1050 1508 c 0,10,11
 1100 1466 1100 1466 1100 1406.5 c 0,12,13
 1100 1347 1100 1347 1068 1315.5 c 0,14,15
 1036 1284 1036 1284 987.5 1284 c 0,16,17
 893.9429 1284 893.9429 1284 871 1357 c 0,18,19
 865 1372 865 1372 860.5 1408 c 0,20,21
 856 1444 856 1444 840 1444 c 0,22,23
 733 1444 733 1444 719 825 c 0,24,25
 715 632 715 632 711 522 c 0,26,27
 694 43 694 43 599.5 -164 c 0,28,29
 505 -371 505 -371 309 -371 c 0,30,31
 230 -371 230 -371 179.5 -329.5 c 0,32,33
 129 -288 129 -288 129 -227.5 c 0,34,35
 129 -167 129 -167 163 -135.5 c 0,36,37
 197 -104 197 -104 244 -104 c 0,38,39
 323.4643 -104 323.4643 -104 354 -161 c 0,40,41
 363 -178 363 -178 368.5 -220 c 0,42,43
 374 -262 374 -262 393 -262 c 0,0,1
EndSplineSet
Validated: 1
EndChar

StartChar: ordfeminine
Encoding: 137 170 136
GlifName: ordfeminine
Width: 1234
VWidth: 0
LayerCount: 2
Fore
SplineSet
416 965 m 0,0,1
 416 817 416 817 591.5 817 c 0,2,3
 680 817 680 817 745.5 888.5 c 0,4,5
 811 960 811 960 811 1075 c 2,6,-1
 811 1104 l 1,7,-1
 684 1104 l 2,8,9
 540 1104 540 1104 478 1070 c 0,10,11
 416 1036 416 1036 416 965 c 0,0,1
332 1464 m 1,12,13
 468 1520 468 1520 598 1520 c 0,14,15
 782 1520 782 1520 868 1434 c 0,16,17
 954 1348 954 1348 954 1165 c 2,18,-1
 954 717 l 1,19,-1
 811 717 l 1,20,-1
 811 829 l 1,21,22
 712 698 712 698 549 698 c 0,23,24
 420 698 420 698 345 766 c 0,25,26
 270 834 270 834 270 956.5 c 0,27,28
 270 1079 270 1079 363.5 1149 c 0,29,30
 457 1219 457 1219 629 1219 c 2,31,-1
 811 1219 l 1,32,-1
 811 1223 l 2,33,34
 811 1405 811 1405 575 1405 c 0,35,36
 470.061 1405 470.061 1405 332 1337 c 1,37,-1
 332 1464 l 1,12,13
293 592 m 1,38,-1
 961 592 l 1,39,-1
 961 469 l 1,40,-1
 293 469 l 1,41,-1
 293 592 l 1,38,-1
EndSplineSet
Validated: 1
EndChar

StartChar: ordmasculine
Encoding: 138 186 137
GlifName: ordmasculine
Width: 1234
LayerCount: 2
Fore
SplineSet
776.5 1325 m 0,0,1
 719 1403 719 1403 616.5 1403 c 0,2,3
 514 1403 514 1403 456.5 1325 c 0,4,5
 399 1247 399 1247 399 1108 c 0,6,7
 399 969 399 969 456.5 892 c 0,8,9
 514 815 514 815 615.5 815 c 0,10,11
 717 815 717 815 775.5 893.5 c 0,12,13
 834 972 834 972 834 1109.5 c 0,14,15
 834 1247 834 1247 776.5 1325 c 0,0,1
345.5 1408 m 0,16,17
 447 1520 447 1520 616.5 1520 c 0,18,19
 786 1520 786 1520 887.5 1408 c 0,20,21
 989 1296 989 1296 989 1108.5 c 0,22,23
 989 921 989 921 888 809.5 c 0,24,25
 787 698 787 698 616.5 698 c 0,26,27
 446 698 446 698 345 809.5 c 0,28,29
 244 921 244 921 244 1108.5 c 0,30,31
 244 1296 244 1296 345.5 1408 c 0,16,17
276 592 m 1,32,-1
 952 592 l 1,33,-1
 952 469 l 1,34,-1
 276 469 l 1,35,-1
 276 592 l 1,32,-1
EndSplineSet
Validated: 1
EndChar

StartChar: ae
Encoding: 139 230 138
GlifName: ae
Width: 1234
LayerCount: 2
Fore
SplineSet
543 442 m 2,0,-1
 543 514 l 1,1,-1
 494 514 l 2,2,3
 325 514 325 514 265 469 c 0,4,5
 205 424 205 424 205 323 c 0,6,7
 205 125 205 125 377 125 c 0,8,9
 469 125 469 125 506 191.5 c 0,10,11
 543 258 543 258 543 442 c 2,0,-1
1036 657 m 1,12,-1
 1036 709 l 2,13,14
 1036 860 1036 860 997.5 926.5 c 0,15,16
 959 993 959 993 872 993 c 0,17,18
 785 993 785 993 747 925 c 0,19,20
 709 857 709 857 709 700 c 2,21,-1
 709 657 l 1,22,-1
 1036 657 l 1,12,-1
627 1020 m 1,23,24
 695.7049 1147 695.7049 1147 875.352 1147 c 0,25,26
 1055 1147 1055 1147 1127.5 1028.5 c 0,27,28
 1200 910 1200 910 1200 604 c 2,29,-1
 1200 514 l 1,30,-1
 709 514 l 1,31,32
 707 484 707 484 707 430 c 0,33,34
 707 269 707 269 757.5 197 c 0,35,36
 808 125 808 125 920 125 c 0,37,38
 1078 125 1078 125 1178 227 c 1,39,-1
 1178 55 l 1,40,41
 1065.317 -29 1065.317 -29 920 -29 c 0,42,43
 694.641 -29 694.641 -29 629 131 c 1,44,45
 551 -29 551 -29 360 -29 c 0,46,47
 204 -29 204 -29 122.5 57 c 0,48,49
 41 143 41 143 41 310.5 c 0,50,51
 41 478 41 478 141 567.5 c 0,52,53
 241 657 241 657 432 657 c 2,54,-1
 549 657 l 1,55,-1
 549 745 l 2,56,57
 549 865 549 865 499.5 929 c 0,58,59
 450 993 450 993 343.179 993 c 0,60,61
 236.358 993 236.358 993 106 911 c 1,62,-1
 106 1079 l 1,63,64
 255.6 1147 255.6 1147 375 1147 c 0,65,66
 553.578 1147 553.578 1147 627 1020 c 1,23,24
EndSplineSet
Validated: 1
EndChar

StartChar: oslash
Encoding: 140 248 139
GlifName: oslash
Width: 1234
LayerCount: 2
Fore
SplineSet
616 127 m 0,0,1
 901 127 901 127 901 559 c 0,2,3
 901 664 901 664 877 780 c 1,4,-1
 414 221 l 1,5,6
 486 127 486 127 616 127 c 0,0,1
817 897 m 1,7,8
 748.4583 991 748.4583 991 612.729 991 c 0,9,10
 477 991 477 991 402.5 884 c 0,11,12
 328 777 328 777 328 575 c 0,13,14
 328 482 328 482 356 340 c 1,15,-1
 817 897 l 1,7,8
973 121.5 m 0,16,17
 850 -29 850 -29 631.025 -29 c 0,18,19
 412.05 -29 412.05 -29 299 90 c 1,20,-1
 139 -96 l 1,21,-1
 47 -20 l 1,22,-1
 217 180 l 1,23,24
 137 325.641 137 325.641 137 559 c 0,25,26
 137 845 137 845 260 996 c 0,27,28
 383 1147 383 1147 599.036 1147 c 0,29,30
 815.072 1147 815.072 1147 934 1036 c 1,31,-1
 1081 1212 l 1,32,-1
 1174 1135 l 1,33,-1
 1010 940 l 1,34,35
 1096 804.857 1096 804.857 1096 538.429 c 0,36,37
 1096 272 1096 272 973 121.5 c 0,16,17
EndSplineSet
Validated: 1
EndChar

StartChar: questiondown
Encoding: 141 191 140
GlifName: questiondown
Width: 1234
VWidth: 0
LayerCount: 2
Fore
SplineSet
989 86 m 1,0,1
 734.253 -13.319 734.253 -13.319 558.374 -13.319 c 0,2,3
 398.253 -13.319 398.253 -13.319 303.5 69 c 0,4,5
 193 165 193 165 193 326 c 0,6,7
 193 402 193 402 226.5 467.5 c 0,8,9
 260 533 260 533 354 625 c 2,10,-1
 442 711 l 2,11,12
 509 775 509 775 528 817 c 0,13,14
 549 863.4211 549 863.4211 549 969 c 2,15,-1
 549 1092 l 1,16,-1
 739 1092 l 1,17,-1
 739 938 l 2,18,19
 739 840 739 840 708.5 771.5 c 0,20,21
 678 703 678 703 594 621 c 2,22,-1
 504 532 l 2,23,24
 442 473 442 473 418.5 429 c 0,25,26
 395 385 395 385 395 336 c 0,27,28
 395 247 395 247 460.5 192 c 0,29,30
 526 137 526 137 635 137 c 0,31,32
 791.559 137 791.559 137 989 274 c 1,33,-1
 989 86 l 1,0,1
745 1239 m 1,34,-1
 543 1239 l 1,35,-1
 543 1493 l 1,36,-1
 745 1493 l 1,37,-1
 745 1239 l 1,34,-1
EndSplineSet
Validated: 1
EndChar

StartChar: exclamdown
Encoding: 142 161 141
GlifName: exclamdown
Width: 1234
LayerCount: 2
Fore
SplineSet
516 1239 m 1,0,-1
 516 1493 l 1,1,-1
 719 1493 l 1,2,-1
 719 1239 l 1,3,-1
 516 1239 l 1,0,-1
516 0 m 1,4,-1
 516 655 l 1,5,-1
 537 1012 l 1,6,-1
 698 1012 l 1,7,-1
 719 655 l 1,8,-1
 719 0 l 1,9,-1
 516 0 l 1,4,-1
EndSplineSet
Validated: 1
EndChar

StartChar: logicalnot
Encoding: 143 172 142
GlifName: logicalnot
Width: 1234
LayerCount: 2
Fore
SplineSet
88 862 m 1,0,-1
 1145 862 l 1,1,-1
 1145 371 l 1,2,-1
 977 371 l 1,3,-1
 977 690 l 1,4,-1
 88 690 l 1,5,-1
 88 862 l 1,0,-1
EndSplineSet
Validated: 1
EndChar

StartChar: radical
Encoding: 144 8730 143
GlifName: radical
Width: 1234
LayerCount: 2
Fore
SplineSet
100 733 m 1,0,-1
 59 858 l 1,1,-1
 350 956 l 1,2,-1
 569 225 l 1,3,-1
 1036 1696 l 1,4,-1
 1184 1696 l 1,5,-1
 1184 1565 l 1,6,-1
 1137 1565 l 1,7,-1
 631 -39 l 1,8,-1
 504 -39 l 1,9,-1
 258 786 l 1,10,-1
 100 733 l 1,0,-1
EndSplineSet
Validated: 1
EndChar

StartChar: florin
Encoding: 145 402 144
GlifName: florin
Width: 1234
LayerCount: 2
Fore
SplineSet
1001 1556 m 0,0,1
 1098 1556 1098 1556 1200 1520 c 1,2,-1
 1200 1356 l 1,3,4
 1126.7143 1413 1126.7143 1413 1031.357 1413 c 0,5,6
 838.169 1413 838.169 1413 803 1159 c 2,7,-1
 758 848 l 1,8,-1
 1061 848 l 1,9,-1
 1061 705 l 1,10,-1
 733 705 l 1,11,-1
 633 70 l 2,12,13
 590 -196 590 -196 490.5 -311 c 0,14,15
 391 -426 391 -426 205 -426 c 0,16,17
 89.909 -426 89.909 -426 0 -383 c 1,18,-1
 0 -219 l 1,19,20
 101.161 -283 101.161 -283 197 -283 c 0,21,22
 388.172 -283 388.172 -283 440 18 c 2,23,-1
 557 705 l 1,24,-1
 305 705 l 1,25,-1
 305 848 l 1,26,-1
 580 848 l 1,27,-1
 629 1178 l 2,28,29
 655 1355 655 1355 754 1455.5 c 0,30,31
 853 1556 853 1556 1001 1556 c 0,0,1
EndSplineSet
Validated: 1
EndChar

StartChar: approxequal
Encoding: 146 8776 145
GlifName: approxequal
Width: 1234
LayerCount: 2
Fore
SplineSet
864 840 m 0,0,1
 1000.524 840 1000.524 840 1145 963 c 1,2,-1
 1145 788 l 1,3,4
 1000.085 674 1000.085 674 848 674 c 0,5,6
 758 674 758 674 645 725 c 0,7,8
 486.6 797 486.6 797 381 797 c 0,9,10
 228.297 797 228.297 797 88 674 c 1,11,-1
 88 848 l 1,12,13
 237.5 963 237.5 963 395 963 c 0,14,15
 517 963 517 963 655 894 c 0,16,17
 771 840 771 840 864 840 c 0,0,1
864 471 m 0,18,19
 998.516 471 998.516 471 1145 596 c 1,20,-1
 1145 420 l 1,21,22
 998.814 305 998.814 305 848 305 c 0,23,24
 758 305 758 305 645 356 c 2,25,-1
 612 371 l 2,26,27
 475.972 430 475.972 430 381 430 c 0,28,29
 230.308 430 230.308 430 88 305 c 1,30,-1
 88 479 l 1,31,32
 237.081 596 237.081 596 395 596 c 0,33,34
 491 596 491 596 621 541 c 1,35,-1
 622 541 l 1,36,-1
 655 526 l 2,37,38
 771 471 771 471 864 471 c 0,18,19
EndSplineSet
Validated: 1
EndChar

StartChar: guillemotleft
Encoding: 147 171 146
GlifName: guillemotleft
Width: 1234
LayerCount: 2
Fore
SplineSet
588 1059 m 1,0,-1
 588 868 l 1,1,-1
 287 600 l 1,2,-1
 588 332 l 1,3,-1
 588 141 l 1,4,-1
 119 559 l 1,5,-1
 119 641 l 1,6,-1
 588 1059 l 1,0,-1
1042 1059 m 1,7,-1
 1042 868 l 1,8,-1
 741 600 l 1,9,-1
 1042 332 l 1,10,-1
 1042 141 l 1,11,-1
 573 559 l 1,12,-1
 573 641 l 1,13,-1
 1042 1059 l 1,7,-1
EndSplineSet
Validated: 1
EndChar

StartChar: guillemotright
Encoding: 148 187 147
GlifName: guillemotright
Width: 1234
LayerCount: 2
Fore
SplineSet
647 1059 m 1,0,-1
 1116 641 l 1,1,-1
 1116 559 l 1,2,-1
 647 141 l 1,3,-1
 647 332 l 1,4,-1
 948 600 l 1,5,-1
 647 868 l 1,6,-1
 647 1059 l 1,0,-1
193 1059 m 1,7,-1
 662 641 l 1,8,-1
 662 559 l 1,9,-1
 193 141 l 1,10,-1
 193 332 l 1,11,-1
 494 600 l 1,12,-1
 193 868 l 1,13,-1
 193 1059 l 1,7,-1
EndSplineSet
Validated: 1
EndChar

StartChar: ellipsis
Encoding: 149 8230 148
GlifName: ellipsis
Width: 1234
LayerCount: 2
Fore
SplineSet
80 305 m 1,0,-1
 332 305 l 1,1,-1
 332 0 l 1,2,-1
 80 0 l 1,3,-1
 80 305 l 1,0,-1
899 305 m 1,4,-1
 1151 305 l 1,5,-1
 1151 0 l 1,6,-1
 899 0 l 1,7,-1
 899 305 l 1,4,-1
489 305 m 1,8,-1
 741 305 l 1,9,-1
 741 0 l 1,10,-1
 489 0 l 1,11,-1
 489 305 l 1,8,-1
EndSplineSet
Validated: 1
EndChar

StartChar: OE
Encoding: 150 338 149
GlifName: O_E_
Width: 1234
LayerCount: 2
Fore
SplineSet
1217 170 m 1,0,-1
 1217 0 l 1,1,-1
 612 0 l 2,2,3
 317 0 317 0 194.5 166.5 c 0,4,5
 72 333 72 333 72 747.5 c 0,6,7
 72 1162 72 1162 194 1327.5 c 0,8,9
 316 1493 316 1493 612 1493 c 2,10,-1
 1206 1493 l 1,11,-1
 1206 1323 l 1,12,-1
 848 1323 l 1,13,-1
 848 881 l 1,14,-1
 1176 881 l 1,15,-1
 1176 711 l 1,16,-1
 848 711 l 1,17,-1
 848 170 l 1,18,-1
 1217 170 l 1,0,-1
590 1323 m 2,19,20
 413 1323 413 1323 343.5 1208 c 0,21,22
 274 1093 274 1093 274 746 c 0,23,24
 274 399 274 399 343.5 284.5 c 0,25,26
 413 170 413 170 590 170 c 2,27,-1
 651 170 l 1,28,-1
 651 1323 l 1,29,-1
 590 1323 l 2,19,20
EndSplineSet
Validated: 1
EndChar

StartChar: oe
Encoding: 151 339 150
GlifName: oe
Width: 1234
LayerCount: 2
Fore
SplineSet
1047 657 m 1,0,-1
 1049 715 l 1,1,2
 1049 860 1049 860 1009 927.5 c 0,3,4
 969 995 969 995 882.5 995 c 0,5,6
 796 995 796 995 757.5 926.5 c 0,7,8
 719 858 719 858 719 700 c 2,9,-1
 719 657 l 1,10,-1
 1047 657 l 1,0,-1
230 206.5 m 0,11,12
 270 123 270 123 372.5 123 c 0,13,14
 475 123 475 123 516 207 c 0,15,16
 557 291 557 291 557 556 c 0,17,18
 557 821 557 821 517 908 c 0,19,20
 477 995 477 995 373.5 995 c 0,21,22
 270 995 270 995 230 911.5 c 0,23,24
 190 828 190 828 190 559 c 0,25,26
 190 290 190 290 230 206.5 c 0,11,12
637 1020 m 1,27,28
 712.7903 1147 712.7903 1147 889.395 1147 c 0,29,30
 1066 1147 1066 1147 1138 1028.5 c 0,31,32
 1210 910 1210 910 1210 604 c 2,33,-1
 1210 514 l 1,34,-1
 719 514 l 1,35,-1
 719 430 l 2,36,37
 719 267 719 267 768.5 195 c 0,38,39
 818 123 818 123 930 123 c 0,40,41
 1092.157 123 1092.157 123 1188 227 c 1,42,-1
 1188 55 l 1,43,44
 1072.744 -29 1072.744 -29 930 -29 c 0,45,46
 733.727 -29 733.727 -29 637 104 c 1,47,48
 535.294 -29 535.294 -29 359.647 -29 c 0,49,50
 184 -29 184 -29 99 109 c 0,51,52
 14 247 14 247 14 559 c 0,53,54
 14 871 14 871 99 1009 c 0,55,56
 184 1147 184 1147 364.585 1147 c 0,57,58
 545.17 1147 545.17 1147 637 1020 c 1,27,28
EndSplineSet
Validated: 1
EndChar

StartChar: endash
Encoding: 152 8211 151
GlifName: endash
Width: 1234
LayerCount: 2
Fore
SplineSet
0 633 m 1,0,-1
 1233 633 l 1,1,-1
 1233 492 l 1,2,-1
 0 492 l 1,3,-1
 0 633 l 1,0,-1
EndSplineSet
Validated: 1
EndChar

StartChar: emdash
Encoding: 153 8212 152
GlifName: emdash
Width: 1234
LayerCount: 2
Fore
SplineSet
0 633 m 1,0,-1
 1233 633 l 1,1,-1
 1233 492 l 1,2,-1
 0 492 l 1,3,-1
 0 633 l 1,0,-1
EndSplineSet
Validated: 1
EndChar

StartChar: quotedblleft
Encoding: 154 8220 153
GlifName: quotedblleft
Width: 1234
LayerCount: 2
Fore
SplineSet
924 967 m 1,0,-1
 672 967 l 1,1,-1
 672 1174 l 1,2,-1
 868 1556 l 1,3,-1
 1022 1556 l 1,4,-1
 924 1174 l 1,5,-1
 924 967 l 1,0,-1
465 967 m 1,6,-1
 211 967 l 1,7,-1
 211 1174 l 1,8,-1
 410 1556 l 1,9,-1
 563 1556 l 1,10,-1
 465 1174 l 1,11,-1
 465 967 l 1,6,-1
EndSplineSet
Validated: 1
EndChar

StartChar: quotedblright
Encoding: 155 8221 154
GlifName: quotedblright
Width: 1234
LayerCount: 2
Fore
SplineSet
768 1556 m 1,0,-1
 1020 1556 l 1,1,-1
 1020 1350 l 1,2,-1
 823 967 l 1,3,-1
 670 967 l 1,4,-1
 768 1350 l 1,5,-1
 768 1556 l 1,0,-1
309 1556 m 1,6,-1
 561 1556 l 1,7,-1
 561 1350 l 1,8,-1
 365 967 l 1,9,-1
 211 967 l 1,10,-1
 309 1350 l 1,11,-1
 309 1556 l 1,6,-1
EndSplineSet
Validated: 1
EndChar

StartChar: quoteleft
Encoding: 156 8216 155
GlifName: quoteleft
Width: 1234
LayerCount: 2
Fore
SplineSet
715 967 m 1,0,-1
 463 967 l 1,1,-1
 463 1174 l 1,2,-1
 659 1556 l 1,3,-1
 813 1556 l 1,4,-1
 715 1174 l 1,5,-1
 715 967 l 1,0,-1
EndSplineSet
Validated: 1
EndChar

StartChar: quoteright
Encoding: 157 8217 156
GlifName: quoteright
Width: 1234
LayerCount: 2
Fore
SplineSet
561 1556 m 1,0,-1
 813 1556 l 1,1,-1
 813 1350 l 1,2,-1
 616 967 l 1,3,-1
 463 967 l 1,4,-1
 561 1350 l 1,5,-1
 561 1556 l 1,0,-1
EndSplineSet
Validated: 1
EndChar

StartChar: divide
Encoding: 158 247 157
GlifName: divide
Width: 1234
LayerCount: 2
Fore
SplineSet
494 395 m 1,0,-1
 739 395 l 1,1,-1
 739 150 l 1,2,-1
 494 150 l 1,3,-1
 494 395 l 1,0,-1
494 1135 m 1,4,-1
 739 1135 l 1,5,-1
 739 889 l 1,6,-1
 494 889 l 1,7,-1
 494 1135 l 1,4,-1
88 727 m 1,8,-1
 1145 727 l 1,9,-1
 1145 557 l 1,10,-1
 88 557 l 1,11,-1
 88 727 l 1,8,-1
EndSplineSet
Validated: 1
EndChar

StartChar: lozenge
Encoding: 159 9674 158
GlifName: lozenge
Width: 1234
LayerCount: 2
Fore
SplineSet
616 1409 m 1,0,-1
 231 592 l 1,1,-1
 616 -233 l 1,2,-1
 1001 592 l 1,3,-1
 616 1409 l 1,0,-1
616 1653 m 1,4,-1
 1116 592 l 1,5,-1
 616 -477 l 1,6,-1
 117 592 l 1,7,-1
 616 1653 l 1,4,-1
EndSplineSet
Validated: 1
EndChar

StartChar: fraction
Encoding: 160 8725 159
GlifName: fraction
Width: 1234
LayerCount: 2
Fore
SplineSet
889 1493 m 1,0,-1
 1079 1493 l 1,1,-1
 293 -190 l 1,2,-1
 102 -190 l 1,3,-1
 889 1493 l 1,0,-1
EndSplineSet
Validated: 1
EndChar

StartChar: currency
Encoding: 161 164 160
GlifName: currency
Width: 1234
LayerCount: 2
Fore
SplineSet
806 489 m 0,0,1
 868 552 868 552 868 642.5 c 0,2,3
 868 733 868 733 806 794.5 c 0,4,5
 744 856 744 856 653.5 856 c 0,6,7
 563 856 563 856 500.5 794.5 c 0,8,9
 438 733 438 733 438 642 c 0,10,11
 438 551 438 551 500.5 488.5 c 0,12,13
 563 426 563 426 653.5 426 c 0,14,15
 744 426 744 426 806 489 c 0,0,1
465 922 m 1,16,17
 555.5161 983 555.5161 983 649.608 983 c 0,18,19
 743.6999 983 743.6999 983 844 924 c 1,20,-1
 1010 1090 l 1,21,-1
 1100 997 l 1,22,-1
 934 831 l 1,23,24
 993 734.6333 993 734.6333 993 639.091 c 0,25,26
 993 543.5487 993 543.5487 932 455 c 1,27,-1
 1100 289 l 1,28,-1
 1006 195 l 1,29,-1
 840 362 l 1,30,31
 749.4839 301 749.4839 301 654.099 301 c 0,32,33
 558.7141 301 558.7141 301 461 358 c 1,34,-1
 297 195 l 1,35,-1
 205 285 l 1,36,-1
 371 451 l 1,37,38
 311 549.7097 311 549.7097 311 644.355 c 0,39,40
 311 739.0002 311 739.0002 373 829 c 1,41,-1
 205 995 l 1,42,-1
 299 1090 l 1,43,-1
 465 922 l 1,16,17
EndSplineSet
Validated: 1
EndChar

StartChar: guilsinglleft
Encoding: 162 8249 161
GlifName: guilsinglleft
Width: 1234
LayerCount: 2
Fore
SplineSet
815 1059 m 1,0,-1
 815 868 l 1,1,-1
 514 600 l 1,2,-1
 815 332 l 1,3,-1
 815 141 l 1,4,-1
 346 559 l 1,5,-1
 346 641 l 1,6,-1
 815 1059 l 1,0,-1
EndSplineSet
Validated: 1
EndChar

StartChar: guilsinglright
Encoding: 163 8250 162
GlifName: guilsinglright
Width: 1234
LayerCount: 2
Fore
SplineSet
420 1059 m 1,0,-1
 889 641 l 1,1,-1
 889 559 l 1,2,-1
 420 141 l 1,3,-1
 420 332 l 1,4,-1
 721 600 l 1,5,-1
 420 868 l 1,6,-1
 420 1059 l 1,0,-1
EndSplineSet
Validated: 1
EndChar

StartChar: fi
Encoding: 164 64257 163
GlifName: fi
Width: 1234
LayerCount: 2
Fore
SplineSet
895 1554 m 1,0,-1
 1079 1554 l 1,1,-1
 1079 1321 l 1,2,-1
 895 1321 l 1,3,-1
 895 1554 l 1,0,-1
776 1556 m 1,4,-1
 776 1403 l 1,5,-1
 596 1403 l 2,6,7
 497 1403 497 1403 458.5 1362.5 c 0,8,9
 420 1322 420 1322 420 1219 c 2,10,-1
 420 1118 l 1,11,-1
 1079 1118 l 1,12,-1
 1079 0 l 1,13,-1
 895 0 l 1,14,-1
 895 977 l 1,15,-1
 420 977 l 1,16,-1
 420 0 l 1,17,-1
 236 0 l 1,18,-1
 236 977 l 1,19,-1
 35 977 l 1,20,-1
 35 1120 l 1,21,-1
 236 1120 l 1,22,-1
 236 1198 l 2,23,24
 236 1382 236 1382 320.5 1469 c 0,25,26
 405 1556 405 1556 584 1556 c 2,27,-1
 776 1556 l 1,4,-1
EndSplineSet
Validated: 1
EndChar

StartChar: fl
Encoding: 165 64258 164
GlifName: fl
Width: 1234
LayerCount: 2
Fore
SplineSet
1079 1556 m 1,0,-1
 1079 0 l 1,1,-1
 895 0 l 1,2,-1
 895 1403 l 1,3,-1
 596 1403 l 2,4,5
 497 1403 497 1403 458.5 1362.5 c 0,6,7
 420 1322 420 1322 420 1219 c 2,8,-1
 420 1118 l 1,9,-1
 713 1118 l 1,10,-1
 713 977 l 1,11,-1
 420 977 l 1,12,-1
 420 0 l 1,13,-1
 236 0 l 1,14,-1
 236 977 l 1,15,-1
 35 977 l 1,16,-1
 35 1120 l 1,17,-1
 236 1120 l 1,18,-1
 236 1198 l 2,19,20
 236 1382 236 1382 320.5 1469 c 0,21,22
 405 1556 405 1556 584 1556 c 2,23,-1
 1079 1556 l 1,0,-1
EndSplineSet
Validated: 1
EndChar

StartChar: daggerdbl
Encoding: 166 8225 165
GlifName: daggerdbl
Width: 1234
LayerCount: 2
Fore
SplineSet
1071 223 m 1,0,-1
 705 223 l 1,1,-1
 705 -197 l 1,2,-1
 528 -197 l 1,3,-1
 528 223 l 1,4,-1
 162 223 l 1,5,-1
 162 377 l 1,6,-1
 528 377 l 1,7,-1
 528 920 l 1,8,-1
 162 920 l 1,9,-1
 162 1073 l 1,10,-1
 528 1073 l 1,11,-1
 528 1493 l 1,12,-1
 705 1493 l 1,13,-1
 705 1073 l 1,14,-1
 1071 1073 l 1,15,-1
 1071 920 l 1,16,-1
 705 920 l 1,17,-1
 705 377 l 1,18,-1
 1071 377 l 1,19,-1
 1071 223 l 1,0,-1
EndSplineSet
Validated: 1
EndChar

StartChar: periodcentered
Encoding: 167 183 166
GlifName: periodcentered
Width: 1234
LayerCount: 2
Fore
SplineSet
489 864 m 1,0,-1
 741 864 l 1,1,-1
 741 559 l 1,2,-1
 489 559 l 1,3,-1
 489 864 l 1,0,-1
EndSplineSet
Validated: 1
EndChar

StartChar: quotesinglbase
Encoding: 168 8218 167
GlifName: quotesinglbase
Width: 1234
LayerCount: 2
Fore
SplineSet
502 303 m 1,0,-1
 754 303 l 1,1,-1
 754 96 l 1,2,-1
 557 -287 l 1,3,-1
 403 -287 l 1,4,-1
 502 96 l 1,5,-1
 502 303 l 1,0,-1
EndSplineSet
Validated: 1
EndChar

StartChar: quotedblbase
Encoding: 169 8222 168
GlifName: quotedblbase
Width: 1234
LayerCount: 2
Fore
SplineSet
768 303 m 1,0,-1
 1020 303 l 1,1,-1
 1020 96 l 1,2,-1
 823 -287 l 1,3,-1
 670 -287 l 1,4,-1
 768 96 l 1,5,-1
 768 303 l 1,0,-1
309 303 m 1,6,-1
 561 303 l 1,7,-1
 561 96 l 1,8,-1
 365 -287 l 1,9,-1
 211 -287 l 1,10,-1
 309 96 l 1,11,-1
 309 303 l 1,6,-1
EndSplineSet
Validated: 1
EndChar

StartChar: perthousand
Encoding: 170 8240 169
GlifName: perthousand
Width: 1234
LayerCount: 2
Fore
SplineSet
72 567 m 1,0,-1
 35 664 l 1,1,-1
 1079 1079 l 1,2,-1
 1118 983 l 1,3,-1
 72 567 l 1,0,-1
213.5 406.5 m 0,4,5
 166 358 166 358 166 288 c 0,6,7
 166 218 166 218 213.5 169.5 c 0,8,9
 261 121 261 121 329.5 121 c 0,10,11
 398 121 398 121 447 170.5 c 0,12,13
 496 220 496 220 496 288 c 0,14,15
 496 356 496 356 446.5 405.5 c 0,16,17
 397 455 397 455 329 455 c 0,18,19
 261 455 261 455 213.5 406.5 c 0,4,5
127 83 m 0,20,21
 45 166 45 166 45 288 c 0,22,23
 45 410 45 410 127.5 492.5 c 0,24,25
 210 575 210 575 330 575 c 0,26,27
 450 575 450 575 533 492 c 0,28,29
 616 409 616 409 616 288.5 c 0,30,31
 616 168 616 168 532.5 84 c 0,32,33
 449 0 449 0 329 0 c 0,34,35
 209 0 209 0 127 83 c 0,20,21
121 1145 m 0,36,37
 121 1076 121 1076 169.5 1027.5 c 0,38,39
 218 979 218 979 287 979 c 0,40,41
 356 979 356 979 404.5 1027.5 c 0,42,43
 453 1076 453 1076 453 1144 c 0,44,45
 453 1212 453 1212 403.5 1261.5 c 0,46,47
 354 1311 354 1311 286 1311 c 0,48,49
 218 1311 218 1311 169.5 1262.5 c 0,50,51
 121 1214 121 1214 121 1145 c 0,36,37
83 939.5 m 0,52,53
 0 1023 0 1023 0 1144 c 0,54,55
 0 1265 0 1265 83 1348.5 c 0,56,57
 166 1432 166 1432 286.5 1432 c 0,58,59
 407 1432 407 1432 490 1348.5 c 0,60,61
 573 1265 573 1265 573 1144.5 c 0,62,63
 573 1024 573 1024 490 940 c 0,64,65
 407 856 407 856 286.5 856 c 0,66,67
 166 856 166 856 83 939.5 c 0,52,53
828.5 406.5 m 0,68,69
 780 358 780 358 780 288 c 0,70,71
 780 218 780 218 828.5 169.5 c 0,72,73
 877 121 877 121 946.5 121 c 0,74,75
 1016 121 1016 121 1064 169.5 c 0,76,77
 1112 218 1112 218 1112 287 c 0,78,79
 1112 356 1112 356 1063 405.5 c 0,80,81
 1014 455 1014 455 945.5 455 c 0,82,83
 877 455 877 455 828.5 406.5 c 0,68,69
742 83.5 m 0,84,85
 659 167 659 167 659 288 c 0,86,87
 659 409 659 409 742 492 c 0,88,89
 825 575 825 575 945.5 575 c 0,90,91
 1066 575 1066 575 1149.5 492 c 0,92,93
 1233 409 1233 409 1233 288.5 c 0,94,95
 1233 168 1233 168 1149.5 84 c 0,96,97
 1066 0 1066 0 945.5 0 c 0,98,99
 825 0 825 0 742 83.5 c 0,84,85
EndSplineSet
Validated: 1
EndChar

StartChar: circumflex
Encoding: 171 710 170
GlifName: circumflex
Width: 1234
LayerCount: 2
Fore
SplineSet
543 1638 m 1,0,-1
 690 1638 l 1,1,-1
 936 1262 l 1,2,-1
 797 1262 l 1,3,-1
 616 1507 l 1,4,-1
 436 1262 l 1,5,-1
 297 1262 l 1,6,-1
 543 1638 l 1,0,-1
EndSplineSet
Validated: 1
EndChar

StartChar: tilde
Encoding: 172 732 171
GlifName: tilde
Width: 1234
LayerCount: 2
Fore
SplineSet
487 1464 m 0,0,1
 414.8272 1464 414.8272 1464 411 1309 c 1,2,-1
 287 1309 l 1,3,4
 288 1443 288 1443 339 1517 c 0,5,6
 390 1591 390 1591 471.303 1591 c 0,7,8
 552.606 1591 552.606 1591 621 1530 c 2,9,-1
 678 1475 l 2,10,11
 718.95 1436 718.95 1436 751.475 1436 c 0,12,13
 819.0864 1436 819.0864 1436 821 1591 c 1,14,-1
 946 1591 l 1,15,16
 945 1457 945 1457 894 1383 c 0,17,18
 843 1309 843 1309 761.697 1309 c 0,19,20
 680.394 1309 680.394 1309 612 1370 c 2,21,-1
 555 1425 l 2,22,23
 514.05 1464 514.05 1464 487 1464 c 0,0,1
EndSplineSet
Validated: 1
EndChar

StartChar: macron
Encoding: 173 175 172
GlifName: macron
Width: 1234
LayerCount: 2
Fore
SplineSet
317 1526 m 1,0,-1
 915 1526 l 1,1,-1
 915 1378 l 1,2,-1
 317 1378 l 1,3,-1
 317 1526 l 1,0,-1
EndSplineSet
Validated: 1
EndChar

StartChar: breve
Encoding: 174 728 173
GlifName: breve
Width: 1234
VWidth: 0
LayerCount: 2
Fore
SplineSet
930 1608 m 1,0,1
 908 1321 908 1321 616 1321 c 0,2,3
 325.077 1321 325.077 1321 303 1608 c 1,4,-1
 422 1608 l 1,5,6
 443.7105 1458 443.7105 1458 613.539 1458 c 0,7,8
 783.368 1458 783.368 1458 811 1608 c 1,9,-1
 930 1608 l 1,0,1
EndSplineSet
Validated: 1
EndChar

StartChar: dotaccent
Encoding: 175 729 174
GlifName: dotaccent
Width: 1234
LayerCount: 2
Fore
SplineSet
514 1552 m 1,0,-1
 719 1552 l 1,1,-1
 719 1348 l 1,2,-1
 514 1348 l 1,3,-1
 514 1552 l 1,0,-1
EndSplineSet
Validated: 1
EndChar

StartChar: ring
Encoding: 176 730 175
GlifName: ring
Width: 1234
LayerCount: 2
Fore
SplineSet
891 1524 m 0,0,1
 891 1409 891 1409 811.5 1329 c 0,2,3
 732 1249 732 1249 616.5 1249 c 0,4,5
 501 1249 501 1249 421.5 1329 c 0,6,7
 342 1409 342 1409 342 1524 c 0,8,9
 342 1639 342 1639 421.5 1718.5 c 0,10,11
 501 1798 501 1798 616.5 1798 c 0,12,13
 732 1798 732 1798 811.5 1718.5 c 0,14,15
 891 1639 891 1639 891 1524 c 0,0,1
724 1416 m 0,16,17
 768 1460 768 1460 768 1523.5 c 0,18,19
 768 1587 768 1587 724 1631 c 0,20,21
 680 1675 680 1675 616 1675 c 0,22,23
 552 1675 552 1675 508.5 1631.5 c 0,24,25
 465 1588 465 1588 465 1523.5 c 0,26,27
 465 1459 465 1459 508.5 1415.5 c 0,28,29
 552 1372 552 1372 616 1372 c 0,30,31
 680 1372 680 1372 724 1416 c 0,16,17
EndSplineSet
Validated: 1
EndChar

StartChar: cedilla
Encoding: 177 184 176
GlifName: cedilla
Width: 1234
LayerCount: 2
Fore
SplineSet
670 -178 m 0,0,1
 670 -122 670 -122 582 0 c 1,2,-1
 700 0 l 1,3,4
 809 -120.679 809 -120.679 809 -215 c 0,5,6
 809 -395 809 -395 571 -395 c 0,7,8
 483 -395 483 -395 395 -371 c 1,9,-1
 395 -240 l 1,10,11
 459 -272 459 -272 551 -272 c 0,12,13
 670 -272 670 -272 670 -178 c 0,0,1
EndSplineSet
Validated: 1
EndChar

StartChar: hungarumlaut
Encoding: 178 733 177
GlifName: hungarumlaut
Width: 1234
LayerCount: 2
Fore
SplineSet
535 1638 m 1,0,-1
 705 1638 l 1,1,-1
 481 1262 l 1,2,-1
 344 1262 l 1,3,-1
 535 1638 l 1,0,-1
868 1638 m 1,4,-1
 1047 1638 l 1,5,-1
 799 1262 l 1,6,-1
 664 1262 l 1,7,-1
 868 1638 l 1,4,-1
EndSplineSet
Validated: 1
EndChar

StartChar: ogonek
Encoding: 179 731 178
GlifName: ogonek
Width: 1234
LayerCount: 2
Fore
SplineSet
477.5 -351.5 m 0,0,1
 420 -308 420 -308 420 -214.873 c 0,2,3
 420 -121.7457 420 -121.7457 528 0 c 1,4,-1
 647 0 l 1,5,6
 559 -119.289 559 -119.289 559 -180 c 0,7,8
 559 -272 559 -272 668 -272 c 0,9,10
 731 -272 731 -272 793 -242 c 1,11,-1
 793 -375 l 1,12,13
 717 -395 717 -395 657 -395 c 0,14,15
 535 -395 535 -395 477.5 -351.5 c 0,0,1
EndSplineSet
Validated: 1
EndChar

StartChar: caron
Encoding: 180 711 179
GlifName: caron
Width: 1234
LayerCount: 2
Fore
SplineSet
543 1262 m 1,0,-1
 297 1638 l 1,1,-1
 436 1638 l 1,2,-1
 616 1393 l 1,3,-1
 797 1638 l 1,4,-1
 936 1638 l 1,5,-1
 690 1262 l 1,6,-1
 543 1262 l 1,0,-1
EndSplineSet
Validated: 1
EndChar

StartChar: Lslash
Encoding: 181 321 180
GlifName: L_slash
Width: 1234
LayerCount: 2
Fore
SplineSet
215 1493 m 1,0,-1
 418 1493 l 1,1,-1
 418 877 l 1,2,-1
 733 1096 l 1,3,-1
 811 985 l 1,4,-1
 418 711 l 1,5,-1
 418 170 l 1,6,-1
 1139 170 l 1,7,-1
 1139 0 l 1,8,-1
 215 0 l 1,9,-1
 215 571 l 1,10,-1
 70 465 l 1,11,-1
 -10 575 l 1,12,-1
 215 733 l 1,13,-1
 215 1493 l 1,0,-1
EndSplineSet
Validated: 1
EndChar

StartChar: lslash
Encoding: 182 322 181
GlifName: lslash
Width: 1234
LayerCount: 2
Fore
SplineSet
639 406 m 2,0,1
 639 282 639 282 684.5 219 c 0,2,3
 730 156 730 156 819 156 c 2,4,-1
 1034 156 l 1,5,-1
 1034 0 l 1,6,-1
 801 0 l 2,7,8
 636 0 636 0 545.5 106 c 0,9,10
 455 212 455 212 455 406 c 2,11,-1
 455 698 l 1,12,-1
 156 489 l 1,13,-1
 76 600 l 1,14,-1
 455 864 l 1,15,-1
 455 1423 l 1,16,-1
 160 1423 l 1,17,-1
 160 1567 l 1,18,-1
 639 1567 l 1,19,-1
 639 989 l 1,20,-1
 954 1208 l 1,21,-1
 1034 1098 l 1,22,-1
 639 823 l 1,23,-1
 639 406 l 2,0,1
EndSplineSet
Validated: 1
EndChar

StartChar: brokenbar
Encoding: 183 166 182
GlifName: brokenbar
Width: 1234
LayerCount: 2
Fore
SplineSet
702 1432 m 1,0,-1
 702 674 l 1,1,-1
 530 674 l 1,2,-1
 530 1432 l 1,3,-1
 702 1432 l 1,0,-1
702 408 m 1,4,-1
 702 -350 l 1,5,-1
 530 -350 l 1,6,-1
 530 408 l 1,7,-1
 702 408 l 1,4,-1
EndSplineSet
Validated: 1
EndChar

StartChar: Eth
Encoding: 184 208 183
GlifName: E_th
Width: 1234
LayerCount: 2
Fore
SplineSet
436 1493 m 2,0,1
 778 1493 778 1493 940 1311 c 0,2,3
 1102 1129 1102 1129 1102 746 c 0,4,5
 1102 363 1102 363 939.5 181.5 c 0,6,7
 777 0 777 0 436 0 c 2,8,-1
 133 0 l 1,9,-1
 133 709 l 1,10,-1
 8 709 l 1,11,-1
 8 858 l 1,12,-1
 133 858 l 1,13,-1
 133 1493 l 1,14,-1
 436 1493 l 2,0,1
436 166 m 2,15,16
 691 166 691 166 792 291.5 c 0,17,18
 893 417 893 417 893 746.5 c 0,19,20
 893 1076 893 1076 792.5 1201.5 c 0,21,22
 692 1327 692 1327 436 1327 c 2,23,-1
 340 1327 l 1,24,-1
 340 858 l 1,25,-1
 604 858 l 1,26,-1
 604 709 l 1,27,-1
 340 709 l 1,28,-1
 340 166 l 1,29,-1
 436 166 l 2,15,16
EndSplineSet
Validated: 1
EndChar

StartChar: eth
Encoding: 185 240 184
GlifName: eth
Width: 1234
LayerCount: 2
Fore
SplineSet
696 1092 m 1,0,1
 635.6279 1174.3256 635.6279 1174.3256 553 1270 c 1,2,-1
 274 1178 l 1,3,-1
 244 1276 l 1,4,-1
 481 1356 l 1,5,-1
 299 1556 l 1,6,-1
 518 1556 l 1,7,-1
 645 1411 l 1,8,-1
 934 1505 l 1,9,-1
 967 1407 l 1,10,-1
 717 1327 l 1,11,12
 914 1115 914 1115 1005 925 c 0,13,14
 1096 735 1096 735 1096 535 c 0,15,16
 1096 267 1096 267 970.5 119 c 0,17,18
 845 -29 845 -29 616.5 -29 c 0,19,20
 388 -29 388 -29 262.5 119 c 0,21,22
 137 267 137 267 137 533.5 c 0,23,24
 137 800 137 800 262.5 948 c 0,25,26
 388 1096 388 1096 612 1096 c 0,27,28
 666 1096 666 1096 696 1092 c 1,0,1
793 918 m 1,29,30
 723 944 723 944 631 944 c 0,31,32
 485 944 485 944 408.5 839 c 0,33,34
 332 734 332 734 332 536.5 c 0,35,36
 332 339 332 339 406 233 c 0,37,38
 480 127 480 127 616.5 127 c 0,39,40
 753 127 753 127 827 233 c 0,41,42
 901 339 901 339 901 535 c 0,43,44
 901 645 901 645 872 746.5 c 0,45,46
 843 848 843 848 793 918 c 1,29,30
EndSplineSet
Validated: 1
EndChar

StartChar: Thorn
Encoding: 186 222 185
GlifName: T_horn
Width: 1234
LayerCount: 2
Fore
SplineSet
637 532 m 2,0,1
 952 532 952 532 952 794.5 c 0,2,3
 952 1057 952 1057 637 1057 c 2,4,-1
 403 1057 l 1,5,-1
 403 532 l 1,6,-1
 637 532 l 2,0,1
201 1493 m 1,7,-1
 403 1493 l 1,8,-1
 403 1223 l 1,9,-1
 657 1223 l 2,10,11
 917 1223 917 1223 1041 1118 c 0,12,13
 1165 1013 1165 1013 1165 794.5 c 0,14,15
 1165 576 1165 576 1041 471.5 c 0,16,17
 917 367 917 367 657 367 c 2,18,-1
 403 367 l 1,19,-1
 403 0 l 1,20,-1
 201 0 l 1,21,-1
 201 1493 l 1,7,-1
EndSplineSet
Validated: 1
EndChar

StartChar: thorn
Encoding: 187 254 186
GlifName: thorn
Width: 1234
LayerCount: 2
Fore
SplineSet
992 126.5 m 0,0,1
 876 -29 876 -29 670.56 -29 c 0,2,3
 465.12 -29 465.12 -29 375 141 c 1,4,-1
 375 -426 l 1,5,-1
 190 -426 l 1,6,-1
 190 1567 l 1,7,-1
 375 1567 l 1,8,-1
 375 977 l 1,9,10
 469.2169 1147 469.2169 1147 673.108 1147 c 0,11,12
 877 1147 877 1147 992.5 990 c 0,13,14
 1108 833 1108 833 1108 557.5 c 0,15,16
 1108 282 1108 282 992 126.5 c 0,0,1
647 127 m 0,17,18
 915 127 915 127 915 559 c 0,19,20
 915 991 915 991 647 991 c 0,21,22
 513 991 513 991 444 881.5 c 0,23,24
 375 772 375 772 375 559.5 c 0,25,26
 375 347 375 347 444 237 c 0,27,28
 513 127 513 127 647 127 c 0,17,18
EndSplineSet
Validated: 1
EndChar

StartChar: minus
Encoding: 188 8722 187
GlifName: minus
Width: 1234
LayerCount: 2
Fore
SplineSet
88 727 m 1,0,-1
 1145 727 l 1,1,-1
 1145 557 l 1,2,-1
 88 557 l 1,3,-1
 88 727 l 1,0,-1
EndSplineSet
Validated: 1
EndChar

StartChar: multiply
Encoding: 189 215 188
GlifName: multiply
Width: 1234
LayerCount: 2
Fore
SplineSet
150 293 m 1,0,-1
 500 641 l 1,1,-1
 150 991 l 1,2,-1
 266 1108 l 1,3,-1
 616 758 l 1,4,-1
 967 1108 l 1,5,-1
 1083 991 l 1,6,-1
 733 641 l 1,7,-1
 1081 293 l 1,8,-1
 965 174 l 1,9,-1
 616 524 l 1,10,-1
 268 174 l 1,11,-1
 150 293 l 1,0,-1
EndSplineSet
Validated: 1
EndChar

StartChar: sfthyphen
Encoding: 190 173 189
GlifName: sfthyphen
Width: 1234
LayerCount: 2
Fore
SplineSet
356 643 m 1,0,-1
 877 643 l 1,1,-1
 877 479 l 1,2,-1
 356 479 l 1,3,-1
 356 643 l 1,0,-1
EndSplineSet
Validated: 1
EndChar

StartChar: periodcentered
Encoding: 191 8729 190
GlifName: periodcentered000000000000001
Width: 1234
LayerCount: 2
Fore
SplineSet
489 864 m 1,0,-1
 741 864 l 1,1,-1
 741 559 l 1,2,-1
 489 559 l 1,3,-1
 489 864 l 1,0,-1
EndSplineSet
Validated: 1
EndChar

StartChar: Euro
Encoding: 192 8364 191
GlifName: E_uro
Width: 1234
LayerCount: 2
Fore
SplineSet
211 948 m 1,0,1
 259 1231 259 1231 396 1375.5 c 0,2,3
 533 1520 533 1520 756 1520 c 0,4,5
 840 1520 840 1520 913.5 1500 c 0,6,7
 987 1480 987 1480 1061 1438 c 1,8,-1
 1061 1231 l 1,9,10
 995 1292 995 1292 915.5 1326 c 0,11,12
 836 1360 836 1360 758 1360 c 0,13,14
 612 1360 612 1360 525 1256 c 0,15,16
 438 1152 438 1152 414 948 c 1,17,-1
 895 948 l 1,18,-1
 846 840 l 1,19,-1
 404 840 l 1,20,21
 402 820 402 820 401.5 797.5 c 0,22,23
 401 775 401 775 401 729 c 0,24,25
 401 714 401 714 401.5 695 c 0,26,27
 402 676 402 676 403 653 c 1,28,-1
 764 653 l 1,29,-1
 715 543 l 1,30,-1
 414 543 l 1,31,32
 437 340 437 340 524 235.5 c 0,33,34
 611 131 611 131 758 131 c 0,35,36
 837 131 837 131 915.5 164.5 c 0,37,38
 994 198 994 198 1061 260 c 1,39,-1
 1061 53 l 1,40,41
 989 11 989 11 915 -9 c 0,42,43
 841 -29 841 -29 756 -29 c 0,44,45
 530 -29 530 -29 392.5 115 c 0,46,47
 255 259 255 259 211 543 c 1,48,-1
 37 543 l 1,49,-1
 86 653 l 1,50,-1
 203 653 l 1,51,52
 202 665 202 665 201 685 c 0,53,54
 199 730 199 730 199 745 c 0,55,56
 199 763 199 763 201 810 c 0,57,58
 202 829 202 829 203 840 c 1,59,-1
 37 840 l 1,60,-1
 86 948 l 1,61,-1
 211 948 l 1,0,1
EndSplineSet
Validated: 1
EndChar

StartChar: uni20DD
Encoding: 193 8413 192
GlifName: uni20D_D_
Width: 0
VWidth: 0
Flags: W
LayerCount: 2
Fore
SplineSet
5 600 m 0,0,1
 5 685 5 685 27 763 c 128,-1,2
 49 841 49 841 89 909 c 0,3,4
 128 975 128 975 185 1033 c 0,5,6
 244 1094 244 1094 309 1130 c 0,7,8
 378 1169 378 1169 456 1191 c 128,-1,9
 534 1213 534 1213 618 1213 c 0,10,11
 703 1213 703 1213 781 1191 c 0,12,13
 856 1170 856 1170 927 1129 c 0,14,15
 995 1090 995 1090 1051 1034 c 0,16,17
 1110 975 1110 975 1148 909 c 0,18,19
 1187 841 1187 841 1209 763 c 128,-1,20
 1231 685 1231 685 1231 600 c 0,21,22
 1231 517 1231 517 1209 438 c 0,23,24
 1188 362 1188 362 1147 291 c 0,25,26
 1107 221 1107 221 1052 167 c 0,27,28
 995 111 995 111 927 71 c 128,-1,29
 859 31 859 31 781 9 c 128,-1,30
 703 -13 703 -13 618 -13 c 0,31,32
 534 -13 534 -13 456 9 c 0,33,34
 380 30 380 30 310 71 c 0,35,36
 241 111 241 111 185 167 c 128,-1,37
 129 223 129 223 89 291 c 128,-1,38
 49 359 49 359 27 437.5 c 128,-1,39
 5 516 5 516 5 600 c 0,0,1
71 600 m 0,40,41
 71 529 71 529 91 455 c 0,42,43
 109 388 109 388 146 324 c 0,44,45
 181 263 181 263 231 213 c 0,46,47
 283 161 283 161 342 127 c 0,48,49
 406 90 406 90 473 72 c 0,50,51
 543 53 543 53 618 53 c 0,52,53
 698 53 698 53 764 72 c 0,54,55
 829 91 829 91 894 128 c 0,56,57
 955 163 955 163 1005 213 c 0,58,59
 1057 265 1057 265 1091 324 c 0,60,61
 1128 388 1128 388 1146 455 c 0,62,63
 1165 525 1165 525 1165 600 c 0,64,65
 1165 680 1165 680 1146 746 c 0,66,67
 1125 818 1125 818 1091 876 c 0,68,69
 1055 937 1055 937 1005 987 c 0,70,71
 953 1039 953 1039 894 1073 c 0,72,73
 831 1109 831 1109 763 1128 c 0,74,75
 694 1147 694 1147 618 1147 c 0,76,77
 540 1147 540 1147 473 1128 c 0,78,79
 400 1107 400 1107 342 1073 c 0,80,81
 281 1037 281 1037 231 987 c 128,-1,82
 181 937 181 937 146 876 c 0,83,84
 110 815 110 815 90.5 745.5 c 128,-1,85
 71 676 71 676 71 600 c 0,40,41
EndSplineSet
Validated: 1
EndChar

StartChar: taiji
Encoding: 194 9775 193
GlifName: taiji
Width: 1234
LayerCount: 2
Fore
SplineSet
609.51 670.22 m 1,0,-1
 610.240469 652.7005 l 2,1,2
 615.349849 548.3095 615.349849 548.3095 687.255069 478.9605 c 128,-1,3
 759.160369 409.6109 759.160369 409.6109 862.090069 409.6109 c 0,4,5
 968.670069 409.6109 968.670069 409.6109 1041.305069 484.4351 c 128,-1,6
 1113.940769 559.2603 1113.940769 559.2603 1113.940769 669.4911 c 0,7,8
 1113.940769 872.4301 1113.940769 872.4301 964.655769 1019.1611 c 128,-1,9
 815.370769 1165.8901 815.370769 1165.8901 609.509769 1165.8901 c 0,10,11
 398.539769 1165.8901 398.539769 1165.8901 258.014769 1025.3661 c 128,-1,12
 117.490769 884.8411 117.490769 884.8411 105.079769 661.4611 c 1,13,14
 121.139369 785.5611 121.139369 785.5611 185.379569 849.8011 c 128,-1,15
 249.619769 914.0413 249.619769 914.0413 357.659569 914.0413 c 0,16,17
 460.589569 914.0413 460.589569 914.0413 532.129569 844.3265 c 128,-1,18
 603.669569 774.6117 603.669569 774.6117 609.509469 670.2215 c 1,19,-1
 609.51 670.22 l 1,0,-1
933.63 661.46 m 128,-1,21
 933.63 631.5303 933.63 631.5303 912.4601 610.3604 c 128,-1,22
 891.2902 589.1905 891.2902 589.1905 862.09 589.1905 c 0,23,24
 832.1603 589.1905 832.1603 589.1905 810.9904 610.3604 c 128,-1,25
 789.8205 631.5303 789.8205 631.5303 789.8205 661.46 c 128,-1,26
 789.8205 691.3897 789.8205 691.3897 810.9904 712.5596 c 128,-1,27
 832.1603 733.7305 832.1603 733.7305 862.09 733.7305 c 128,-1,28
 892.0197 733.7305 892.0197 733.7305 912.8254 712.5596 c 128,-1,20
 933.6301 691.3897 933.6301 691.3897 933.63 661.46 c 128,-1,21
429.2 661.46 m 0,29,30
 429.2 691.3897 429.2 691.3897 408.3943 712.5596 c 128,-1,31
 387.5896 733.7305 387.5896 733.7305 357.6599 733.7305 c 128,-1,32
 327.7302 733.7305 327.7302 733.7305 306.5593 712.5596 c 128,-1,33
 285.3894 691.3897 285.3894 691.3897 285.3894 661.46 c 128,-1,34
 285.3894 631.5303 285.3894 631.5303 306.5593 610.3604 c 128,-1,35
 327.7302 589.1905 327.7302 589.1905 357.6599 589.1905 c 0,36,37
 386.8601 589.1905 386.8601 589.1905 408.03 610.7247 c 128,-1,38
 429.1999 632.2599 429.1999 632.2599 429.2 661.46 c 0,29,30
1149.71 661.46 m 128,-1,40
 1149.71 437.35 1149.71 437.35 991.665 279.305 c 128,-1,41
 833.62 121.26 833.62 121.26 609.51 121.26 c 128,-1,42
 385.401 121.26 385.401 121.26 227.356 279.305 c 128,-1,43
 69.31 437.35 69.31 437.35 69.31 661.46 c 128,-1,44
 69.31 885.57 69.31 885.57 227.356 1043.615 c 128,-1,45
 385.401 1201.66 385.401 1201.66 609.51 1201.66 c 128,-1,46
 833.62 1201.66 833.62 1201.66 991.665 1043.615 c 128,-1,39
 1149.71 885.57 1149.71 885.57 1149.71 661.46 c 128,-1,40
-2242 2379 m 1024,47,-1
EndSplineSet
Validated: 1
EndChar

StartChar: baqoa_kun
Encoding: 195 9776 194
GlifName: baqoa_kun
Width: 1234
Flags: W
LayerCount: 2
Fore
SplineSet
155 273.56 m 0,0,1
 155 304.2182 155 304.2182 179.8682 326.3725 c 0,2,3
 204.7364 348.5278 204.7364 348.5278 239.2491 348.5043 c 2,4,-1
 989.6301 348.0043 l 2,5,6
 1024.049 347.9818391 1024.049 347.9818391 1048.9133 325.8354 c 0,7,8
 1073.7785 303.6899 1073.7785 303.6899 1073.7531 272.9487 c 0,9,10
 1073.7267328 242.2075 1073.7267328 242.2075 1048.8254 220.0942 c 0,11,12
 1023.9231 197.9819 1023.9231 197.9819 989.5041 198.0044 c 2,13,-1
 239.1231 198.5044 l 2,14,15
 204.6231 198.5278375 204.6231 198.5278375 179.8116 220.7095 c 0,16,17
 155.0001 242.8921 155.0001 242.8921 155 273.56 c 0,0,1
155 659.56 m 0,18,19
 155 690.2182 155 690.2182 179.8682 712.3725 c 0,20,21
 204.7364 734.5278 204.7364 734.5278 239.2491 734.5043 c 2,22,-1
 989.6301 734.0043 l 2,23,24
 1024.049 733.9818391 1024.049 733.9818391 1048.9133 711.8354 c 0,25,26
 1073.7785 689.6899 1073.7785 689.6899 1073.7531 658.9487 c 0,27,28
 1073.7267328 628.2075 1073.7267328 628.2075 1048.8254 606.0942 c 0,29,30
 1023.9231 583.9819 1023.9231 583.9819 989.5041 584.0044 c 2,31,-1
 239.1231 584.5044 l 2,32,33
 204.6231 584.5278375 204.6231 584.5278375 179.8116 606.7095 c 0,34,35
 155.0001 628.8921 155.0001 628.8921 155 659.56 c 0,18,19
155 1090.56 m 0,36,37
 155 1121.2182 155 1121.2182 179.8682 1143.3725 c 0,38,39
 204.7364 1165.5278 204.7364 1165.5278 239.2491 1165.5043 c 2,40,-1
 989.6301 1165.0043 l 2,41,42
 1024.049 1164.9818391 1024.049 1164.9818391 1048.9133 1142.8354 c 0,43,44
 1073.7785 1120.6899 1073.7785 1120.6899 1073.7531 1089.9487 c 0,45,46
 1073.7267328 1059.2075 1073.7267328 1059.2075 1048.8254 1037.0942 c 0,47,48
 1023.9231 1014.9819 1023.9231 1014.9819 989.5041 1015.0044 c 2,49,-1
 239.1231 1015.5044 l 2,50,51
 204.6231 1015.5278375 204.6231 1015.5278375 179.8116 1037.7095 c 0,52,53
 155.0001 1059.8921 155.0001 1059.8921 155 1090.56 c 0,36,37
EndSplineSet
Validated: 524289
EndChar

StartChar: baqoa_cian
Encoding: 196 9777 195
GlifName: baqoa_cian
Width: 1234
Flags: W
LayerCount: 2
Fore
SplineSet
189.814 201.504 m 2,0,1
 175.8443 201.5274375 175.8443 201.5274375 165.4219 224.5409 c 0,2,3
 153.7306 250.3564 153.7306 250.3564 153.7306 276.3424 c 0,4,5
 153.7306 302.7691 153.7306 302.7691 165.8219 329.3721 c 0,6,7
 175.8903 351.5274 175.8903 351.5274 189.8649 351.5039 c 2,8,-1
 493.6909 351.0039 l 2,9,10
 498.52339 350.99611167 498.52339 350.99611167 502.89067 348.32823 c 2,11,-1
 730.91967 348.176288 l 2,12,13
 735.00447 350.511538 735.00447 350.511538 739.49728 350.503898 c 2,14,-1
 1040.05728 350.003898 l 2,15,16
 1053.84338 349.9814371 1053.84338 349.9814371 1063.80338 327.834998 c 0,17,18
 1075.72848 301.317398 1075.72848 301.317398 1075.72848 274.902198 c 0,19,20
 1075.72848 248.611698 1075.72848 248.611698 1063.91568 222.422498 c 0,21,22
 1053.79358 199.981598 1053.79358 199.981598 1040.00748 200.004098 c 2,23,-1
 1009.63768 200.0546201 l 2,24,25
 1000.01422 197.9972301 1000.01422 197.9972301 989.50328 198.0041001 c 2,26,-1
 239.12228 198.5041001 l 2,27,28
 226.55328 198.51263883 226.55328 198.51263883 215.27018 201.4622101 c 2,29,-1
 189.814 201.504 l 2,0,1
189.814 585.504 m 2,30,31
 175.8443 585.5274375 175.8443 585.5274375 165.422 608.5409 c 0,32,33
 153.7307 634.3564 153.7307 634.3564 153.7307 660.3424 c 0,34,35
 153.7307 686.7691 153.7307 686.7691 165.822 713.3721 c 0,36,37
 175.8904 735.5274 175.8904 735.5274 189.865 735.5039 c 2,38,-1
 493.691 735.0039 l 2,39,40
 496.10701 735.00000621 496.10701 735.00000621 498.40675 734.331216 c 2,41,-1
 736.14875 734.172802 l 2,42,43
 737.79376 734.506797 737.79376 734.506797 739.49743 734.503901 c 2,44,-1
 1040.05743 734.003901 l 2,45,46
 1053.84353 733.9814401 1053.84353 733.9814401 1063.80353 711.835001 c 0,47,48
 1073.76251 689.689501 1073.76251 689.689501 1073.75275 658.948301 c 0,49,50
 1073.7420078 628.207101 1073.7420078 628.207101 1063.76837 606.093801 c 0,51,52
 1053.79376 583.981501 1053.79376 583.981501 1040.00767 584.004001 c 2,53,-1
 993.60477 584.081195 l 2,54,55
 991.57123 584.0026492 991.57123 584.0026492 989.50334 584.004001 c 2,56,-1
 239.12234 584.504001 l 2,57,58
 232.04734 584.50880738 232.04734 584.50880738 225.37984 585.445471 c 2,59,-1
 189.814 585.504 l 2,30,31
705.753 1089.56 m 0,60,61
 705.753 1120.2182 705.753 1120.2182 715.71394 1142.3725 c 0,62,63
 725.6739 1164.5278 725.6739 1164.5278 739.49814 1164.5043 c 2,64,-1
 1040.05814 1164.0043 l 2,65,66
 1053.84524 1163.9818391 1053.84524 1163.9818391 1063.80324 1141.8354 c 0,67,68
 1073.76418 1119.6899 1073.76418 1119.6899 1073.75344 1088.9487 c 0,69,70
 1073.7427 1058.2075 1073.7427 1058.2075 1063.76809 1036.0942 c 0,71,72
 1053.79446 1013.9819 1053.79446 1013.9819 1040.00829 1014.0044 c 2,73,-1
 739.44829 1014.5044 l 2,74,75
 725.62899 1014.5278375 725.62899 1014.5278375 715.69049 1036.7095 c 0,76,77
 705.753 1058.8921 705.753 1058.8921 705.753 1089.56 c 0,60,61
155.753 1090.56 m 0,78,79
 155.753 1121.2182 155.753 1121.2182 165.8233 1143.3725 c 0,80,81
 175.8917 1165.5278 175.8917 1165.5278 189.8653 1165.5043 c 2,82,-1
 493.6913 1165.0043 l 2,83,84
 507.6278 1164.9818391 507.6278 1164.9818391 517.6942 1142.8354 c 0,85,86
 527.7626 1120.6899 527.7626 1120.6899 527.7528 1089.9487 c 0,87,88
 527.7420578 1059.2075 527.7420578 1059.2075 517.659 1037.0942 c 0,89,90
 507.576 1014.9819 507.576 1014.9819 493.6404 1015.0044 c 2,91,-1
 189.8144 1015.5044 l 2,92,93
 175.8447 1015.5278375 175.8447 1015.5278375 165.7988 1037.7095 c 0,94,95
 155.753 1059.8921 155.753 1059.8921 155.753 1090.56 c 0,78,79
EndSplineSet
Validated: 524289
EndChar

StartChar: baqoa_zren
Encoding: 197 9778 196
GlifName: baqoa_zren
Width: 1234
Flags: W
LayerCount: 2
Fore
SplineSet
189.814 201.504 m 2,0,1
 175.8443 201.504 175.8443 201.504 165.4219 224.5409 c 0,2,3
 153.7306 250.3564 153.7306 250.3564 153.7306 276.3424 c 0,4,5
 153.7306 302.7691 153.7306 302.7691 165.8219 329.3721 c 0,6,7
 175.8903 351.5274 175.8903 351.5274 189.8649 351.5039 c 2,8,-1
 493.6909 351.0039 l 2,9,10
 498.52339 350.99611167 498.52339 350.99611167 502.89067 348.32823 c 2,11,-1
 730.91967 348.176288 l 2,12,13
 735.00447 350.511538 735.00447 350.511538 739.49728 350.503898 c 2,14,-1
 1040.05728 350.003898 l 2,15,16
 1053.84338 349.9814371 1053.84338 349.9814371 1063.80338 327.834998 c 0,17,18
 1075.72848 301.317398 1075.72848 301.317398 1075.72848 274.902198 c 0,19,20
 1075.72848 248.611698 1075.72848 248.611698 1063.91568 222.422498 c 0,21,22
 1053.79358 199.981598 1053.79358 199.981598 1040.00748 200.004098 c 2,23,-1
 1009.63768 200.0546201 l 2,24,25
 1000.01422 197.9972301 1000.01422 197.9972301 989.50328 198.0041001 c 2,26,-1
 239.12228 198.5041001 l 2,27,28
 226.55328 198.51263883 226.55328 198.51263883 215.27018 201.4622101 c 2,29,-1
 189.814 201.504 l 2,0,1
189.814 1015.5 m 2,30,31
 175.8443 1015.5 175.8443 1015.5 165.4219 1038.5369 c 0,32,33
 153.7305 1064.3526 153.7305 1064.3526 153.7305 1090.338 c 0,34,35
 153.7305 1116.7652 153.7305 1116.7652 165.8229 1143.368 c 0,36,37
 175.8913 1165.5233 175.8913 1165.5233 189.8649 1165.4998 c 2,38,-1
 235.2049 1165.4251849 l 2,39,40
 237.20996 1165.5011882 237.20996 1165.5011882 239.24868 1165.4998 c 2,41,-1
 989.62968 1164.9998 l 2,42,43
 996.68536 1164.99519564 996.68536 1164.99519564 1003.33948 1164.060883 c 2,44,-1
 1040.05768 1163.9998 l 2,45,46
 1053.84478 1163.9773391 1053.84478 1163.9773391 1063.81098 1141.8163 c 0,47,48
 1073.77719 1119.6553 1073.77719 1119.6553 1073.75263 1089.9442 c 2,49,-1
 1073.75186004 1089.66151 l 2,50,51
 1073.75186004 1058.22431 1073.75186004 1058.22431 1063.76762004 1036.08971 c 0,52,53
 1053.79399004 1013.97741 1053.79399004 1013.97741 1040.00782004 1013.99991 c 2,54,-1
 739.44782004 1014.49991 l 2,55,56
 737.05987004 1014.50395995 737.05987004 1014.50395995 734.78781004 1015.169634 c 2,57,-1
 497.00381004 1015.328076 l 2,58,59
 495.35085004 1014.997147 495.35085004 1014.997147 493.63981004 1014.99991 c 2,60,-1
 189.814 1015.5 l 2,30,31
705.753 659.56 m 0,61,62
 705.753 690.2182 705.753 690.2182 715.71394 712.3725 c 0,63,64
 725.67488 734.5278 725.67488 734.5278 739.49814 734.5043 c 2,65,-1
 1040.05814 734.0043 l 2,66,67
 1053.84424 733.9818391 1053.84424 733.9818391 1063.80424 711.8354 c 0,68,69
 1073.76322 689.6899 1073.76322 689.6899 1073.75346 658.9487 c 0,70,71
 1073.7427178 628.2075 1073.7427178 628.2075 1063.76908 606.0942 c 0,72,73
 1053.79447 583.9819 1053.79447 583.9819 1040.00838 584.0044 c 2,74,-1
 739.44838 584.5044 l 2,75,76
 725.62908 584.5278375 725.62908 584.5278375 715.69058 606.7095 c 0,77,78
 705.753 628.8921 705.753 628.8921 705.753 659.56 c 0,61,62
155.753 660.56 m 0,79,80
 155.753 691.2182 155.753 691.2182 165.8223 713.3725 c 0,81,82
 175.8907 735.5278 175.8907 735.5278 189.8653 735.5043 c 2,83,-1
 493.6913 735.0043 l 2,84,85
 507.6278 734.9818391 507.6278 734.9818391 517.6952 712.8354 c 0,86,87
 527.7626 690.6899 527.7626 690.6899 527.7528 659.9487 c 0,88,89
 527.7420578 629.2075 527.7420578 629.2075 517.659 607.0942 c 0,90,91
 507.576 584.9819 507.576 584.9819 493.6404 585.0044 c 2,92,-1
 189.8144 585.5044 l 2,93,94
 175.8447 585.5278375 175.8447 585.5278375 165.7988 607.7095 c 0,95,96
 155.753 629.8921 155.753 629.8921 155.753 660.56 c 0,79,80
EndSplineSet
Validated: 524289
EndChar

StartChar: baqoa_kan
Encoding: 198 9779 197
GlifName: baqoa_kan
Width: 1234
Flags: W
LayerCount: 2
Fore
SplineSet
155.753 1090.56 m 0,0,1
 155.753 1121.2182 155.753 1121.2182 165.8233 1143.3725 c 0,2,3
 175.8917 1165.5278 175.8917 1165.5278 189.8653 1165.5043 c 2,4,-1
 493.6913 1165.0043 l 2,5,6
 507.6278 1164.9818391 507.6278 1164.9818391 517.6942 1142.8354 c 0,7,8
 527.7626 1120.6899 527.7626 1120.6899 527.7528 1089.9487 c 0,9,10
 527.7420578 1059.2075 527.7420578 1059.2075 517.659 1037.0942 c 0,11,12
 507.576 1014.9819 507.576 1014.9819 493.6404 1015.0044 c 2,13,-1
 189.8144 1015.5044 l 2,14,15
 175.8447 1015.5278375 175.8447 1015.5278375 165.7988 1037.7095 c 0,16,17
 155.753 1059.8921 155.753 1059.8921 155.753 1090.56 c 0,0,1
705.753 1089.56 m 0,18,19
 705.753 1120.2182 705.753 1120.2182 715.71394 1142.3725 c 0,20,21
 725.6739 1164.5278 725.6739 1164.5278 739.49814 1164.5043 c 2,22,-1
 1040.05814 1164.0043 l 2,23,24
 1053.84524 1163.9818391 1053.84524 1163.9818391 1063.80324 1141.8354 c 0,25,26
 1073.76418 1119.6899 1073.76418 1119.6899 1073.75344 1088.9487 c 0,27,28
 1073.7427 1058.2075 1073.7427 1058.2075 1063.76809 1036.0942 c 0,29,30
 1053.79446 1013.9819 1053.79446 1013.9819 1040.00829 1014.0044 c 2,31,-1
 739.44829 1014.5044 l 2,32,33
 725.62899 1014.5278375 725.62899 1014.5278375 715.69049 1036.7095 c 0,34,35
 705.753 1058.8921 705.753 1058.8921 705.753 1089.56 c 0,18,19
155.753 660.56 m 0,36,37
 155.753 691.2182 155.753 691.2182 165.8223 713.3725 c 0,38,39
 175.8907 735.5278 175.8907 735.5278 189.8653 735.5043 c 2,40,-1
 493.6913 735.0043 l 2,41,42
 507.6278 734.9818391 507.6278 734.9818391 517.6952 712.8354 c 0,43,44
 527.7626 690.6899 527.7626 690.6899 527.7528 659.9487 c 0,45,46
 527.7420578 629.2075 527.7420578 629.2075 517.659 607.0942 c 0,47,48
 507.576 584.9819 507.576 584.9819 493.6404 585.0044 c 2,49,-1
 189.8144 585.5044 l 2,50,51
 175.8447 585.5278375 175.8447 585.5278375 165.7988 607.7095 c 0,52,53
 155.753 629.8921 155.753 629.8921 155.753 660.56 c 0,36,37
705.753 659.56 m 0,54,55
 705.753 690.2182 705.753 690.2182 715.71394 712.3725 c 0,56,57
 725.67488 734.5278 725.67488 734.5278 739.49814 734.5043 c 2,58,-1
 1040.05814 734.0043 l 2,59,60
 1053.84424 733.9818391 1053.84424 733.9818391 1063.80424 711.8354 c 0,61,62
 1073.76322 689.6899 1073.76322 689.6899 1073.75346 658.9487 c 0,63,64
 1073.7427178 628.2075 1073.7427178 628.2075 1063.76908 606.0942 c 0,65,66
 1053.79447 583.9819 1053.79447 583.9819 1040.00838 584.0044 c 2,67,-1
 739.44838 584.5044 l 2,68,69
 725.62908 584.5278375 725.62908 584.5278375 715.69058 606.7095 c 0,70,71
 705.753 628.8921 705.753 628.8921 705.753 659.56 c 0,54,55
189.814 201.504 m 2,72,73
 175.8443 201.5274375 175.8443 201.5274375 165.4219 224.5409 c 0,74,75
 153.7306 250.3564 153.7306 250.3564 153.7306 276.3424 c 0,76,77
 153.7306 302.7691 153.7306 302.7691 165.8219 329.3721 c 0,78,79
 175.8903 351.5274 175.8903 351.5274 189.8649 351.5039 c 2,80,-1
 493.6909 351.0039 l 2,81,82
 498.52339 350.99611167 498.52339 350.99611167 502.89067 348.32823 c 2,83,-1
 730.91967 348.176288 l 2,84,85
 735.00447 350.511538 735.00447 350.511538 739.49728 350.503898 c 2,86,-1
 1040.05728 350.003898 l 2,87,88
 1053.84338 349.9814371 1053.84338 349.9814371 1063.80338 327.834998 c 0,89,90
 1075.72848 301.317398 1075.72848 301.317398 1075.72848 274.902198 c 0,91,92
 1075.72848 248.611698 1075.72848 248.611698 1063.91568 222.422498 c 0,93,94
 1053.79358 199.981598 1053.79358 199.981598 1040.00748 200.004098 c 2,95,-1
 1009.63768 200.0546201 l 2,96,97
 1000.01422 197.9972301 1000.01422 197.9972301 989.50328 198.0041001 c 2,98,-1
 239.12228 198.5041001 l 2,99,100
 226.55328 198.51263883 226.55328 198.51263883 215.27018 201.4622101 c 2,101,-1
 189.814 201.504 l 2,72,73
EndSplineSet
Validated: 524289
EndChar

StartChar: baqoa_ri
Encoding: 199 9780 198
GlifName: baqoa_ri
Width: 1234
Flags: W
LayerCount: 2
Fore
SplineSet
155.753 276.56 m 128,-1,1
 155.753 307.2182 155.753 307.2182 165.8223 329.3725 c 128,-1,2
 175.8907 351.5278 175.8907 351.5278 189.8653 351.5043 c 2,3,-1
 493.6913 351.0043 l 2,4,5
 507.6278 350.9818391 507.6278 350.9818391 517.6952 328.8354 c 128,-1,6
 527.7626 306.6899 527.7626 306.6899 527.7528 275.9487 c 128,-1,7
 527.7420578 245.2075 527.7420578 245.2075 517.659 223.0942 c 128,-1,8
 507.576 200.9819 507.576 200.9819 493.6404 201.0044 c 2,9,-1
 189.8144 201.5044 l 2,10,11
 175.8447 201.5278375 175.8447 201.5278375 165.7988 223.7095 c 128,-1,0
 155.753 245.8921 155.753 245.8921 155.753 276.56 c 128,-1,1
705.753 275.56 m 128,-1,13
 705.753 306.2182 705.753 306.2182 715.71394 328.3725 c 128,-1,14
 725.67488 350.5278 725.67488 350.5278 739.49814 350.5043 c 2,15,-1
 1040.05814 350.0043 l 2,16,17
 1053.84424 349.9818391 1053.84424 349.9818391 1063.80424 327.8354 c 128,-1,18
 1073.76322 305.6899 1073.76322 305.6899 1073.75346 274.9487 c 128,-1,19
 1073.7427178 244.2075 1073.7427178 244.2075 1063.76908 222.0942 c 128,-1,20
 1053.79447 199.9819 1053.79447 199.9819 1040.00838 200.0044 c 2,21,-1
 739.44838 200.5044 l 2,22,23
 725.62908 200.5278375 725.62908 200.5278375 715.69058 222.7095 c 128,-1,12
 705.753 244.8921 705.753 244.8921 705.753 275.56 c 128,-1,13
189.814 1015.5 m 2,24,25
 175.8443 1015.5234375 175.8443 1015.5234375 165.4219 1038.5369 c 0,26,27
 153.7305 1064.3526 153.7305 1064.3526 153.7305 1090.338 c 0,28,29
 153.7305 1116.7652 153.7305 1116.7652 165.8229 1143.368 c 0,30,31
 175.8913 1165.5233 175.8913 1165.5233 189.8649 1165.4998 c 2,32,-1
 235.2049 1165.4251849 l 2,33,34
 237.20996 1165.5011882 237.20996 1165.5011882 239.24868 1165.4998 c 2,35,-1
 989.62968 1164.9998 l 2,36,37
 996.68536 1164.99519564 996.68536 1164.99519564 1003.33948 1164.060883 c 2,38,-1
 1040.05768 1163.9998 l 2,39,40
 1053.84478 1163.9773391 1053.84478 1163.9773391 1063.81098 1141.8163 c 128,-1,41
 1073.77719 1119.6553 1073.77719 1119.6553 1073.75263 1089.9442 c 2,42,-1
 1073.75186004 1089.66151 l 2,43,44
 1073.75186004 1058.22431 1073.75186004 1058.22431 1063.76762004 1036.08971 c 128,-1,45
 1053.79399004 1013.97741 1053.79399004 1013.97741 1040.00782004 1013.99991 c 2,46,-1
 739.44782004 1014.49991 l 2,47,48
 737.05987004 1014.50395995 737.05987004 1014.50395995 734.78781004 1015.169634 c 2,49,-1
 497.00381004 1015.328076 l 2,50,51
 495.35085004 1014.997147 495.35085004 1014.997147 493.63981004 1014.99991 c 2,52,-1
 189.814 1015.5 l 2,24,25
189.814 585.504 m 2,53,54
 175.8443 585.5274375 175.8443 585.5274375 165.422 608.5409 c 0,55,56
 153.7307 634.3564 153.7307 634.3564 153.7307 660.3424 c 0,57,58
 153.7307 686.7691 153.7307 686.7691 165.822 713.3721 c 0,59,60
 175.8904 735.5274 175.8904 735.5274 189.865 735.5039 c 2,61,-1
 493.691 735.0039 l 2,62,63
 496.10701 735.00000621 496.10701 735.00000621 498.40675 734.331216 c 2,64,-1
 736.14875 734.172802 l 2,65,66
 737.79376 734.506797 737.79376 734.506797 739.49743 734.503901 c 2,67,-1
 1040.05743 734.003901 l 2,68,69
 1053.84353 733.9814401 1053.84353 733.9814401 1063.80353 711.835001 c 128,-1,70
 1073.76251 689.689501 1073.76251 689.689501 1073.75275 658.948301 c 128,-1,71
 1073.7420078 628.207101 1073.7420078 628.207101 1063.76837 606.093801 c 128,-1,72
 1053.79376 583.981501 1053.79376 583.981501 1040.00767 584.004001 c 2,73,-1
 993.60477 584.081195 l 2,74,75
 991.57123 584.0026492 991.57123 584.0026492 989.50334 584.004001 c 2,76,-1
 239.12234 584.504001 l 2,77,78
 232.04734 584.50880738 232.04734 584.50880738 225.37984 585.445471 c 2,79,-1
 189.814 585.504 l 2,53,54
EndSplineSet
Validated: 524289
EndChar

StartChar: baqoa_qen
Encoding: 200 9781 199
GlifName: baqoa_qen
Width: 1234
Flags: W
LayerCount: 2
Fore
SplineSet
155.753 1090.56 m 0,0,1
 155.753 1121.2182 155.753 1121.2182 165.8233 1143.3725 c 0,2,3
 175.8917 1165.5278 175.8917 1165.5278 189.8653 1165.5043 c 2,4,-1
 493.6913 1165.0043 l 2,5,6
 507.6278 1164.9818391 507.6278 1164.9818391 517.6942 1142.8354 c 0,7,8
 527.7626 1120.6899 527.7626 1120.6899 527.7528 1089.9487 c 0,9,10
 527.7420578 1059.2075 527.7420578 1059.2075 517.659 1037.0942 c 0,11,12
 507.576 1014.9819 507.576 1014.9819 493.6404 1015.0044 c 2,13,-1
 189.8144 1015.5044 l 2,14,15
 175.8447 1015.5278375 175.8447 1015.5278375 165.7988 1037.7095 c 0,16,17
 155.753 1059.8921 155.753 1059.8921 155.753 1090.56 c 0,0,1
705.753 1089.56 m 0,18,19
 705.753 1120.2182 705.753 1120.2182 715.71394 1142.3725 c 0,20,21
 725.6739 1164.5278 725.6739 1164.5278 739.49814 1164.5043 c 2,22,-1
 1040.05814 1164.0043 l 2,23,24
 1053.84524 1163.9818391 1053.84524 1163.9818391 1063.80324 1141.8354 c 0,25,26
 1073.76418 1119.6899 1073.76418 1119.6899 1073.75344 1088.9487 c 0,27,28
 1073.7427 1058.2075 1073.7427 1058.2075 1063.76809 1036.0942 c 0,29,30
 1053.79446 1013.9819 1053.79446 1013.9819 1040.00829 1014.0044 c 2,31,-1
 739.44829 1014.5044 l 2,32,33
 725.62899 1014.5278375 725.62899 1014.5278375 715.69049 1036.7095 c 0,34,35
 705.753 1058.8921 705.753 1058.8921 705.753 1089.56 c 0,18,19
155.753 276.56 m 0,36,37
 155.753 307.2182 155.753 307.2182 165.8223 329.3725 c 0,38,39
 175.8907 351.5278 175.8907 351.5278 189.8653 351.5043 c 2,40,-1
 493.6913 351.0043 l 2,41,42
 507.6278 350.9818391 507.6278 350.9818391 517.6952 328.8354 c 0,43,44
 527.7626 306.6899 527.7626 306.6899 527.7528 275.9487 c 0,45,46
 527.7420578 245.2075 527.7420578 245.2075 517.659 223.0942 c 0,47,48
 507.576 200.9819 507.576 200.9819 493.6404 201.0044 c 2,49,-1
 189.8144 201.5044 l 2,50,51
 175.8447 201.5278375 175.8447 201.5278375 165.7988 223.7095 c 0,52,53
 155.753 245.8921 155.753 245.8921 155.753 276.56 c 0,36,37
705.753 275.56 m 0,54,55
 705.753 306.2182 705.753 306.2182 715.71394 328.3725 c 0,56,57
 725.67488 350.5278 725.67488 350.5278 739.49814 350.5043 c 2,58,-1
 1040.05814 350.0043 l 2,59,60
 1053.84424 349.9818391 1053.84424 349.9818391 1063.80424 327.8354 c 0,61,62
 1073.76322 305.6899 1073.76322 305.6899 1073.75346 274.9487 c 0,63,64
 1073.7427178 244.2075 1073.7427178 244.2075 1063.76908 222.0942 c 0,65,66
 1053.79447 199.9819 1053.79447 199.9819 1040.00838 200.0044 c 2,67,-1
 739.44838 200.5044 l 2,68,69
 725.62908 200.5278375 725.62908 200.5278375 715.69058 222.7095 c 0,70,71
 705.753 244.8921 705.753 244.8921 705.753 275.56 c 0,54,55
189.814 585.504 m 2,72,73
 175.8443 585.5274375 175.8443 585.5274375 164.7875 609.9419 c 0,74,75
 153.7307 634.3564 153.7307 634.3564 153.7307 660.5627 c 0,76,77
 153.7307 686.769 153.7307 686.769 164.8105 711.1482 c 0,78,79
 175.8903 735.5274 175.8903 735.5274 189.8649 735.5039 c 2,80,-1
 493.6909 735.0039 l 2,81,82
 496.10691 735.00000621 496.10691 735.00000621 498.40665 734.331216 c 2,83,-1
 736.14865 734.172802 l 2,84,85
 737.79366 734.506797 737.79366 734.506797 739.49733 734.503901 c 2,86,-1
 1040.05733 734.003901 l 2,87,88
 1053.84343 733.9814401 1053.84343 733.9814401 1063.80343 711.835001 c 0,89,90
 1073.76241 689.689501 1073.76241 689.689501 1073.75265 658.948301 c 0,91,92
 1073.7419078 628.207101 1073.7419078 628.207101 1063.76827 606.093801 c 0,93,94
 1053.79366 583.981501 1053.79366 583.981501 1040.00757 584.004001 c 2,95,-1
 993.60467 584.081195 l 2,96,97
 991.57113 584.0026492 991.57113 584.0026492 989.50324 584.004001 c 2,98,-1
 239.12224 584.504001 l 2,99,100
 232.04724 584.50880738 232.04724 584.50880738 225.37974 585.445471 c 2,101,-1
 189.814 585.504 l 2,72,73
EndSplineSet
Validated: 524289
EndChar

StartChar: baqoa_wui
Encoding: 201 9782 200
GlifName: baqoa_wui
Width: 1234
Flags: W
LayerCount: 2
Fore
SplineSet
155.753 660.56 m 0,0,1
 155.753 691.2182 155.753 691.2182 165.8223 713.3725 c 0,2,3
 175.8907 735.5278 175.8907 735.5278 189.8653 735.5043 c 2,4,-1
 493.6913 735.0043 l 2,5,6
 507.6278 734.9818391 507.6278 734.9818391 517.6952 712.8354 c 0,7,8
 527.7626 690.6899 527.7626 690.6899 527.7528 659.9487 c 0,9,10
 527.7420578 629.2075 527.7420578 629.2075 517.659 607.0942 c 0,11,12
 507.576 584.9819 507.576 584.9819 493.6404 585.0044 c 2,13,-1
 189.8144 585.5044 l 2,14,15
 175.8447 585.5278375 175.8447 585.5278375 165.7988 607.7095 c 0,16,17
 155.753 629.8921 155.753 629.8921 155.753 660.56 c 0,0,1
705.753 659.56 m 0,18,19
 705.753 690.2182 705.753 690.2182 715.71394 712.3725 c 0,20,21
 725.67488 734.5278 725.67488 734.5278 739.49814 734.5043 c 2,22,-1
 1040.05814 734.0043 l 2,23,24
 1053.84424 733.9818391 1053.84424 733.9818391 1063.80424 711.8354 c 0,25,26
 1073.76322 689.6899 1073.76322 689.6899 1073.75346 658.9487 c 0,27,28
 1073.7427178 628.2075 1073.7427178 628.2075 1063.76908 606.0942 c 0,29,30
 1053.79447 583.9819 1053.79447 583.9819 1040.00838 584.0044 c 2,31,-1
 739.44838 584.5044 l 2,32,33
 725.62908 584.5278375 725.62908 584.5278375 715.69058 606.7095 c 0,34,35
 705.753 628.8921 705.753 628.8921 705.753 659.56 c 0,18,19
155.753 276.56 m 0,36,37
 155.753 307.2182 155.753 307.2182 165.8223 329.3725 c 0,38,39
 175.8907 351.5278 175.8907 351.5278 189.8653 351.5043 c 2,40,-1
 493.6913 351.0043 l 2,41,42
 507.6278 350.9818391 507.6278 350.9818391 517.6952 328.8354 c 0,43,44
 527.7626 306.6899 527.7626 306.6899 527.7528 275.9487 c 0,45,46
 527.7420578 245.2075 527.7420578 245.2075 517.659 223.0942 c 0,47,48
 507.576 200.9819 507.576 200.9819 493.6404 201.0044 c 2,49,-1
 189.8144 201.5044 l 2,50,51
 175.8447 201.5278375 175.8447 201.5278375 165.7988 223.7095 c 0,52,53
 155.753 245.8921 155.753 245.8921 155.753 276.56 c 0,36,37
705.753 275.56 m 0,54,55
 705.753 306.2182 705.753 306.2182 715.71394 328.3725 c 0,56,57
 725.67488 350.5278 725.67488 350.5278 739.49814 350.5043 c 2,58,-1
 1040.05814 350.0043 l 2,59,60
 1053.84424 349.9818391 1053.84424 349.9818391 1063.80424 327.8354 c 0,61,62
 1073.76322 305.6899 1073.76322 305.6899 1073.75346 274.9487 c 0,63,64
 1073.7427178 244.2075 1073.7427178 244.2075 1063.76908 222.0942 c 0,65,66
 1053.79447 199.9819 1053.79447 199.9819 1040.00838 200.0044 c 2,67,-1
 739.44838 200.5044 l 2,68,69
 725.62908 200.5278375 725.62908 200.5278375 715.69058 222.7095 c 0,70,71
 705.753 244.8921 705.753 244.8921 705.753 275.56 c 0,54,55
189.814 1015.5 m 2,72,73
 175.8443 1015.5234375 175.8443 1015.5234375 164.7874 1039.938 c 0,74,75
 153.7305 1064.3526 153.7305 1064.3526 153.7305 1090.5589 c 0,76,77
 153.7305 1116.7652 153.7305 1116.7652 164.8109 1141.1443 c 0,78,79
 175.8913 1165.5233 175.8913 1165.5233 189.8649 1165.4998 c 2,80,-1
 235.2049 1165.4251849 l 2,81,82
 237.20996 1165.5011882 237.20996 1165.5011882 239.24868 1165.4998 c 2,83,-1
 989.62968 1164.9998 l 2,84,85
 996.68536 1164.99519564 996.68536 1164.99519564 1003.33948 1164.060883 c 2,86,-1
 1040.05768 1163.9998 l 2,87,88
 1053.84478 1163.9773391 1053.84478 1163.9773391 1063.81098 1141.8163 c 0,89,90
 1073.77719 1119.6553 1073.77719 1119.6553 1073.75263 1089.9442 c 2,91,-1
 1073.75186004 1089.66151 l 2,92,93
 1073.75186004 1058.22431 1073.75186004 1058.22431 1063.76762004 1036.08971 c 0,94,95
 1053.79399004 1013.97741 1053.79399004 1013.97741 1040.00782004 1013.99991 c 2,96,-1
 739.44782004 1014.49991 l 2,97,98
 737.05987004 1014.50395995 737.05987004 1014.50395995 734.78781004 1015.169634 c 2,99,-1
 497.00381004 1015.328076 l 2,100,101
 495.35085004 1014.997147 495.35085004 1014.997147 493.63981004 1014.99991 c 2,102,-1
 189.814 1015.5 l 2,72,73
EndSplineSet
Validated: 524289
EndChar

StartChar: baqoa_xiun
Encoding: 202 9783 201
GlifName: baqoa_xiun
Width: 1234
Flags: W
LayerCount: 2
Fore
SplineSet
715.691 222.709 m 0,0,1
 705.75342 244.8916 705.75342 244.8916 705.75342 275.5595 c 0,2,3
 705.75342 306.2177 705.75342 306.2177 715.71436 328.372 c 0,4,5
 725.66475 350.5038 725.66475 350.5038 739.46926 350.5038 c 2,6,-1
 1040.05826 350.003775 l 2,7,8
 1053.84436 349.9813141 1053.84436 349.9813141 1063.80436 327.834875 c 0,9,10
 1073.75359 305.711075 1073.75359 305.711075 1073.75359 275.008375 c 2,11,-1
 1073.75358044 274.9481882 l 2,12,13
 1073.74283824 244.2069882 1073.74283824 244.2069882 1063.76920044 222.0936882 c 0,14,15
 1053.80473044 200.0038882 1053.80473044 200.0038882 1040.03650044 200.0038882 c 2,16,-1
 739.44850044 200.5039112 l 2,17,18
 725.62920044 200.5273487 725.62920044 200.5273487 715.691 222.709 c 0,0,1
165.799 223.709 m 1,19,20
 155.7532 245.8916 155.7532 245.8916 155.7532 276.5595 c 0,21,22
 155.7532 307.2177 155.7532 307.2177 165.8225 329.372 c 0,23,24
 175.8802 351.5038 175.8802 351.5038 189.8359 351.5038 c 2,25,-1
 493.6919 351.003775 l 2,26,27
 507.6284 350.9813141 507.6284 350.9813141 517.6958 328.834875 c 0,28,29
 527.7534 306.710875 527.7534 306.710875 527.7534 276.007975 c 2,30,-1
 527.75339047 275.948192 l 2,31,32
 527.74264827 245.206992 527.74264827 245.206992 517.65959047 223.093692 c 0,33,34
 507.58679047 201.003892 507.58679047 201.003892 493.66929047 201.003892 c 2,35,-1
 189.81529047 201.503915 l 2,36,37
 175.84559047 201.5273525 175.84559047 201.5273525 165.79969047 223.709015 c 1,38,-1
 165.799 223.709 l 1,19,20
715.691 606.71 m 0,39,40
 705.75342 628.8926 705.75342 628.8926 705.75342 659.5605 c 0,41,42
 705.75342 690.2187 705.75342 690.2187 715.71436 712.373 c 0,43,44
 725.66475 734.5048 725.66475 734.5048 739.46926 734.5048 c 2,45,-1
 1040.05826 734.004775 l 2,46,47
 1053.84436 733.9823141 1053.84436 733.9823141 1063.80436 711.835875 c 0,48,49
 1073.75359 689.712075 1073.75359 689.712075 1073.75359 659.009375 c 2,50,-1
 1073.75358044 658.9491882 l 2,51,52
 1073.74283824 628.2079882 1073.74283824 628.2079882 1063.76920044 606.0946882 c 0,53,54
 1053.80473044 584.0048882 1053.80473044 584.0048882 1040.03650044 584.0048882 c 2,55,-1
 739.44850044 584.5049112 l 2,56,57
 725.62920044 584.5283487 725.62920044 584.5283487 715.691 606.71 c 0,39,40
165.799 607.71 m 1,58,59
 155.7532 629.8926 155.7532 629.8926 155.7532 660.5605 c 0,60,61
 155.7532 691.2187 155.7532 691.2187 165.8225 713.373 c 0,62,63
 175.8802 735.5048 175.8802 735.5048 189.8359 735.5048 c 2,64,-1
 493.6919 735.004775 l 2,65,66
 507.6284 734.9823141 507.6284 734.9823141 517.6958 712.835875 c 0,67,68
 527.7534 690.711875 527.7534 690.711875 527.7534 660.008975 c 2,69,-1
 527.75339047 659.949192 l 2,70,71
 527.74264827 629.207992 527.74264827 629.207992 517.65959047 607.094692 c 0,72,73
 507.58679047 585.004892 507.58679047 585.004892 493.66929047 585.004892 c 2,74,-1
 189.81529047 585.504915 l 2,75,76
 175.84559047 585.5283525 175.84559047 585.5283525 165.79969047 607.710015 c 1,77,-1
 165.799 607.71 l 1,58,59
715.69 1036.71 m 0,78,79
 705.75251 1058.8926 705.75251 1058.8926 705.75251 1089.5605 c 0,80,81
 705.75251 1120.2187 705.75251 1120.2187 715.71345 1142.373 c 0,82,83
 725.66286 1164.5048 725.66286 1164.5048 739.46835 1164.5048 c 2,84,-1
 1040.05735 1164.004775 l 2,85,86
 1053.84445 1163.9823141 1053.84445 1163.9823141 1063.80245 1141.835875 c 0,87,88
 1073.75266 1119.714275 1073.75266 1119.714275 1073.75266 1089.015375 c 2,89,-1
 1073.75264843 1088.9491653 l 2,90,91
 1073.74190843 1058.2079653 1073.74190843 1058.2079653 1063.76729843 1036.0946653 c 0,92,93
 1053.80380843 1014.0048653 1053.80380843 1014.0048653 1040.03549843 1014.0048653 c 2,94,-1
 739.44749843 1014.5048883 l 2,95,96
 725.62819843 1014.5283258 725.62819843 1014.5283258 715.69 1036.71 c 0,78,79
165.799 1037.71 m 1,97,98
 155.7532 1059.8926 155.7532 1059.8926 155.7532 1090.5605 c 0,99,100
 155.7532 1121.2187 155.7532 1121.2187 165.8235 1143.373 c 0,101,102
 175.8812 1165.5048 175.8812 1165.5048 189.8359 1165.5048 c 2,103,-1
 493.6919 1165.004775 l 2,104,105
 507.6284 1164.9823141 507.6284 1164.9823141 517.6948 1142.835875 c 0,106,107
 527.7534 1120.711875 527.7534 1120.711875 527.7534 1090.008975 c 2,108,-1
 527.753390471 1089.9491979 l 2,109,110
 527.742648271 1059.2079979 527.742648271 1059.2079979 517.659590471 1037.0946979 c 0,111,112
 507.586790471 1015.0048979 507.586790471 1015.0048979 493.669290471 1015.0048979 c 2,113,-1
 189.815290471 1015.5049209 l 2,114,115
 175.845590471 1015.5283584 175.845590471 1015.5283584 165.799690471 1037.7100209 c 1,116,-1
 165.799 1037.71 l 1,97,98
EndSplineSet
Validated: 524289
EndChar

StartChar: uni2800
Encoding: 203 10240 202
GlifName: uni2800
Width: 1234
Flags: W
LayerCount: 2
Fore
SplineSet
956 535 m 0,0,1
 981 535 981 535 1010 524 c 0,2,3
 1037 514 1037 514 1055 494 c 0,4,5
 1076 471 1076 471 1085 449 c 0,6,7
 1095 424 1095 424 1095 396 c 0,8,9
 1095 342 1095 342 1054 299 c 0,10,11
 1016 259 1016 259 955 259 c 0,12,13
 897 259 897 259 857 298 c 0,14,15
 818 336 818 336 818 396 c 0,16,17
 818 454 818 454 858.5 494.5 c 128,-1,18
 899 535 899 535 956 535 c 0,0,1
956 479 m 0,19,20
 922 479 922 479 898 455 c 0,21,22
 873 430 873 430 873 395 c 128,-1,23
 873 360 873 360 897 337 c 128,-1,24
 921 314 921 314 955 314 c 0,25,26
 990 314 990 314 1015 338 c 128,-1,27
 1040 362 1040 362 1040 396 c 128,-1,28
 1040 430 1040 430 1016 454.5 c 128,-1,29
 992 479 992 479 956 479 c 0,19,20
336 535 m 0,30,31
 361 535 361 535 390 524 c 0,32,33
 417 514 417 514 435 494 c 0,34,35
 456 471 456 471 465 449 c 0,36,37
 475 424 475 424 475 396 c 0,38,39
 475 342 475 342 434 299 c 0,40,41
 396 259 396 259 335 259 c 0,42,43
 277 259 277 259 237 298 c 0,44,45
 198 336 198 336 198 396 c 0,46,47
 198 454 198 454 238.5 494.5 c 128,-1,48
 279 535 279 535 336 535 c 0,30,31
336 479 m 0,49,50
 302 479 302 479 278 455 c 0,51,52
 253 430 253 430 253 395 c 128,-1,53
 253 360 253 360 277 337 c 128,-1,54
 301 314 301 314 335 314 c 0,55,56
 370 314 370 314 395 338 c 128,-1,57
 420 362 420 362 420 396 c 128,-1,58
 420 430 420 430 396 454.5 c 128,-1,59
 372 479 372 479 336 479 c 0,49,50
956 1005 m 0,60,61
 984 1005 984 1005 1010 994 c 0,62,63
 1034 984 1034 984 1055 963 c 128,-1,64
 1076 942 1076 942 1085 919 c 0,65,66
 1095 894 1095 894 1095 866 c 0,67,68
 1095 810 1095 810 1054 768 c 0,69,70
 1016 729 1016 729 955 729 c 0,71,72
 897 729 897 729 857 768 c 0,73,74
 818 806 818 806 818 866 c 0,75,76
 818 924 818 924 858.5 964.5 c 128,-1,77
 899 1005 899 1005 956 1005 c 0,60,61
956 949 m 0,78,79
 922 949 922 949 898 925 c 0,80,81
 873 900 873 900 873 865 c 128,-1,82
 873 830 873 830 897 807 c 128,-1,83
 921 784 921 784 955 784 c 0,84,85
 990 784 990 784 1015 808 c 128,-1,86
 1040 832 1040 832 1040 866 c 128,-1,87
 1040 900 1040 900 1016 924.5 c 128,-1,88
 992 949 992 949 956 949 c 0,78,79
336 1005 m 0,89,90
 364 1005 364 1005 390 994 c 0,91,92
 414 984 414 984 435 963 c 128,-1,93
 456 942 456 942 465 919 c 0,94,95
 475 894 475 894 475 866 c 0,96,97
 475 810 475 810 434 768 c 0,98,99
 396 729 396 729 335 729 c 0,100,101
 277 729 277 729 237 768 c 0,102,103
 198 806 198 806 198 866 c 0,104,105
 198 924 198 924 238.5 964.5 c 128,-1,106
 279 1005 279 1005 336 1005 c 0,89,90
336 949 m 0,107,108
 302 949 302 949 278 925 c 0,109,110
 253 900 253 900 253 865 c 128,-1,111
 253 830 253 830 277 807 c 128,-1,112
 301 784 301 784 335 784 c 0,113,114
 370 784 370 784 395 808 c 128,-1,115
 420 832 420 832 420 866 c 128,-1,116
 420 900 420 900 396 924.5 c 128,-1,117
 372 949 372 949 336 949 c 0,107,108
956 1405 m 0,118,119
 984 1405 984 1405 1010 1394 c 0,120,121
 1034 1384 1034 1384 1055 1363 c 128,-1,122
 1076 1342 1076 1342 1085 1319 c 0,123,124
 1095 1294 1095 1294 1095 1266 c 0,125,126
 1095 1210 1095 1210 1054 1168 c 0,127,128
 1016 1129 1016 1129 955 1129 c 0,129,130
 897 1129 897 1129 857 1168 c 0,131,132
 818 1206 818 1206 818 1266 c 0,133,134
 818 1324 818 1324 858.5 1364.5 c 128,-1,135
 899 1405 899 1405 956 1405 c 0,118,119
956 1349 m 0,136,137
 922 1349 922 1349 898 1325 c 0,138,139
 873 1300 873 1300 873 1265 c 128,-1,140
 873 1230 873 1230 897 1207 c 128,-1,141
 921 1184 921 1184 955 1184 c 0,142,143
 990 1184 990 1184 1015 1208 c 128,-1,144
 1040 1232 1040 1232 1040 1266 c 128,-1,145
 1040 1300 1040 1300 1016 1324.5 c 128,-1,146
 992 1349 992 1349 956 1349 c 0,136,137
336 1405 m 0,147,148
 364 1405 364 1405 390 1394 c 0,149,150
 414 1384 414 1384 435 1363 c 128,-1,151
 456 1342 456 1342 465 1319 c 0,152,153
 475 1294 475 1294 475 1266 c 0,154,155
 475 1210 475 1210 434 1168 c 0,156,157
 396 1129 396 1129 335 1129 c 0,158,159
 277 1129 277 1129 237 1168 c 0,160,161
 198 1206 198 1206 198 1266 c 0,162,163
 198 1324 198 1324 238.5 1364.5 c 128,-1,164
 279 1405 279 1405 336 1405 c 0,147,148
336 1349 m 0,165,166
 302 1349 302 1349 278 1325 c 0,167,168
 253 1300 253 1300 253 1265 c 128,-1,169
 253 1230 253 1230 277 1207 c 128,-1,170
 301 1184 301 1184 335 1184 c 0,171,172
 370 1184 370 1184 395 1208 c 128,-1,173
 420 1232 420 1232 420 1266 c 0,174,175
 419 1300 419 1300 395.5 1324.5 c 128,-1,176
 372 1349 372 1349 336 1349 c 0,165,166
EndSplineSet
Validated: 1
EndChar

StartChar: uni2801
Encoding: 204 10241 203
GlifName: uni2801
Width: 1234
Flags: W
LayerCount: 2
Fore
SplineSet
956 1349 m 0,0,1
 922 1349 922 1349 898 1325 c 0,2,3
 873 1300 873 1300 873 1265 c 128,-1,4
 873 1230 873 1230 897 1207 c 128,-1,5
 921 1184 921 1184 955 1184 c 0,6,7
 990 1184 990 1184 1015 1208 c 128,-1,8
 1040 1232 1040 1232 1040 1266 c 128,-1,9
 1040 1300 1040 1300 1016 1324.5 c 128,-1,10
 992 1349 992 1349 956 1349 c 0,0,1
956 1405 m 0,11,12
 984 1405 984 1405 1010 1394 c 0,13,14
 1034 1384 1034 1384 1055 1363 c 128,-1,15
 1076 1342 1076 1342 1085 1319 c 0,16,17
 1095 1294 1095 1294 1095 1266 c 0,18,19
 1095 1210 1095 1210 1054 1168 c 0,20,21
 1016 1129 1016 1129 955 1129 c 0,22,23
 897 1129 897 1129 857 1168 c 0,24,25
 818 1206 818 1206 818 1266 c 0,26,27
 818 1324 818 1324 858.5 1364.5 c 128,-1,28
 899 1405 899 1405 956 1405 c 0,11,12
336 949 m 0,29,30
 302 949 302 949 278 925 c 0,31,32
 253 900 253 900 253 865 c 128,-1,33
 253 830 253 830 277 807 c 128,-1,34
 301 784 301 784 335 784 c 0,35,36
 370 784 370 784 395 808 c 128,-1,37
 420 832 420 832 420 866 c 128,-1,38
 420 900 420 900 396 924.5 c 128,-1,39
 372 949 372 949 336 949 c 0,29,30
336 1005 m 0,40,41
 364 1005 364 1005 390 994 c 0,42,43
 414 984 414 984 435 963 c 128,-1,44
 456 942 456 942 465 919 c 0,45,46
 475 894 475 894 475 866 c 0,47,48
 475 810 475 810 434 768 c 0,49,50
 396 729 396 729 335 729 c 0,51,52
 277 729 277 729 237 768 c 0,53,54
 198 806 198 806 198 866 c 0,55,56
 198 924 198 924 238.5 964.5 c 128,-1,57
 279 1005 279 1005 336 1005 c 0,40,41
956 949 m 0,58,59
 922 949 922 949 898 925 c 0,60,61
 873 900 873 900 873 865 c 128,-1,62
 873 830 873 830 897 807 c 128,-1,63
 921 784 921 784 955 784 c 0,64,65
 990 784 990 784 1015 808 c 128,-1,66
 1040 832 1040 832 1040 866 c 128,-1,67
 1040 900 1040 900 1016 924.5 c 128,-1,68
 992 949 992 949 956 949 c 0,58,59
956 1005 m 0,69,70
 984 1005 984 1005 1010 994 c 0,71,72
 1034 984 1034 984 1055 963 c 128,-1,73
 1076 942 1076 942 1085 919 c 0,74,75
 1095 894 1095 894 1095 866 c 0,76,77
 1095 810 1095 810 1054 768 c 0,78,79
 1016 729 1016 729 955 729 c 0,80,81
 897 729 897 729 857 768 c 0,82,83
 818 806 818 806 818 866 c 0,84,85
 818 924 818 924 858.5 964.5 c 128,-1,86
 899 1005 899 1005 956 1005 c 0,69,70
336 479 m 0,87,88
 302 479 302 479 278 455 c 0,89,90
 253 430 253 430 253 395 c 128,-1,91
 253 360 253 360 277 337 c 128,-1,92
 301 314 301 314 335 314 c 0,93,94
 370 314 370 314 395 338 c 128,-1,95
 420 362 420 362 420 396 c 128,-1,96
 420 430 420 430 396 454.5 c 128,-1,97
 372 479 372 479 336 479 c 0,87,88
336 535 m 0,98,99
 361 535 361 535 390 524 c 0,100,101
 417 514 417 514 435 494 c 0,102,103
 456 471 456 471 465 449 c 0,104,105
 475 424 475 424 475 396 c 0,106,107
 475 342 475 342 434 299 c 0,108,109
 396 259 396 259 335 259 c 0,110,111
 277 259 277 259 237 298 c 0,112,113
 198 336 198 336 198 396 c 0,114,115
 198 454 198 454 238.5 494.5 c 128,-1,116
 279 535 279 535 336 535 c 0,98,99
956 479 m 0,117,118
 922 479 922 479 898 455 c 0,119,120
 873 430 873 430 873 395 c 128,-1,121
 873 360 873 360 897 337 c 128,-1,122
 921 314 921 314 955 314 c 0,123,124
 990 314 990 314 1015 338 c 128,-1,125
 1040 362 1040 362 1040 396 c 128,-1,126
 1040 430 1040 430 1016 454.5 c 128,-1,127
 992 479 992 479 956 479 c 0,117,118
956 535 m 0,128,129
 981 535 981 535 1010 524 c 0,130,131
 1037 514 1037 514 1055 494 c 0,132,133
 1076 471 1076 471 1085 449 c 0,134,135
 1095 424 1095 424 1095 396 c 0,136,137
 1095 342 1095 342 1054 299 c 0,138,139
 1016 259 1016 259 955 259 c 0,140,141
 897 259 897 259 857 298 c 0,142,143
 818 336 818 336 818 396 c 0,144,145
 818 454 818 454 858.5 494.5 c 128,-1,146
 899 535 899 535 956 535 c 0,128,129
336 1405 m 0,147,148
 364 1405 364 1405 390 1394 c 0,149,150
 414 1384 414 1384 435 1363 c 128,-1,151
 456 1342 456 1342 465 1319 c 0,152,153
 475 1294 475 1294 475 1266 c 0,154,155
 475 1210 475 1210 434 1168 c 0,156,157
 396 1129 396 1129 335 1129 c 0,158,159
 277 1129 277 1129 237 1168 c 0,160,161
 198 1206 198 1206 198 1266 c 0,162,163
 198 1267 198 1267 198 1269 c 0,164,165
 197.976190476 1270.30952381 197.976190476 1270.30952381 197.976190476 1271.61082766 c 0,166,167
 197.976190476 1324.96428571 197.976190476 1324.96428571 238 1364.5 c 0,168,169
 279 1405 279 1405 336 1405 c 0,147,148
EndSplineSet
Validated: 1
EndChar

StartChar: uni2802
Encoding: 205 10242 204
GlifName: uni2802
Width: 1234
Flags: W
LayerCount: 2
Fore
SplineSet
336 1349 m 0,0,1
 302 1349 302 1349 278 1325 c 0,2,3
 253 1300 253 1300 253 1265 c 128,-1,4
 253 1230 253 1230 277 1207 c 128,-1,5
 301 1184 301 1184 335 1184 c 0,6,7
 370 1184 370 1184 395 1208 c 128,-1,8
 420 1232 420 1232 420 1266 c 128,-1,9
 420 1300 420 1300 396 1324.5 c 128,-1,10
 372 1349 372 1349 336 1349 c 0,0,1
336 1405 m 0,11,12
 364 1405 364 1405 390 1394 c 0,13,14
 414 1384 414 1384 435 1363 c 128,-1,15
 456 1342 456 1342 465 1319 c 0,16,17
 475 1294 475 1294 475 1266 c 0,18,19
 475 1210 475 1210 434 1168 c 0,20,21
 396 1129 396 1129 335 1129 c 0,22,23
 277 1129 277 1129 237 1168 c 0,24,25
 198 1206 198 1206 198 1266 c 0,26,27
 198 1324 198 1324 238.5 1364.5 c 128,-1,28
 279 1405 279 1405 336 1405 c 0,11,12
956 1349 m 0,29,30
 922 1349 922 1349 898 1325 c 0,31,32
 873 1300 873 1300 873 1265 c 128,-1,33
 873 1230 873 1230 897 1207 c 128,-1,34
 921 1184 921 1184 955 1184 c 0,35,36
 990 1184 990 1184 1015 1208 c 128,-1,37
 1040 1232 1040 1232 1040 1266 c 128,-1,38
 1040 1300 1040 1300 1016 1324.5 c 128,-1,39
 992 1349 992 1349 956 1349 c 0,29,30
956 1405 m 0,40,41
 984 1405 984 1405 1010 1394 c 0,42,43
 1034 1384 1034 1384 1055 1363 c 128,-1,44
 1076 1342 1076 1342 1085 1319 c 0,45,46
 1095 1294 1095 1294 1095 1266 c 0,47,48
 1095 1210 1095 1210 1054 1168 c 0,49,50
 1016 1129 1016 1129 955 1129 c 0,51,52
 897 1129 897 1129 857 1168 c 0,53,54
 818 1206 818 1206 818 1266 c 0,55,56
 818 1324 818 1324 858.5 1364.5 c 128,-1,57
 899 1405 899 1405 956 1405 c 0,40,41
956 949 m 0,58,59
 922 949 922 949 898 925 c 0,60,61
 873 900 873 900 873 865 c 128,-1,62
 873 830 873 830 897 807 c 128,-1,63
 921 784 921 784 955 784 c 0,64,65
 990 784 990 784 1015 808 c 128,-1,66
 1040 832 1040 832 1040 866 c 128,-1,67
 1040 900 1040 900 1016 924.5 c 128,-1,68
 992 949 992 949 956 949 c 0,58,59
956 1005 m 0,69,70
 984 1005 984 1005 1010 994 c 0,71,72
 1034 984 1034 984 1055 963 c 128,-1,73
 1076 942 1076 942 1085 919 c 0,74,75
 1095 894 1095 894 1095 866 c 0,76,77
 1095 810 1095 810 1054 768 c 0,78,79
 1016 729 1016 729 955 729 c 0,80,81
 897 729 897 729 857 768 c 0,82,83
 818 806 818 806 818 866 c 0,84,85
 818 924 818 924 858.5 964.5 c 128,-1,86
 899 1005 899 1005 956 1005 c 0,69,70
336 479 m 0,87,88
 302 479 302 479 278 455 c 0,89,90
 253 430 253 430 253 395 c 128,-1,91
 253 360 253 360 277 337 c 128,-1,92
 301 314 301 314 335 314 c 0,93,94
 370 314 370 314 395 338 c 128,-1,95
 420 362 420 362 420 396 c 128,-1,96
 420 430 420 430 396 454.5 c 128,-1,97
 372 479 372 479 336 479 c 0,87,88
336 535 m 0,98,99
 361 535 361 535 390 524 c 0,100,101
 417 514 417 514 435 494 c 0,102,103
 456 471 456 471 465 449 c 0,104,105
 475 424 475 424 475 396 c 0,106,107
 475 342 475 342 434 299 c 0,108,109
 396 259 396 259 335 259 c 0,110,111
 277 259 277 259 237 298 c 0,112,113
 198 336 198 336 198 396 c 0,114,115
 198 454 198 454 238.5 494.5 c 128,-1,116
 279 535 279 535 336 535 c 0,98,99
956 479 m 0,117,118
 922 479 922 479 898 455 c 0,119,120
 873 430 873 430 873 395 c 128,-1,121
 873 360 873 360 897 337 c 128,-1,122
 921 314 921 314 955 314 c 0,123,124
 990 314 990 314 1015 338 c 128,-1,125
 1040 362 1040 362 1040 396 c 128,-1,126
 1040 430 1040 430 1016 454.5 c 128,-1,127
 992 479 992 479 956 479 c 0,117,118
956 535 m 0,128,129
 981 535 981 535 1010 524 c 0,130,131
 1037 514 1037 514 1055 494 c 0,132,133
 1076 471 1076 471 1085 449 c 0,134,135
 1095 424 1095 424 1095 396 c 0,136,137
 1095 342 1095 342 1054 299 c 0,138,139
 1016 259 1016 259 955 259 c 0,140,141
 897 259 897 259 857 298 c 0,142,143
 818 336 818 336 818 396 c 0,144,145
 818 454 818 454 858.5 494.5 c 128,-1,146
 899 535 899 535 956 535 c 0,128,129
336 1005 m 0,147,148
 364 1005 364 1005 390 994 c 0,149,150
 414 984 414 984 435 963 c 128,-1,151
 456 942 456 942 465 919 c 0,152,153
 475 894 475 894 475 866 c 0,154,155
 475 810 475 810 434 768 c 0,156,157
 396 729 396 729 335 729 c 0,158,159
 277 729 277 729 237 768 c 0,160,161
 198 806 198 806 198 866 c 0,162,163
 198 867 198 867 198 869 c 0,164,165
 197.976190476 870.30952381 197.976190476 870.30952381 197.976190476 871.610827664 c 0,166,167
 197.976190476 924.964285714 197.976190476 924.964285714 238 964.5 c 0,168,169
 279 1005 279 1005 336 1005 c 0,147,148
EndSplineSet
Validated: 1
EndChar

StartChar: uni2803
Encoding: 206 10243 205
GlifName: uni2803
Width: 1234
Flags: W
LayerCount: 2
Fore
SplineSet
956 1349 m 0,0,1
 922 1349 922 1349 898 1325 c 0,2,3
 873 1300 873 1300 873 1265 c 128,-1,4
 873 1230 873 1230 897 1207 c 128,-1,5
 921 1184 921 1184 955 1184 c 0,6,7
 990 1184 990 1184 1015 1208 c 128,-1,8
 1040 1232 1040 1232 1040 1266 c 128,-1,9
 1040 1300 1040 1300 1016 1324.5 c 128,-1,10
 992 1349 992 1349 956 1349 c 0,0,1
956 1405 m 0,11,12
 984 1405 984 1405 1010 1394 c 0,13,14
 1034 1384 1034 1384 1055 1363 c 128,-1,15
 1076 1342 1076 1342 1085 1319 c 0,16,17
 1095 1294 1095 1294 1095 1266 c 0,18,19
 1095 1210 1095 1210 1054 1168 c 0,20,21
 1016 1129 1016 1129 955 1129 c 0,22,23
 897 1129 897 1129 857 1168 c 0,24,25
 818 1206 818 1206 818 1266 c 0,26,27
 818 1324 818 1324 858.5 1364.5 c 128,-1,28
 899 1405 899 1405 956 1405 c 0,11,12
956 949 m 0,29,30
 922 949 922 949 898 925 c 0,31,32
 873 900 873 900 873 865 c 128,-1,33
 873 830 873 830 897 807 c 128,-1,34
 921 784 921 784 955 784 c 0,35,36
 990 784 990 784 1015 808 c 128,-1,37
 1040 832 1040 832 1040 866 c 128,-1,38
 1040 900 1040 900 1016 924.5 c 128,-1,39
 992 949 992 949 956 949 c 0,29,30
956 1005 m 0,40,41
 984 1005 984 1005 1010 994 c 0,42,43
 1034 984 1034 984 1055 963 c 128,-1,44
 1076 942 1076 942 1085 919 c 0,45,46
 1095 894 1095 894 1095 866 c 0,47,48
 1095 810 1095 810 1054 768 c 0,49,50
 1016 729 1016 729 955 729 c 0,51,52
 897 729 897 729 857 768 c 0,53,54
 818 806 818 806 818 866 c 0,55,56
 818 924 818 924 858.5 964.5 c 128,-1,57
 899 1005 899 1005 956 1005 c 0,40,41
336 479 m 0,58,59
 302 479 302 479 278 455 c 0,60,61
 253 430 253 430 253 395 c 128,-1,62
 253 360 253 360 277 337 c 128,-1,63
 301 314 301 314 335 314 c 0,64,65
 370 314 370 314 395 338 c 128,-1,66
 420 362 420 362 420 396 c 128,-1,67
 420 430 420 430 396 454.5 c 128,-1,68
 372 479 372 479 336 479 c 0,58,59
336 535 m 0,69,70
 361 535 361 535 390 524 c 0,71,72
 417 514 417 514 435 494 c 0,73,74
 456 471 456 471 465 449 c 0,75,76
 475 424 475 424 475 396 c 0,77,78
 475 342 475 342 434 299 c 0,79,80
 396 259 396 259 335 259 c 0,81,82
 277 259 277 259 237 298 c 0,83,84
 198 336 198 336 198 396 c 0,85,86
 198 454 198 454 238.5 494.5 c 128,-1,87
 279 535 279 535 336 535 c 0,69,70
956 479 m 0,88,89
 922 479 922 479 898 455 c 0,90,91
 873 430 873 430 873 395 c 128,-1,92
 873 360 873 360 897 337 c 128,-1,93
 921 314 921 314 955 314 c 0,94,95
 990 314 990 314 1015 338 c 128,-1,96
 1040 362 1040 362 1040 396 c 128,-1,97
 1040 430 1040 430 1016 454.5 c 128,-1,98
 992 479 992 479 956 479 c 0,88,89
956 535 m 0,99,100
 981 535 981 535 1010 524 c 0,101,102
 1037 514 1037 514 1055 494 c 0,103,104
 1076 471 1076 471 1085 449 c 0,105,106
 1095 424 1095 424 1095 396 c 0,107,108
 1095 342 1095 342 1054 299 c 0,109,110
 1016 259 1016 259 955 259 c 0,111,112
 897 259 897 259 857 298 c 0,113,114
 818 336 818 336 818 396 c 0,115,116
 818 454 818 454 858.5 494.5 c 128,-1,117
 899 535 899 535 956 535 c 0,99,100
336 1405 m 0,118,119
 364 1405 364 1405 390 1394 c 0,120,121
 414 1384 414 1384 435 1363 c 128,-1,122
 456 1342 456 1342 465 1319 c 0,123,124
 475 1294 475 1294 475 1266 c 0,125,126
 475 1210 475 1210 434 1168 c 0,127,128
 396 1129 396 1129 335 1129 c 0,129,130
 277 1129 277 1129 237 1168 c 0,131,132
 198 1206 198 1206 198 1266 c 0,133,134
 198 1324 198 1324 238.5 1364.5 c 128,-1,135
 279 1405 279 1405 336 1405 c 0,118,119
336 1005 m 0,136,137
 364 1005 364 1005 390 994 c 0,138,139
 414 984 414 984 435 963 c 128,-1,140
 456 942 456 942 465 919 c 0,141,142
 475 894 475 894 475 866 c 0,143,144
 475 810 475 810 434 768 c 0,145,146
 396 729 396 729 335 729 c 0,147,148
 277 729 277 729 237 768 c 0,149,150
 198 806 198 806 198 866 c 0,151,152
 198 867 198 867 198 869 c 0,153,154
 197.976190476 870.30952381 197.976190476 870.30952381 197.976190476 871.610827664 c 0,155,156
 197.976190476 924.964285714 197.976190476 924.964285714 238 964.5 c 0,157,158
 279 1005 279 1005 336 1005 c 0,136,137
EndSplineSet
Validated: 1
EndChar

StartChar: uni2804
Encoding: 207 10244 206
GlifName: uni2804
Width: 1234
Flags: W
LayerCount: 2
Fore
SplineSet
336 1349 m 0,0,1
 302 1349 302 1349 278 1325 c 0,2,3
 253 1300 253 1300 253 1265 c 128,-1,4
 253 1230 253 1230 277 1207 c 128,-1,5
 301 1184 301 1184 335 1184 c 0,6,7
 370 1184 370 1184 395 1208 c 128,-1,8
 420 1232 420 1232 420 1266 c 128,-1,9
 420 1300 420 1300 396 1324.5 c 128,-1,10
 372 1349 372 1349 336 1349 c 0,0,1
336 1405 m 0,11,12
 364 1405 364 1405 390 1394 c 0,13,14
 414 1384 414 1384 435 1363 c 128,-1,15
 456 1342 456 1342 465 1319 c 0,16,17
 475 1294 475 1294 475 1266 c 0,18,19
 475 1210 475 1210 434 1168 c 0,20,21
 396 1129 396 1129 335 1129 c 0,22,23
 277 1129 277 1129 237 1168 c 0,24,25
 198 1206 198 1206 198 1266 c 0,26,27
 198 1324 198 1324 238.5 1364.5 c 128,-1,28
 279 1405 279 1405 336 1405 c 0,11,12
956 1349 m 0,29,30
 922 1349 922 1349 898 1325 c 0,31,32
 873 1300 873 1300 873 1265 c 128,-1,33
 873 1230 873 1230 897 1207 c 128,-1,34
 921 1184 921 1184 955 1184 c 0,35,36
 990 1184 990 1184 1015 1208 c 128,-1,37
 1040 1232 1040 1232 1040 1266 c 128,-1,38
 1040 1300 1040 1300 1016 1324.5 c 128,-1,39
 992 1349 992 1349 956 1349 c 0,29,30
956 1405 m 0,40,41
 984 1405 984 1405 1010 1394 c 0,42,43
 1034 1384 1034 1384 1055 1363 c 128,-1,44
 1076 1342 1076 1342 1085 1319 c 0,45,46
 1095 1294 1095 1294 1095 1266 c 0,47,48
 1095 1210 1095 1210 1054 1168 c 0,49,50
 1016 1129 1016 1129 955 1129 c 0,51,52
 897 1129 897 1129 857 1168 c 0,53,54
 818 1206 818 1206 818 1266 c 0,55,56
 818 1324 818 1324 858.5 1364.5 c 128,-1,57
 899 1405 899 1405 956 1405 c 0,40,41
336 949 m 0,58,59
 302 949 302 949 278 925 c 0,60,61
 253 900 253 900 253 865 c 128,-1,62
 253 830 253 830 277 807 c 128,-1,63
 301 784 301 784 335 784 c 0,64,65
 370 784 370 784 395 808 c 128,-1,66
 420 832 420 832 420 866 c 128,-1,67
 420 900 420 900 396 924.5 c 128,-1,68
 372 949 372 949 336 949 c 0,58,59
336 1005 m 0,69,70
 364 1005 364 1005 390 994 c 0,71,72
 414 984 414 984 435 963 c 128,-1,73
 456 942 456 942 465 919 c 0,74,75
 475 894 475 894 475 866 c 0,76,77
 475 810 475 810 434 768 c 0,78,79
 396 729 396 729 335 729 c 0,80,81
 277 729 277 729 237 768 c 0,82,83
 198 806 198 806 198 866 c 0,84,85
 198 924 198 924 238.5 964.5 c 128,-1,86
 279 1005 279 1005 336 1005 c 0,69,70
956 949 m 0,87,88
 922 949 922 949 898 925 c 0,89,90
 873 900 873 900 873 865 c 128,-1,91
 873 830 873 830 897 807 c 128,-1,92
 921 784 921 784 955 784 c 0,93,94
 990 784 990 784 1015 808 c 128,-1,95
 1040 832 1040 832 1040 866 c 128,-1,96
 1040 900 1040 900 1016 924.5 c 128,-1,97
 992 949 992 949 956 949 c 0,87,88
956 1005 m 0,98,99
 984 1005 984 1005 1010 994 c 0,100,101
 1034 984 1034 984 1055 963 c 128,-1,102
 1076 942 1076 942 1085 919 c 0,103,104
 1095 894 1095 894 1095 866 c 0,105,106
 1095 810 1095 810 1054 768 c 0,107,108
 1016 729 1016 729 955 729 c 0,109,110
 897 729 897 729 857 768 c 0,111,112
 818 806 818 806 818 866 c 0,113,114
 818 924 818 924 858.5 964.5 c 128,-1,115
 899 1005 899 1005 956 1005 c 0,98,99
956 479 m 0,116,117
 922 479 922 479 898 455 c 0,118,119
 873 430 873 430 873 395 c 128,-1,120
 873 360 873 360 897 337 c 128,-1,121
 921 314 921 314 955 314 c 0,122,123
 990 314 990 314 1015 338 c 128,-1,124
 1040 362 1040 362 1040 396 c 128,-1,125
 1040 430 1040 430 1016 454.5 c 128,-1,126
 992 479 992 479 956 479 c 0,116,117
956 535 m 0,127,128
 981 535 981 535 1010 524 c 0,129,130
 1037 514 1037 514 1055 494 c 0,131,132
 1076 471 1076 471 1085 449 c 0,133,134
 1095 424 1095 424 1095 396 c 0,135,136
 1095 342 1095 342 1054 299 c 0,137,138
 1016 259 1016 259 955 259 c 0,139,140
 897 259 897 259 857 298 c 0,141,142
 818 336 818 336 818 396 c 0,143,144
 818 454 818 454 858.5 494.5 c 128,-1,145
 899 535 899 535 956 535 c 0,127,128
336 535 m 0,146,147
 361 535 361 535 390 524 c 0,148,149
 417 514 417 514 435 494 c 0,150,151
 456 471 456 471 465 449 c 0,152,153
 475 424 475 424 475 396 c 0,154,155
 475 342 475 342 434 299 c 0,156,157
 396 259 396 259 335 259 c 0,158,159
 277 259 277 259 237 298 c 0,160,161
 198 336 198 336 198 396 c 0,162,163
 198 397 198 397 198 399 c 0,164,165
 197.976190476 400.30952381 197.976190476 400.30952381 197.976190476 401.610827664 c 0,166,167
 197.976190476 454.964285714 197.976190476 454.964285714 238 494.5 c 0,168,169
 279 535 279 535 336 535 c 0,146,147
EndSplineSet
Validated: 1
EndChar

StartChar: uni2805
Encoding: 208 10245 207
GlifName: uni2805
Width: 1234
Flags: W
LayerCount: 2
Fore
SplineSet
336 1405 m 0,0,1
 364 1405 364 1405 390 1394 c 0,2,3
 414 1384 414 1384 435 1363 c 128,-1,4
 456 1342 456 1342 465 1319 c 0,5,6
 475 1294 475 1294 475 1266 c 0,7,8
 475 1210 475 1210 434 1168 c 0,9,10
 396 1129 396 1129 335 1129 c 0,11,12
 277 1129 277 1129 237 1168 c 0,13,14
 198 1206 198 1206 198 1266 c 0,15,16
 198 1324 198 1324 238.5 1364.5 c 128,-1,17
 279 1405 279 1405 336 1405 c 0,0,1
956 535 m 0,18,19
 981 535 981 535 1010 524 c 0,20,21
 1037 514 1037 514 1055 494 c 0,22,23
 1076 471 1076 471 1085 449 c 0,24,25
 1095 424 1095 424 1095 396 c 0,26,27
 1095 342 1095 342 1054 299 c 0,28,29
 1016 259 1016 259 955 259 c 0,30,31
 897 259 897 259 857 298 c 0,32,33
 818 336 818 336 818 396 c 0,34,35
 818 454 818 454 858.5 494.5 c 128,-1,36
 899 535 899 535 956 535 c 0,18,19
956 479 m 0,37,38
 922 479 922 479 898 455 c 0,39,40
 873 430 873 430 873 395 c 128,-1,41
 873 360 873 360 897 337 c 128,-1,42
 921 314 921 314 955 314 c 0,43,44
 990 314 990 314 1015 338 c 128,-1,45
 1040 362 1040 362 1040 396 c 128,-1,46
 1040 430 1040 430 1016 454.5 c 128,-1,47
 992 479 992 479 956 479 c 0,37,38
956 1005 m 0,48,49
 984 1005 984 1005 1010 994 c 0,50,51
 1034 984 1034 984 1055 963 c 128,-1,52
 1076 942 1076 942 1085 919 c 0,53,54
 1095 894 1095 894 1095 866 c 0,55,56
 1095 810 1095 810 1054 768 c 0,57,58
 1016 729 1016 729 955 729 c 0,59,60
 897 729 897 729 857 768 c 0,61,62
 818 806 818 806 818 866 c 0,63,64
 818 924 818 924 858.5 964.5 c 128,-1,65
 899 1005 899 1005 956 1005 c 0,48,49
956 949 m 0,66,67
 922 949 922 949 898 925 c 0,68,69
 873 900 873 900 873 865 c 128,-1,70
 873 830 873 830 897 807 c 128,-1,71
 921 784 921 784 955 784 c 0,72,73
 990 784 990 784 1015 808 c 128,-1,74
 1040 832 1040 832 1040 866 c 128,-1,75
 1040 900 1040 900 1016 924.5 c 128,-1,76
 992 949 992 949 956 949 c 0,66,67
336 1005 m 0,77,78
 364 1005 364 1005 390 994 c 0,79,80
 414 984 414 984 435 963 c 128,-1,81
 456 942 456 942 465 919 c 0,82,83
 475 894 475 894 475 866 c 0,84,85
 475 810 475 810 434 768 c 0,86,87
 396 729 396 729 335 729 c 0,88,89
 277 729 277 729 237 768 c 0,90,91
 198 806 198 806 198 866 c 0,92,93
 198 924 198 924 238.5 964.5 c 128,-1,94
 279 1005 279 1005 336 1005 c 0,77,78
336 949 m 0,95,96
 302 949 302 949 278 925 c 0,97,98
 253 900 253 900 253 865 c 128,-1,99
 253 830 253 830 277 807 c 128,-1,100
 301 784 301 784 335 784 c 0,101,102
 370 784 370 784 395 808 c 128,-1,103
 420 832 420 832 420 866 c 128,-1,104
 420 900 420 900 396 924.5 c 128,-1,105
 372 949 372 949 336 949 c 0,95,96
956 1405 m 0,106,107
 984 1405 984 1405 1010 1394 c 0,108,109
 1034 1384 1034 1384 1055 1363 c 128,-1,110
 1076 1342 1076 1342 1085 1319 c 0,111,112
 1095 1294 1095 1294 1095 1266 c 0,113,114
 1095 1210 1095 1210 1054 1168 c 0,115,116
 1016 1129 1016 1129 955 1129 c 0,117,118
 897 1129 897 1129 857 1168 c 0,119,120
 818 1206 818 1206 818 1266 c 0,121,122
 818 1324 818 1324 858.5 1364.5 c 128,-1,123
 899 1405 899 1405 956 1405 c 0,106,107
956 1349 m 0,124,125
 922 1349 922 1349 898 1325 c 0,126,127
 873 1300 873 1300 873 1265 c 128,-1,128
 873 1230 873 1230 897 1207 c 128,-1,129
 921 1184 921 1184 955 1184 c 0,130,131
 990 1184 990 1184 1015 1208 c 128,-1,132
 1040 1232 1040 1232 1040 1266 c 128,-1,133
 1040 1300 1040 1300 1016 1324.5 c 128,-1,134
 992 1349 992 1349 956 1349 c 0,124,125
336 535 m 0,135,136
 361 535 361 535 390 524 c 0,137,138
 417 514 417 514 435 494 c 0,139,140
 456 471 456 471 465 449 c 0,141,142
 475 424 475 424 475 396 c 0,143,144
 475 342 475 342 434 299 c 0,145,146
 396 259 396 259 335 259 c 0,147,148
 277 259 277 259 237 298 c 0,149,150
 198 336 198 336 198 396 c 0,151,152
 198 397 198 397 198 399 c 0,153,154
 197.976190476 400.30952381 197.976190476 400.30952381 197.976190476 401.610827664 c 0,155,156
 197.976190476 454.964285714 197.976190476 454.964285714 238 494.5 c 0,157,158
 279 535 279 535 336 535 c 0,135,136
EndSplineSet
Validated: 1
EndChar

StartChar: uni2806
Encoding: 209 10246 208
GlifName: uni2806
Width: 1234
Flags: W
LayerCount: 2
Fore
SplineSet
336 1349 m 0,0,1
 302 1349 302 1349 278 1325 c 0,2,3
 253 1300 253 1300 253 1265 c 128,-1,4
 253 1230 253 1230 277 1207 c 128,-1,5
 301 1184 301 1184 335 1184 c 0,6,7
 370 1184 370 1184 395 1208 c 128,-1,8
 420 1232 420 1232 420 1266 c 128,-1,9
 420 1300 420 1300 396 1324.5 c 128,-1,10
 372 1349 372 1349 336 1349 c 0,0,1
336 1405 m 0,11,12
 364 1405 364 1405 390 1394 c 0,13,14
 414 1384 414 1384 435 1363 c 128,-1,15
 456 1342 456 1342 465 1319 c 0,16,17
 475 1294 475 1294 475 1266 c 0,18,19
 475 1210 475 1210 434 1168 c 0,20,21
 396 1129 396 1129 335 1129 c 0,22,23
 277 1129 277 1129 237 1168 c 0,24,25
 198 1206 198 1206 198 1266 c 0,26,27
 198 1324 198 1324 238.5 1364.5 c 128,-1,28
 279 1405 279 1405 336 1405 c 0,11,12
956 1349 m 0,29,30
 922 1349 922 1349 898 1325 c 0,31,32
 873 1300 873 1300 873 1265 c 128,-1,33
 873 1230 873 1230 897 1207 c 128,-1,34
 921 1184 921 1184 955 1184 c 0,35,36
 990 1184 990 1184 1015 1208 c 128,-1,37
 1040 1232 1040 1232 1040 1266 c 128,-1,38
 1040 1300 1040 1300 1016 1324.5 c 128,-1,39
 992 1349 992 1349 956 1349 c 0,29,30
956 1405 m 0,40,41
 984 1405 984 1405 1010 1394 c 0,42,43
 1034 1384 1034 1384 1055 1363 c 128,-1,44
 1076 1342 1076 1342 1085 1319 c 0,45,46
 1095 1294 1095 1294 1095 1266 c 0,47,48
 1095 1210 1095 1210 1054 1168 c 0,49,50
 1016 1129 1016 1129 955 1129 c 0,51,52
 897 1129 897 1129 857 1168 c 0,53,54
 818 1206 818 1206 818 1266 c 0,55,56
 818 1324 818 1324 858.5 1364.5 c 128,-1,57
 899 1405 899 1405 956 1405 c 0,40,41
956 949 m 0,58,59
 922 949 922 949 898 925 c 0,60,61
 873 900 873 900 873 865 c 128,-1,62
 873 830 873 830 897 807 c 128,-1,63
 921 784 921 784 955 784 c 0,64,65
 990 784 990 784 1015 808 c 128,-1,66
 1040 832 1040 832 1040 866 c 128,-1,67
 1040 900 1040 900 1016 924.5 c 128,-1,68
 992 949 992 949 956 949 c 0,58,59
956 1005 m 0,69,70
 984 1005 984 1005 1010 994 c 0,71,72
 1034 984 1034 984 1055 963 c 128,-1,73
 1076 942 1076 942 1085 919 c 0,74,75
 1095 894 1095 894 1095 866 c 0,76,77
 1095 810 1095 810 1054 768 c 0,78,79
 1016 729 1016 729 955 729 c 0,80,81
 897 729 897 729 857 768 c 0,82,83
 818 806 818 806 818 866 c 0,84,85
 818 924 818 924 858.5 964.5 c 128,-1,86
 899 1005 899 1005 956 1005 c 0,69,70
956 479 m 0,87,88
 922 479 922 479 898 455 c 0,89,90
 873 430 873 430 873 395 c 128,-1,91
 873 360 873 360 897 337 c 128,-1,92
 921 314 921 314 955 314 c 0,93,94
 990 314 990 314 1015 338 c 128,-1,95
 1040 362 1040 362 1040 396 c 128,-1,96
 1040 430 1040 430 1016 454.5 c 128,-1,97
 992 479 992 479 956 479 c 0,87,88
956 535 m 0,98,99
 981 535 981 535 1010 524 c 0,100,101
 1037 514 1037 514 1055 494 c 0,102,103
 1076 471 1076 471 1085 449 c 0,104,105
 1095 424 1095 424 1095 396 c 0,106,107
 1095 342 1095 342 1054 299 c 0,108,109
 1016 259 1016 259 955 259 c 0,110,111
 897 259 897 259 857 298 c 0,112,113
 818 336 818 336 818 396 c 0,114,115
 818 454 818 454 858.5 494.5 c 128,-1,116
 899 535 899 535 956 535 c 0,98,99
336 1005 m 0,117,118
 364 1005 364 1005 390 994 c 0,119,120
 414 984 414 984 435 963 c 128,-1,121
 456 942 456 942 465 919 c 0,122,123
 475 894 475 894 475 866 c 0,124,125
 475 810 475 810 434 768 c 0,126,127
 396 729 396 729 335 729 c 0,128,129
 277 729 277 729 237 768 c 0,130,131
 198 806 198 806 198 866 c 0,132,133
 198 924 198 924 238.5 964.5 c 128,-1,134
 279 1005 279 1005 336 1005 c 0,117,118
336 535 m 0,135,136
 361 535 361 535 390 524 c 0,137,138
 417 514 417 514 435 494 c 0,139,140
 456 471 456 471 465 449 c 0,141,142
 475 424 475 424 475 396 c 0,143,144
 475 342 475 342 434 299 c 0,145,146
 396 259 396 259 335 259 c 0,147,148
 277 259 277 259 237 298 c 0,149,150
 198 336 198 336 198 396 c 0,151,152
 198 397 198 397 198 399 c 0,153,154
 197.976190476 400.30952381 197.976190476 400.30952381 197.976190476 401.610827664 c 0,155,156
 197.976190476 454.964285714 197.976190476 454.964285714 238 494.5 c 0,157,158
 279 535 279 535 336 535 c 0,135,136
EndSplineSet
Validated: 1
EndChar

StartChar: uni2807
Encoding: 210 10247 209
GlifName: uni2807
Width: 1234
Flags: W
LayerCount: 2
Fore
SplineSet
956 1349 m 0,0,1
 922 1349 922 1349 898 1325 c 0,2,3
 873 1300 873 1300 873 1265 c 128,-1,4
 873 1230 873 1230 897 1207 c 128,-1,5
 921 1184 921 1184 955 1184 c 0,6,7
 990 1184 990 1184 1015 1208 c 128,-1,8
 1040 1232 1040 1232 1040 1266 c 128,-1,9
 1040 1300 1040 1300 1016 1324.5 c 128,-1,10
 992 1349 992 1349 956 1349 c 0,0,1
956 1405 m 0,11,12
 984 1405 984 1405 1010 1394 c 0,13,14
 1034 1384 1034 1384 1055 1363 c 128,-1,15
 1076 1342 1076 1342 1085 1319 c 0,16,17
 1095 1294 1095 1294 1095 1266 c 0,18,19
 1095 1210 1095 1210 1054 1168 c 0,20,21
 1016 1129 1016 1129 955 1129 c 0,22,23
 897 1129 897 1129 857 1168 c 0,24,25
 818 1206 818 1206 818 1266 c 0,26,27
 818 1324 818 1324 858.5 1364.5 c 128,-1,28
 899 1405 899 1405 956 1405 c 0,11,12
956 949 m 0,29,30
 922 949 922 949 898 925 c 0,31,32
 873 900 873 900 873 865 c 128,-1,33
 873 830 873 830 897 807 c 128,-1,34
 921 784 921 784 955 784 c 0,35,36
 990 784 990 784 1015 808 c 128,-1,37
 1040 832 1040 832 1040 866 c 128,-1,38
 1040 900 1040 900 1016 924.5 c 128,-1,39
 992 949 992 949 956 949 c 0,29,30
956 1005 m 0,40,41
 984 1005 984 1005 1010 994 c 0,42,43
 1034 984 1034 984 1055 963 c 128,-1,44
 1076 942 1076 942 1085 919 c 0,45,46
 1095 894 1095 894 1095 866 c 0,47,48
 1095 810 1095 810 1054 768 c 0,49,50
 1016 729 1016 729 955 729 c 0,51,52
 897 729 897 729 857 768 c 0,53,54
 818 806 818 806 818 866 c 0,55,56
 818 924 818 924 858.5 964.5 c 128,-1,57
 899 1005 899 1005 956 1005 c 0,40,41
956 479 m 0,58,59
 922 479 922 479 898 455 c 0,60,61
 873 430 873 430 873 395 c 128,-1,62
 873 360 873 360 897 337 c 128,-1,63
 921 314 921 314 955 314 c 0,64,65
 990 314 990 314 1015 338 c 128,-1,66
 1040 362 1040 362 1040 396 c 128,-1,67
 1040 430 1040 430 1016 454.5 c 128,-1,68
 992 479 992 479 956 479 c 0,58,59
956 535 m 0,69,70
 981 535 981 535 1010 524 c 0,71,72
 1037 514 1037 514 1055 494 c 0,73,74
 1076 471 1076 471 1085 449 c 0,75,76
 1095 424 1095 424 1095 396 c 0,77,78
 1095 342 1095 342 1054 299 c 0,79,80
 1016 259 1016 259 955 259 c 0,81,82
 897 259 897 259 857 298 c 0,83,84
 818 336 818 336 818 396 c 0,85,86
 818 454 818 454 858.5 494.5 c 128,-1,87
 899 535 899 535 956 535 c 0,69,70
336 1405 m 0,88,89
 364 1405 364 1405 390 1394 c 0,90,91
 414 1384 414 1384 435 1363 c 128,-1,92
 456 1342 456 1342 465 1319 c 0,93,94
 475 1294 475 1294 475 1266 c 0,95,96
 475 1210 475 1210 434 1168 c 0,97,98
 396 1129 396 1129 335 1129 c 0,99,100
 277 1129 277 1129 237 1168 c 0,101,102
 198 1206 198 1206 198 1266 c 0,103,104
 198 1324 198 1324 238.5 1364.5 c 128,-1,105
 279 1405 279 1405 336 1405 c 0,88,89
336 1005 m 0,106,107
 364 1005 364 1005 390 994 c 0,108,109
 414 984 414 984 435 963 c 128,-1,110
 456 942 456 942 465 919 c 0,111,112
 475 894 475 894 475 866 c 0,113,114
 475 810 475 810 434 768 c 0,115,116
 396 729 396 729 335 729 c 0,117,118
 277 729 277 729 237 768 c 0,119,120
 198 806 198 806 198 866 c 0,121,122
 198 924 198 924 238.5 964.5 c 128,-1,123
 279 1005 279 1005 336 1005 c 0,106,107
336 535 m 0,124,125
 361 535 361 535 390 524 c 0,126,127
 417 514 417 514 435 494 c 0,128,129
 456 471 456 471 465 449 c 0,130,131
 475 424 475 424 475 396 c 0,132,133
 475 342 475 342 434 299 c 0,134,135
 396 259 396 259 335 259 c 0,136,137
 277 259 277 259 237 298 c 0,138,139
 198 336 198 336 198 396 c 0,140,141
 198 397 198 397 198 399 c 0,142,143
 197.976190476 400.30952381 197.976190476 400.30952381 197.976190476 401.610827664 c 0,144,145
 197.976190476 454.964285714 197.976190476 454.964285714 238 494.5 c 0,146,147
 279 535 279 535 336 535 c 0,124,125
EndSplineSet
Validated: 1
EndChar

StartChar: uni2808
Encoding: 211 10248 210
GlifName: uni2808
Width: 1234
Flags: W
LayerCount: 2
Fore
SplineSet
336 1349 m 0,0,1
 302 1349 302 1349 278 1325 c 0,2,3
 253 1300 253 1300 253 1265 c 128,-1,4
 253 1230 253 1230 277 1207 c 128,-1,5
 301 1184 301 1184 335 1184 c 0,6,7
 370 1184 370 1184 395 1208 c 128,-1,8
 420 1232 420 1232 420 1266 c 128,-1,9
 420 1300 420 1300 396 1324.5 c 128,-1,10
 372 1349 372 1349 336 1349 c 0,0,1
336 1405 m 0,11,12
 364 1405 364 1405 390 1394 c 0,13,14
 414 1384 414 1384 435 1363 c 128,-1,15
 456 1342 456 1342 465 1319 c 0,16,17
 475 1294 475 1294 475 1266 c 0,18,19
 475 1210 475 1210 434 1168 c 0,20,21
 396 1129 396 1129 335 1129 c 0,22,23
 277 1129 277 1129 237 1168 c 0,24,25
 198 1206 198 1206 198 1266 c 0,26,27
 198 1324 198 1324 238.5 1364.5 c 128,-1,28
 279 1405 279 1405 336 1405 c 0,11,12
336 949 m 0,29,30
 302 949 302 949 278 925 c 0,31,32
 253 900 253 900 253 865 c 128,-1,33
 253 830 253 830 277 807 c 128,-1,34
 301 784 301 784 335 784 c 0,35,36
 370 784 370 784 395 808 c 128,-1,37
 420 832 420 832 420 866 c 128,-1,38
 420 900 420 900 396 924.5 c 128,-1,39
 372 949 372 949 336 949 c 0,29,30
336 1005 m 0,40,41
 364 1005 364 1005 390 994 c 0,42,43
 414 984 414 984 435 963 c 128,-1,44
 456 942 456 942 465 919 c 0,45,46
 475 894 475 894 475 866 c 0,47,48
 475 810 475 810 434 768 c 0,49,50
 396 729 396 729 335 729 c 0,51,52
 277 729 277 729 237 768 c 0,53,54
 198 806 198 806 198 866 c 0,55,56
 198 924 198 924 238.5 964.5 c 128,-1,57
 279 1005 279 1005 336 1005 c 0,40,41
956 949 m 0,58,59
 922 949 922 949 898 925 c 0,60,61
 873 900 873 900 873 865 c 128,-1,62
 873 830 873 830 897 807 c 128,-1,63
 921 784 921 784 955 784 c 0,64,65
 990 784 990 784 1015 808 c 128,-1,66
 1040 832 1040 832 1040 866 c 128,-1,67
 1040 900 1040 900 1016 924.5 c 128,-1,68
 992 949 992 949 956 949 c 0,58,59
956 1005 m 0,69,70
 984 1005 984 1005 1010 994 c 0,71,72
 1034 984 1034 984 1055 963 c 128,-1,73
 1076 942 1076 942 1085 919 c 0,74,75
 1095 894 1095 894 1095 866 c 0,76,77
 1095 810 1095 810 1054 768 c 0,78,79
 1016 729 1016 729 955 729 c 0,80,81
 897 729 897 729 857 768 c 0,82,83
 818 806 818 806 818 866 c 0,84,85
 818 924 818 924 858.5 964.5 c 128,-1,86
 899 1005 899 1005 956 1005 c 0,69,70
336 479 m 0,87,88
 302 479 302 479 278 455 c 0,89,90
 253 430 253 430 253 395 c 128,-1,91
 253 360 253 360 277 337 c 128,-1,92
 301 314 301 314 335 314 c 0,93,94
 370 314 370 314 395 338 c 128,-1,95
 420 362 420 362 420 396 c 128,-1,96
 420 430 420 430 396 454.5 c 128,-1,97
 372 479 372 479 336 479 c 0,87,88
336 535 m 0,98,99
 361 535 361 535 390 524 c 0,100,101
 417 514 417 514 435 494 c 0,102,103
 456 471 456 471 465 449 c 0,104,105
 475 424 475 424 475 396 c 0,106,107
 475 342 475 342 434 299 c 0,108,109
 396 259 396 259 335 259 c 0,110,111
 277 259 277 259 237 298 c 0,112,113
 198 336 198 336 198 396 c 0,114,115
 198 454 198 454 238.5 494.5 c 128,-1,116
 279 535 279 535 336 535 c 0,98,99
956 479 m 0,117,118
 922 479 922 479 898 455 c 0,119,120
 873 430 873 430 873 395 c 128,-1,121
 873 360 873 360 897 337 c 128,-1,122
 921 314 921 314 955 314 c 0,123,124
 990 314 990 314 1015 338 c 128,-1,125
 1040 362 1040 362 1040 396 c 128,-1,126
 1040 430 1040 430 1016 454.5 c 128,-1,127
 992 479 992 479 956 479 c 0,117,118
956 535 m 0,128,129
 981 535 981 535 1010 524 c 0,130,131
 1037 514 1037 514 1055 494 c 0,132,133
 1076 471 1076 471 1085 449 c 0,134,135
 1095 424 1095 424 1095 396 c 0,136,137
 1095 342 1095 342 1054 299 c 0,138,139
 1016 259 1016 259 955 259 c 0,140,141
 897 259 897 259 857 298 c 0,142,143
 818 336 818 336 818 396 c 0,144,145
 818 454 818 454 858.5 494.5 c 128,-1,146
 899 535 899 535 956 535 c 0,128,129
956 1405 m 0,147,148
 984 1405 984 1405 1010 1394 c 0,149,150
 1034 1384 1034 1384 1055 1363 c 128,-1,151
 1076 1342 1076 1342 1085 1319 c 0,152,153
 1095 1294 1095 1294 1095 1266 c 0,154,155
 1095 1210 1095 1210 1054 1168 c 0,156,157
 1016 1129 1016 1129 955 1129 c 0,158,159
 897 1129 897 1129 857 1168 c 0,160,161
 818 1206 818 1206 818 1266 c 0,162,163
 818 1267 818 1267 818 1269 c 0,164,165
 817.976190476 1270.30952381 817.976190476 1270.30952381 817.976190476 1271.61082766 c 0,166,167
 817.976190476 1324.96428571 817.976190476 1324.96428571 858 1364.5 c 0,168,169
 899 1405 899 1405 956 1405 c 0,147,148
EndSplineSet
Validated: 1
EndChar

StartChar: uni2809
Encoding: 212 10249 211
GlifName: uni2809
Width: 1234
LayerCount: 2
Fore
SplineSet
336 949 m 0,0,1
 302 949 302 949 278 925 c 0,2,3
 253 900 253 900 253 865 c 128,-1,4
 253 830 253 830 277 807 c 128,-1,5
 301 784 301 784 335 784 c 0,6,7
 370 784 370 784 395 808 c 128,-1,8
 420 832 420 832 420 866 c 0,9,10
 419 900 419 900 395.5 924.5 c 128,-1,11
 372 949 372 949 336 949 c 0,0,1
336 1005 m 0,12,13
 364 1005 364 1005 390 994 c 0,14,15
 414 984 414 984 435 963 c 128,-1,16
 456 942 456 942 465 919 c 0,17,18
 475 894 475 894 475 866 c 0,19,20
 475 809 475 809 434 768 c 0,21,22
 396 730 396 730 335 729 c 0,23,24
 333.585365854 728.975609756 333.585365854 728.975609756 332.181439619 728.975609756 c 0,25,26
 276.024390244 728.975609756 276.024390244 728.975609756 237 768 c 128,-1,27
 198 807 198 807 198 866 c 0,28,29
 197.976190476 867.380952381 197.976190476 867.380952381 197.976190476 868.751984127 c 0,30,31
 197.976190476 924.964285714 197.976190476 924.964285714 238 964.5 c 0,32,33
 279 1005 279 1005 336 1005 c 0,12,13
956 949 m 0,34,35
 922 949 922 949 898 925 c 0,36,37
 873 900 873 900 873 865 c 128,-1,38
 873 830 873 830 897 807 c 128,-1,39
 921 784 921 784 955 784 c 0,40,41
 990 784 990 784 1015 808 c 128,-1,42
 1040 832 1040 832 1040 866 c 0,43,44
 1039 900 1039 900 1015.5 924.5 c 128,-1,45
 992 949 992 949 956 949 c 0,34,35
956 1005 m 0,46,47
 984 1005 984 1005 1010 994 c 0,48,49
 1034 984 1034 984 1055 963 c 128,-1,50
 1076 942 1076 942 1085 919 c 0,51,52
 1095 894 1095 894 1095 866 c 0,53,54
 1095 809 1095 809 1054 768 c 0,55,56
 1016 730 1016 730 955 729 c 0,57,58
 953.585365854 728.975609756 953.585365854 728.975609756 952.181439619 728.975609756 c 0,59,60
 896.024390244 728.975609756 896.024390244 728.975609756 857 768 c 128,-1,61
 818 807 818 807 818 866 c 0,62,63
 817.976190476 867.380952381 817.976190476 867.380952381 817.976190476 868.751984127 c 0,64,65
 817.976190476 924.964285714 817.976190476 924.964285714 858 964.5 c 0,66,67
 899 1005 899 1005 956 1005 c 0,46,47
336 479 m 0,68,69
 302 479 302 479 278 455 c 0,70,71
 253 430 253 430 253 395 c 128,-1,72
 253 360 253 360 277 337 c 128,-1,73
 301 314 301 314 335 314 c 0,74,75
 370 314 370 314 395 338 c 128,-1,76
 420 362 420 362 420 396 c 0,77,78
 419 430 419 430 395.5 454.5 c 128,-1,79
 372 479 372 479 336 479 c 0,68,69
336 535 m 0,80,81
 361 535 361 535 390 524 c 0,82,83
 417 514 417 514 435 494 c 0,84,85
 456 471 456 471 465 449 c 0,86,87
 475 424 475 424 475 396 c 0,88,89
 475 341 475 341 434 299 c 0,90,91
 396 260 396 260 335 259 c 0,92,93
 333.585365854 258.975609756 333.585365854 258.975609756 332.181439619 258.975609756 c 0,94,95
 276.024390244 258.975609756 276.024390244 258.975609756 237 298 c 128,-1,96
 198 337 198 337 198 396 c 0,97,98
 197.976190476 397.380952381 197.976190476 397.380952381 197.976190476 398.751984127 c 0,99,100
 197.976190476 454.964285714 197.976190476 454.964285714 238 494.5 c 0,101,102
 279 535 279 535 336 535 c 0,80,81
956 479 m 0,103,104
 922 479 922 479 898 455 c 0,105,106
 873 430 873 430 873 395 c 128,-1,107
 873 360 873 360 897 337 c 128,-1,108
 921 314 921 314 955 314 c 0,109,110
 990 314 990 314 1015 338 c 128,-1,111
 1040 362 1040 362 1040 396 c 0,112,113
 1039 430 1039 430 1015.5 454.5 c 128,-1,114
 992 479 992 479 956 479 c 0,103,104
956 535 m 0,115,116
 981 535 981 535 1010 524 c 0,117,118
 1037 514 1037 514 1055 494 c 0,119,120
 1076 471 1076 471 1085 449 c 0,121,122
 1095 424 1095 424 1095 396 c 0,123,124
 1095 341 1095 341 1054 299 c 0,125,126
 1016 260 1016 260 955 259 c 0,127,128
 953.585365854 258.975609756 953.585365854 258.975609756 952.181439619 258.975609756 c 0,129,130
 896.024390244 258.975609756 896.024390244 258.975609756 857 298 c 128,-1,131
 818 337 818 337 818 396 c 0,132,133
 817.976190476 397.380952381 817.976190476 397.380952381 817.976190476 398.751984127 c 0,134,135
 817.976190476 454.964285714 817.976190476 454.964285714 858 494.5 c 0,136,137
 899 535 899 535 956 535 c 0,115,116
336 1405 m 0,138,139
 364 1405 364 1405 390 1394 c 0,140,141
 414 1384 414 1384 435 1363 c 128,-1,142
 456 1342 456 1342 465 1319 c 0,143,144
 475 1294 475 1294 475 1266 c 0,145,146
 475 1209 475 1209 434 1168 c 0,147,148
 396 1130 396 1130 335 1129 c 0,149,150
 333.585365854 1128.97560976 333.585365854 1128.97560976 332.181439619 1128.97560976 c 0,151,152
 276.024390244 1128.97560976 276.024390244 1128.97560976 237 1168 c 128,-1,153
 198 1207 198 1207 198 1266 c 0,154,155
 197.976190476 1267.38095238 197.976190476 1267.38095238 197.976190476 1268.75198413 c 0,156,157
 197.976190476 1324.96428571 197.976190476 1324.96428571 238 1364.5 c 0,158,159
 279 1405 279 1405 336 1405 c 0,138,139
956 1405 m 0,160,161
 984 1405 984 1405 1010 1394 c 0,162,163
 1034 1384 1034 1384 1055 1363 c 128,-1,164
 1076 1342 1076 1342 1085 1319 c 0,165,166
 1095 1294 1095 1294 1095 1266 c 0,167,168
 1095 1209 1095 1209 1054 1168 c 0,169,170
 1016 1130 1016 1130 955 1129 c 0,171,172
 953.585365854 1128.97560976 953.585365854 1128.97560976 952.181439619 1128.97560976 c 0,173,174
 896.024390244 1128.97560976 896.024390244 1128.97560976 857 1168 c 128,-1,175
 818 1207 818 1207 818 1266 c 0,176,177
 817.976190476 1267.38095238 817.976190476 1267.38095238 817.976190476 1268.75198413 c 0,178,179
 817.976190476 1324.96428571 817.976190476 1324.96428571 858 1364.5 c 0,180,181
 899 1405 899 1405 956 1405 c 0,160,161
EndSplineSet
Validated: 1
EndChar

StartChar: uni280A
Encoding: 213 10250 212
GlifName: uni280A_
Width: 1234
LayerCount: 2
Fore
SplineSet
956 1405 m 0,0,1
 984 1405 984 1405 1010 1394 c 0,2,3
 1034 1384 1034 1384 1055 1363 c 128,-1,4
 1076 1342 1076 1342 1085 1319 c 0,5,6
 1095 1294 1095 1294 1095 1266 c 0,7,8
 1095 1209 1095 1209 1054 1168 c 0,9,10
 1015 1129 1015 1129 955 1129 c 0,11,12
 954 1129 954 1129 952 1129 c 128,-1,13
 950 1129 950 1129 949 1129 c 128,-1,14
 948 1129 948 1129 946 1129 c 0,15,16
 944.804878049 1128.97560976 944.804878049 1128.97560976 943.615110054 1128.97560976 c 0,17,18
 896.024390244 1128.97560976 896.024390244 1128.97560976 857 1168 c 128,-1,19
 818 1207 818 1207 818 1266 c 0,20,21
 818 1268 818 1268 818 1269 c 0,22,23
 818 1272 818 1272 818 1272 c 0,24,25
 818 1273 818 1273 818 1274 c 128,-1,26
 817.976190476 1275.19047619 817.976190476 1275.19047619 817.976190476 1276.37556689 c 0,27,28
 817.976190476 1324.96428571 817.976190476 1324.96428571 858 1364.5 c 0,29,30
 899 1405 899 1405 956 1405 c 0,0,1
956 535 m 0,31,32
 981 535 981 535 1010 524 c 0,33,34
 1037 514 1037 514 1055 494 c 0,35,36
 1076 471 1076 471 1085 449 c 0,37,38
 1095 424 1095 424 1095 396 c 0,39,40
 1095 341 1095 341 1054 299 c 0,41,42
 1015 259 1015 259 955 259 c 0,43,44
 954 259 954 259 952 259 c 128,-1,45
 950 259 950 259 949 259 c 128,-1,46
 948 259 948 259 946 259 c 0,47,48
 944.804878049 258.975609756 944.804878049 258.975609756 943.615110054 258.975609756 c 0,49,50
 896.024390244 258.975609756 896.024390244 258.975609756 857 298 c 128,-1,51
 818 337 818 337 818 396 c 0,52,53
 818 398 818 398 818 399 c 0,54,55
 818 402 818 402 818 402 c 0,56,57
 818 403 818 403 818 404 c 128,-1,58
 817.976190476 405.19047619 817.976190476 405.19047619 817.976190476 406.375566893 c 0,59,60
 817.976190476 454.964285714 817.976190476 454.964285714 858 494.5 c 0,61,62
 899 535 899 535 956 535 c 0,31,32
956 479 m 0,63,64
 922 479 922 479 898 455 c 0,65,66
 873 430 873 430 873 395 c 128,-1,67
 873 360 873 360 897 337 c 128,-1,68
 921 314 921 314 955 314 c 0,69,70
 990 314 990 314 1015 338 c 128,-1,71
 1040 362 1040 362 1040 396 c 0,72,73
 1039 430 1039 430 1015.5 454.5 c 128,-1,74
 992 479 992 479 956 479 c 0,63,64
336 535 m 0,75,76
 361 535 361 535 390 524 c 0,77,78
 417 514 417 514 435 494 c 0,79,80
 456 471 456 471 465 449 c 0,81,82
 475 424 475 424 475 396 c 0,83,84
 475 341 475 341 434 299 c 0,85,86
 395 259 395 259 335 259 c 0,87,88
 334 259 334 259 332 259 c 128,-1,89
 330 259 330 259 329 259 c 128,-1,90
 328 259 328 259 326 259 c 0,91,92
 324.804878049 258.975609756 324.804878049 258.975609756 323.615110054 258.975609756 c 0,93,94
 276.024390244 258.975609756 276.024390244 258.975609756 237 298 c 128,-1,95
 198 337 198 337 198 396 c 0,96,97
 198 398 198 398 198 399 c 0,98,99
 198 402 198 402 198 402 c 0,100,101
 198 403 198 403 198 404 c 128,-1,102
 197.976190476 405.19047619 197.976190476 405.19047619 197.976190476 406.375566893 c 0,103,104
 197.976190476 454.964285714 197.976190476 454.964285714 238 494.5 c 0,105,106
 279 535 279 535 336 535 c 0,75,76
336 479 m 0,107,108
 302 479 302 479 278 455 c 0,109,110
 253 430 253 430 253 395 c 128,-1,111
 253 360 253 360 277 337 c 128,-1,112
 301 314 301 314 335 314 c 0,113,114
 370 314 370 314 395 338 c 128,-1,115
 420 362 420 362 420 396 c 0,116,117
 419 430 419 430 395.5 454.5 c 128,-1,118
 372 479 372 479 336 479 c 0,107,108
956 1005 m 0,119,120
 984 1005 984 1005 1010 994 c 0,121,122
 1034 984 1034 984 1055 963 c 128,-1,123
 1076 942 1076 942 1085 919 c 0,124,125
 1095 894 1095 894 1095 866 c 0,126,127
 1095 809 1095 809 1054 768 c 0,128,129
 1015 729 1015 729 955 729 c 0,130,131
 954 729 954 729 952 729 c 128,-1,132
 950 729 950 729 949 729 c 128,-1,133
 948 729 948 729 946 729 c 0,134,135
 944.804878049 728.975609756 944.804878049 728.975609756 943.615110054 728.975609756 c 0,136,137
 896.024390244 728.975609756 896.024390244 728.975609756 857 768 c 128,-1,138
 818 807 818 807 818 866 c 0,139,140
 818 868 818 868 818 869 c 0,141,142
 818 872 818 872 818 872 c 0,143,144
 818 873 818 873 818 874 c 128,-1,145
 817.976190476 875.19047619 817.976190476 875.19047619 817.976190476 876.375566893 c 0,146,147
 817.976190476 924.964285714 817.976190476 924.964285714 858 964.5 c 0,148,149
 899 1005 899 1005 956 1005 c 0,119,120
956 949 m 0,150,151
 922 949 922 949 898 925 c 0,152,153
 873 900 873 900 873 865 c 128,-1,154
 873 830 873 830 897 807 c 128,-1,155
 921 784 921 784 955 784 c 0,156,157
 990 784 990 784 1015 808 c 128,-1,158
 1040 832 1040 832 1040 866 c 0,159,160
 1039 900 1039 900 1015.5 924.5 c 128,-1,161
 992 949 992 949 956 949 c 0,150,151
336 1405 m 0,162,163
 364 1405 364 1405 390 1394 c 0,164,165
 414 1384 414 1384 435 1363 c 128,-1,166
 456 1342 456 1342 465 1319 c 0,167,168
 475 1294 475 1294 475 1266 c 0,169,170
 475 1209 475 1209 434 1168 c 0,171,172
 395 1129 395 1129 335 1129 c 0,173,174
 334 1129 334 1129 332 1129 c 128,-1,175
 330 1129 330 1129 329 1129 c 128,-1,176
 328 1129 328 1129 326 1129 c 0,177,178
 324.804878049 1128.97560976 324.804878049 1128.97560976 323.615110054 1128.97560976 c 0,179,180
 276.024390244 1128.97560976 276.024390244 1128.97560976 237 1168 c 128,-1,181
 198 1207 198 1207 198 1266 c 0,182,183
 198 1268 198 1268 198 1269 c 0,184,185
 198 1272 198 1272 198 1272 c 0,186,187
 198 1273 198 1273 198 1274 c 128,-1,188
 197.976190476 1275.19047619 197.976190476 1275.19047619 197.976190476 1276.37556689 c 0,189,190
 197.976190476 1324.96428571 197.976190476 1324.96428571 238 1364.5 c 0,191,192
 279 1405 279 1405 336 1405 c 0,162,163
336 1349 m 0,193,194
 302 1349 302 1349 278 1325 c 0,195,196
 253 1300 253 1300 253 1265 c 128,-1,197
 253 1230 253 1230 277 1207 c 128,-1,198
 301 1184 301 1184 335 1184 c 0,199,200
 370 1184 370 1184 395 1208 c 128,-1,201
 420 1232 420 1232 420 1266 c 0,202,203
 419 1300 419 1300 395.5 1324.5 c 128,-1,204
 372 1349 372 1349 336 1349 c 0,193,194
336 1005 m 0,205,206
 364 1005 364 1005 390 994 c 0,207,208
 414 984 414 984 435 963 c 128,-1,209
 456 942 456 942 465 919 c 0,210,211
 475 894 475 894 475 866 c 0,212,213
 475 809 475 809 434 768 c 0,214,215
 395 729 395 729 335 729 c 0,216,217
 334 729 334 729 332 729 c 128,-1,218
 330 729 330 729 329 729 c 128,-1,219
 328 729 328 729 326 729 c 0,220,221
 324.804878049 728.975609756 324.804878049 728.975609756 323.615110054 728.975609756 c 0,222,223
 276.024390244 728.975609756 276.024390244 728.975609756 237 768 c 128,-1,224
 198 807 198 807 198 866 c 0,225,226
 198 868 198 868 198 869 c 0,227,228
 198 872 198 872 198 872 c 0,229,230
 198 873 198 873 198 874 c 128,-1,231
 197.976190476 875.19047619 197.976190476 875.19047619 197.976190476 876.375566893 c 0,232,233
 197.976190476 924.964285714 197.976190476 924.964285714 238 964.5 c 0,234,235
 279 1005 279 1005 336 1005 c 0,205,206
EndSplineSet
Validated: 1
EndChar

StartChar: uni280B
Encoding: 214 10251 213
GlifName: uni280B_
Width: 1234
LayerCount: 2
Fore
SplineSet
336 1005 m 0,0,1
 364 1005 364 1005 390 994 c 0,2,3
 414 984 414 984 435 963 c 128,-1,4
 456 942 456 942 465 919 c 0,5,6
 475 894 475 894 475 866 c 0,7,8
 475 809 475 809 434 768 c 0,9,10
 395 729 395 729 335 729 c 0,11,12
 334 729 334 729 332 729 c 0,13,14
 330.658536585 728.975609756 330.658536585 728.975609756 329.325996431 728.975609756 c 0,15,16
 276.024390244 728.975609756 276.024390244 728.975609756 237 768 c 128,-1,17
 198 807 198 807 198 866 c 0,18,19
 198 867 198 867 198 869 c 0,20,21
 197.976190476 870.30952381 197.976190476 870.30952381 197.976190476 871.610827664 c 0,22,23
 197.976190476 924.964285714 197.976190476 924.964285714 238 964.5 c 0,24,25
 279 1005 279 1005 336 1005 c 0,0,1
336 1405 m 0,26,27
 364 1405 364 1405 390 1394 c 0,28,29
 414 1384 414 1384 435 1363 c 128,-1,30
 456 1342 456 1342 465 1319 c 0,31,32
 475 1294 475 1294 475 1266 c 0,33,34
 475 1209 475 1209 434 1168 c 0,35,36
 395 1129 395 1129 335 1129 c 0,37,38
 334 1129 334 1129 332 1129 c 0,39,40
 330.658536585 1128.97560976 330.658536585 1128.97560976 329.325996431 1128.97560976 c 0,41,42
 276.024390244 1128.97560976 276.024390244 1128.97560976 237 1168 c 128,-1,43
 198 1207 198 1207 198 1266 c 0,44,45
 198 1267 198 1267 198 1269 c 0,46,47
 197.976190476 1270.30952381 197.976190476 1270.30952381 197.976190476 1271.61082766 c 0,48,49
 197.976190476 1324.96428571 197.976190476 1324.96428571 238 1364.5 c 0,50,51
 279 1405 279 1405 336 1405 c 0,26,27
956 535 m 0,52,53
 981 535 981 535 1010 524 c 0,54,55
 1037 514 1037 514 1055 494 c 0,56,57
 1076 471 1076 471 1085 449 c 0,58,59
 1095 424 1095 424 1095 396 c 0,60,61
 1095 341 1095 341 1054 299 c 0,62,63
 1015 259 1015 259 955 259 c 0,64,65
 954 259 954 259 952 259 c 0,66,67
 950.658536585 258.975609756 950.658536585 258.975609756 949.325996431 258.975609756 c 0,68,69
 896.024390244 258.975609756 896.024390244 258.975609756 857 298 c 128,-1,70
 818 337 818 337 818 396 c 0,71,72
 818 397 818 397 818 399 c 0,73,74
 817.976190476 400.30952381 817.976190476 400.30952381 817.976190476 401.610827664 c 0,75,76
 817.976190476 454.964285714 817.976190476 454.964285714 858 494.5 c 0,77,78
 899 535 899 535 956 535 c 0,52,53
956 479 m 0,79,80
 922 479 922 479 898 455 c 0,81,82
 873 430 873 430 873 395 c 128,-1,83
 873 360 873 360 897 337 c 128,-1,84
 921 314 921 314 955 314 c 0,85,86
 990 314 990 314 1015 338 c 128,-1,87
 1040 362 1040 362 1040 396 c 0,88,89
 1039 430 1039 430 1015.5 454.5 c 128,-1,90
 992 479 992 479 956 479 c 0,79,80
336 535 m 0,91,92
 361 535 361 535 390 524 c 0,93,94
 417 514 417 514 435 494 c 0,95,96
 456 471 456 471 465 449 c 0,97,98
 475 424 475 424 475 396 c 0,99,100
 475 341 475 341 434 299 c 0,101,102
 395 259 395 259 335 259 c 0,103,104
 334 259 334 259 332 259 c 0,105,106
 330.658536585 258.975609756 330.658536585 258.975609756 329.325996431 258.975609756 c 0,107,108
 276.024390244 258.975609756 276.024390244 258.975609756 237 298 c 128,-1,109
 198 337 198 337 198 396 c 0,110,111
 198 397 198 397 198 399 c 0,112,113
 197.976190476 400.30952381 197.976190476 400.30952381 197.976190476 401.610827664 c 0,114,115
 197.976190476 454.964285714 197.976190476 454.964285714 238 494.5 c 0,116,117
 279 535 279 535 336 535 c 0,91,92
336 479 m 0,118,119
 302 479 302 479 278 455 c 0,120,121
 253 430 253 430 253 395 c 128,-1,122
 253 360 253 360 277 337 c 128,-1,123
 301 314 301 314 335 314 c 0,124,125
 370 314 370 314 395 338 c 128,-1,126
 420 362 420 362 420 396 c 0,127,128
 419 430 419 430 395.5 454.5 c 128,-1,129
 372 479 372 479 336 479 c 0,118,119
956 1005 m 0,130,131
 984 1005 984 1005 1010 994 c 0,132,133
 1034 984 1034 984 1055 963 c 128,-1,134
 1076 942 1076 942 1085 919 c 0,135,136
 1095 894 1095 894 1095 866 c 0,137,138
 1095 809 1095 809 1054 768 c 0,139,140
 1015 729 1015 729 955 729 c 0,141,142
 954 729 954 729 952 729 c 0,143,144
 950.658536585 728.975609756 950.658536585 728.975609756 949.325996431 728.975609756 c 0,145,146
 896.024390244 728.975609756 896.024390244 728.975609756 857 768 c 128,-1,147
 818 807 818 807 818 866 c 0,148,149
 818 867 818 867 818 869 c 0,150,151
 817.976190476 870.30952381 817.976190476 870.30952381 817.976190476 871.610827664 c 0,152,153
 817.976190476 924.964285714 817.976190476 924.964285714 858 964.5 c 0,154,155
 899 1005 899 1005 956 1005 c 0,130,131
956 949 m 0,156,157
 922 949 922 949 898 925 c 0,158,159
 873 900 873 900 873 865 c 128,-1,160
 873 830 873 830 897 807 c 128,-1,161
 921 784 921 784 955 784 c 0,162,163
 990 784 990 784 1015 808 c 128,-1,164
 1040 832 1040 832 1040 866 c 0,165,166
 1039 900 1039 900 1015.5 924.5 c 128,-1,167
 992 949 992 949 956 949 c 0,156,157
956 1405 m 0,168,169
 984 1405 984 1405 1010 1394 c 0,170,171
 1034 1384 1034 1384 1055 1363 c 128,-1,172
 1076 1342 1076 1342 1085 1319 c 0,173,174
 1095 1294 1095 1294 1095 1266 c 0,175,176
 1095 1209 1095 1209 1054 1168 c 0,177,178
 1015 1129 1015 1129 955 1129 c 0,179,180
 954 1129 954 1129 952 1129 c 0,181,182
 950.658536585 1128.97560976 950.658536585 1128.97560976 949.325996431 1128.97560976 c 0,183,184
 896.024390244 1128.97560976 896.024390244 1128.97560976 857 1168 c 128,-1,185
 818 1207 818 1207 818 1266 c 0,186,187
 818 1267 818 1267 818 1269 c 0,188,189
 817.976190476 1270.30952381 817.976190476 1270.30952381 817.976190476 1271.61082766 c 0,190,191
 817.976190476 1324.96428571 817.976190476 1324.96428571 858 1364.5 c 0,192,193
 899 1405 899 1405 956 1405 c 0,168,169
EndSplineSet
Validated: 1
EndChar

StartChar: uni280C
Encoding: 215 10252 214
GlifName: uni280C_
Width: 1234
LayerCount: 2
Fore
SplineSet
956.133 1404.8 m 0,0,1
 984.5441 1404.8 984.5441 1404.8 1010.1144 1394.1486 c 128,-1,2
 1035.6847 1383.4963 1035.6847 1383.4963 1054.9171 1363.4972 c 0,3,4
 1074.587 1343.9327 1074.587 1343.9327 1084.8585 1319.1495 c 128,-1,5
 1095.13 1294.3673 1095.13 1294.3673 1095.13 1265.6729 c 0,6,7
 1095.13 1208.2823 1095.13 1208.2823 1054.4806 1168.5 c 128,-1,8
 1013.8302 1128.7178 1013.8302 1128.7178 955.2579 1128.7178 c 0,9,10
 896.2501 1128.7178 896.2501 1128.7178 856.9102 1167.8477 c 128,-1,11
 817.5713 1206.9776 817.5713 1206.9776 817.5713 1265.6729 c 0,12,13
 817.5713 1323.9317 817.5713 1323.9317 857.7852 1364.3663 c 128,-1,14
 897.9981 1404.8 897.9981 1404.8 956.133 1404.8 c 0,0,1
956.133 534.805 m 0,15,16
 984.5441 534.805 984.5441 534.805 1010.1144 524.1536 c 128,-1,17
 1035.6847 513.5013 1035.6847 513.5013 1054.9171 493.5022 c 0,18,19
 1074.587 473.9377 1074.587 473.9377 1084.8585 449.1545 c 128,-1,20
 1095.13 424.3723 1095.13 424.3723 1095.13 395.6779 c 0,21,22
 1095.13 338.2873 1095.13 338.2873 1054.4806 298.505 c 128,-1,23
 1013.8302 258.7228 1013.8302 258.7228 955.2579 258.7228 c 0,24,25
 896.2501 258.7228 896.2501 258.7228 856.9102 297.8527 c 128,-1,26
 817.5713 336.9826 817.5713 336.9826 817.5713 395.6779 c 0,27,28
 817.5713 453.9367 817.5713 453.9367 857.7852 494.3713 c 128,-1,29
 897.9981 534.805 897.9981 534.805 956.133 534.805 c 0,15,16
956.133 478.719 m 128,-1,31
 921.6018 478.719 921.6018 478.719 897.343 454.5891 c 128,-1,32
 873.0842 430.4602 873.0842 430.4602 873.0842 395.678 c 128,-1,33
 873.0842 360.8948 873.0842 360.8948 896.9065 337.4173 c 128,-1,34
 920.7278 313.9398 920.7278 313.9398 955.2581 313.9398 c 0,35,36
 990.2269 313.9398 990.2269 313.9398 1014.9222 337.8519 c 128,-1,37
 1039.6185 361.765 1039.6185 361.765 1039.6185 395.6781 c 0,38,39
 1039.6185 430.0248 1039.6185 430.0248 1015.1419 454.3724 c 128,-1,30
 990.6634 478.719 990.6634 478.719 956.133 478.719 c 128,-1,31
956.133 1004.8 m 0,40,41
 984.5441 1004.8 984.5441 1004.8 1010.1144 994.1486 c 128,-1,42
 1035.6847 983.4963 1035.6847 983.4963 1054.9171 963.4972 c 0,43,44
 1074.587 943.9327 1074.587 943.9327 1084.8585 919.1495 c 128,-1,45
 1095.13 894.3673 1095.13 894.3673 1095.13 865.6729 c 0,46,47
 1095.13 808.2823 1095.13 808.2823 1054.4806 768.5 c 128,-1,48
 1013.8302 728.7178 1013.8302 728.7178 955.2579 728.7178 c 0,49,50
 896.2501 728.7178 896.2501 728.7178 856.9102 767.8477 c 128,-1,51
 817.5713 806.9776 817.5713 806.9776 817.5713 865.6729 c 0,52,53
 817.5713 923.9317 817.5713 923.9317 857.7852 964.3663 c 128,-1,54
 897.9981 1004.8 897.9981 1004.8 956.133 1004.8 c 0,40,41
956.133 948.719 m 128,-1,56
 921.6018 948.719 921.6018 948.719 897.343 924.5891 c 128,-1,57
 873.0842 900.4602 873.0842 900.4602 873.0842 865.678 c 128,-1,58
 873.0842 830.8948 873.0842 830.8948 896.9065 807.4173 c 128,-1,59
 920.7278 783.9398 920.7278 783.9398 955.2581 783.9398 c 0,60,61
 990.2269 783.9398 990.2269 783.9398 1014.9222 807.8519 c 128,-1,62
 1039.6185 831.765 1039.6185 831.765 1039.6185 865.6781 c 0,63,64
 1039.6185 900.0248 1039.6185 900.0248 1015.1419 924.3724 c 128,-1,55
 990.6634 948.719 990.6634 948.719 956.133 948.719 c 128,-1,56
336.133 1004.8 m 0,65,66
 364.5441 1004.8 364.5441 1004.8 390.1144 994.1486 c 128,-1,67
 415.6847 983.4963 415.6847 983.4963 434.9171 963.4972 c 0,68,69
 454.587 943.9327 454.587 943.9327 464.8585 919.1495 c 128,-1,70
 475.13 894.3673 475.13 894.3673 475.13 865.6729 c 0,71,72
 475.13 808.2823 475.13 808.2823 434.4806 768.5 c 128,-1,73
 393.8302 728.7178 393.8302 728.7178 335.2579 728.7178 c 0,74,75
 276.2501 728.7178 276.2501 728.7178 236.9102 767.8477 c 128,-1,76
 197.5713 806.9776 197.5713 806.9776 197.5713 865.6729 c 0,77,78
 197.5713 923.9317 197.5713 923.9317 237.7852 964.3663 c 128,-1,79
 277.9981 1004.8 277.9981 1004.8 336.133 1004.8 c 0,65,66
336.133 948.719 m 128,-1,81
 301.6018 948.719 301.6018 948.719 277.343 924.5891 c 128,-1,82
 253.0842 900.4602 253.0842 900.4602 253.0842 865.678 c 128,-1,83
 253.0842 830.8948 253.0842 830.8948 276.9065 807.4173 c 128,-1,84
 300.7278 783.9398 300.7278 783.9398 335.2581 783.9398 c 0,85,86
 370.2269 783.9398 370.2269 783.9398 394.9222 807.8519 c 128,-1,87
 419.6185 831.765 419.6185 831.765 419.6185 865.6781 c 0,88,89
 419.6185 900.0248 419.6185 900.0248 395.1419 924.3724 c 128,-1,80
 370.6634 948.719 370.6634 948.719 336.133 948.719 c 128,-1,81
336.133 1404.8 m 0,90,91
 364.5441 1404.8 364.5441 1404.8 390.1144 1394.1486 c 128,-1,92
 415.6847 1383.4963 415.6847 1383.4963 434.9171 1363.4972 c 0,93,94
 454.587 1343.9327 454.587 1343.9327 464.8585 1319.1495 c 128,-1,95
 475.13 1294.3673 475.13 1294.3673 475.13 1265.6729 c 0,96,97
 475.13 1208.2823 475.13 1208.2823 434.4806 1168.5 c 128,-1,98
 393.8302 1128.7178 393.8302 1128.7178 335.2579 1128.7178 c 0,99,100
 276.2501 1128.7178 276.2501 1128.7178 236.9102 1167.8477 c 128,-1,101
 197.5713 1206.9776 197.5713 1206.9776 197.5713 1265.6729 c 0,102,103
 197.5713 1323.9317 197.5713 1323.9317 237.7852 1364.3663 c 128,-1,104
 277.9981 1404.8 277.9981 1404.8 336.133 1404.8 c 0,90,91
336.133 1348.72 m 128,-1,106
 301.6018 1348.72 301.6018 1348.72 277.343 1324.5901 c 128,-1,107
 253.0842 1300.4612 253.0842 1300.4612 253.0842 1265.679 c 128,-1,108
 253.0842 1230.8958 253.0842 1230.8958 276.9065 1207.4183 c 128,-1,109
 300.7278 1183.9408 300.7278 1183.9408 335.2581 1183.9408 c 0,110,111
 370.2269 1183.9408 370.2269 1183.9408 394.9222 1207.8529 c 128,-1,112
 419.6185 1231.766 419.6185 1231.766 419.6185 1265.6791 c 0,113,114
 419.6185 1300.0258 419.6185 1300.0258 395.1419 1324.3734 c 128,-1,105
 370.6634 1348.72 370.6634 1348.72 336.133 1348.72 c 128,-1,106
336.133 534.805 m 0,115,116
 364.5441 534.805 364.5441 534.805 390.1144 524.1536 c 128,-1,117
 415.6847 513.5013 415.6847 513.5013 434.9171 493.5022 c 0,118,119
 454.587 473.9377 454.587 473.9377 464.8585 449.1545 c 128,-1,120
 475.13 424.3723 475.13 424.3723 475.13 395.6779 c 0,121,122
 475.13 338.2873 475.13 338.2873 434.4806 298.505 c 128,-1,123
 393.8302 258.7228 393.8302 258.7228 335.2579 258.7228 c 0,124,125
 276.2501 258.7228 276.2501 258.7228 236.9102 297.8527 c 128,-1,126
 197.5713 336.9826 197.5713 336.9826 197.5713 395.6779 c 0,127,128
 197.5713 453.9367 197.5713 453.9367 237.7852 494.3713 c 128,-1,129
 277.9981 534.805 277.9981 534.805 336.133 534.805 c 0,115,116
EndSplineSet
Validated: 1
EndChar

StartChar: uni280D
Encoding: 216 10253 215
GlifName: uni280D_
Width: 1234
LayerCount: 2
Fore
SplineSet
956.133 1404.8 m 0,0,1
 984.5441 1404.8 984.5441 1404.8 1010.1144 1394.1486 c 128,-1,2
 1035.6847 1383.4963 1035.6847 1383.4963 1054.9171 1363.4972 c 0,3,4
 1074.587 1343.9327 1074.587 1343.9327 1084.8585 1319.1495 c 128,-1,5
 1095.13 1294.3673 1095.13 1294.3673 1095.13 1265.6729 c 0,6,7
 1095.13 1208.2823 1095.13 1208.2823 1054.4806 1168.5 c 128,-1,8
 1013.8302 1128.7178 1013.8302 1128.7178 955.2579 1128.7178 c 0,9,10
 896.2501 1128.7178 896.2501 1128.7178 856.9102 1167.8477 c 128,-1,11
 817.5713 1206.9776 817.5713 1206.9776 817.5713 1265.6729 c 0,12,13
 817.5713 1323.9317 817.5713 1323.9317 857.7852 1364.3663 c 128,-1,14
 897.9981 1404.8 897.9981 1404.8 956.133 1404.8 c 0,0,1
336.133 1404.8 m 0,15,16
 364.5441 1404.8 364.5441 1404.8 390.1144 1394.1486 c 128,-1,17
 415.6847 1383.4963 415.6847 1383.4963 434.9171 1363.4972 c 0,18,19
 454.587 1343.9327 454.587 1343.9327 464.8585 1319.1495 c 128,-1,20
 475.13 1294.3673 475.13 1294.3673 475.13 1265.6729 c 0,21,22
 475.13 1208.2823 475.13 1208.2823 434.4806 1168.5 c 128,-1,23
 393.8302 1128.7178 393.8302 1128.7178 335.2579 1128.7178 c 0,24,25
 276.2501 1128.7178 276.2501 1128.7178 236.9102 1167.8477 c 128,-1,26
 197.5713 1206.9776 197.5713 1206.9776 197.5713 1265.6729 c 0,27,28
 197.5713 1323.9317 197.5713 1323.9317 237.7852 1364.3663 c 128,-1,29
 277.9981 1404.8 277.9981 1404.8 336.133 1404.8 c 0,15,16
956.133 534.805 m 0,30,31
 984.5441 534.805 984.5441 534.805 1010.1144 524.1536 c 128,-1,32
 1035.6847 513.5013 1035.6847 513.5013 1054.9171 493.5022 c 0,33,34
 1074.587 473.9377 1074.587 473.9377 1084.8585 449.1545 c 128,-1,35
 1095.13 424.3723 1095.13 424.3723 1095.13 395.6779 c 0,36,37
 1095.13 338.2873 1095.13 338.2873 1054.4806 298.505 c 128,-1,38
 1013.8302 258.7228 1013.8302 258.7228 955.2579 258.7228 c 0,39,40
 896.2501 258.7228 896.2501 258.7228 856.9102 297.8527 c 128,-1,41
 817.5713 336.9826 817.5713 336.9826 817.5713 395.6779 c 0,42,43
 817.5713 453.9367 817.5713 453.9367 857.7852 494.3713 c 128,-1,44
 897.9981 534.805 897.9981 534.805 956.133 534.805 c 0,30,31
956.133 478.719 m 128,-1,46
 921.6018 478.719 921.6018 478.719 897.343 454.5891 c 128,-1,47
 873.0842 430.4602 873.0842 430.4602 873.0842 395.678 c 128,-1,48
 873.0842 360.8948 873.0842 360.8948 896.9065 337.4173 c 128,-1,49
 920.7278 313.9398 920.7278 313.9398 955.2581 313.9398 c 0,50,51
 990.2269 313.9398 990.2269 313.9398 1014.9222 337.8519 c 128,-1,52
 1039.6185 361.765 1039.6185 361.765 1039.6185 395.6781 c 0,53,54
 1039.6185 430.0248 1039.6185 430.0248 1015.1419 454.3724 c 128,-1,45
 990.6634 478.719 990.6634 478.719 956.133 478.719 c 128,-1,46
956.133 1004.8 m 0,55,56
 984.5441 1004.8 984.5441 1004.8 1010.1144 994.1486 c 128,-1,57
 1035.6847 983.4963 1035.6847 983.4963 1054.9171 963.4972 c 0,58,59
 1074.587 943.9327 1074.587 943.9327 1084.8585 919.1495 c 128,-1,60
 1095.13 894.3673 1095.13 894.3673 1095.13 865.6729 c 0,61,62
 1095.13 808.2823 1095.13 808.2823 1054.4806 768.5 c 128,-1,63
 1013.8302 728.7178 1013.8302 728.7178 955.2579 728.7178 c 0,64,65
 896.2501 728.7178 896.2501 728.7178 856.9102 767.8477 c 128,-1,66
 817.5713 806.9776 817.5713 806.9776 817.5713 865.6729 c 0,67,68
 817.5713 923.9317 817.5713 923.9317 857.7852 964.3663 c 128,-1,69
 897.9981 1004.8 897.9981 1004.8 956.133 1004.8 c 0,55,56
956.133 948.719 m 128,-1,71
 921.6018 948.719 921.6018 948.719 897.343 924.5891 c 128,-1,72
 873.0842 900.4602 873.0842 900.4602 873.0842 865.678 c 128,-1,73
 873.0842 830.8948 873.0842 830.8948 896.9065 807.4173 c 128,-1,74
 920.7278 783.9398 920.7278 783.9398 955.2581 783.9398 c 0,75,76
 990.2269 783.9398 990.2269 783.9398 1014.9222 807.8519 c 128,-1,77
 1039.6185 831.765 1039.6185 831.765 1039.6185 865.6781 c 0,78,79
 1039.6185 900.0248 1039.6185 900.0248 1015.1419 924.3724 c 128,-1,70
 990.6634 948.719 990.6634 948.719 956.133 948.719 c 128,-1,71
336.133 1004.8 m 0,80,81
 364.5441 1004.8 364.5441 1004.8 390.1144 994.1486 c 128,-1,82
 415.6847 983.4963 415.6847 983.4963 434.9171 963.4972 c 0,83,84
 454.587 943.9327 454.587 943.9327 464.8585 919.1495 c 128,-1,85
 475.13 894.3673 475.13 894.3673 475.13 865.6729 c 0,86,87
 475.13 808.2823 475.13 808.2823 434.4806 768.5 c 128,-1,88
 393.8302 728.7178 393.8302 728.7178 335.2579 728.7178 c 0,89,90
 276.2501 728.7178 276.2501 728.7178 236.9102 767.8477 c 128,-1,91
 197.5713 806.9776 197.5713 806.9776 197.5713 865.6729 c 0,92,93
 197.5713 923.9317 197.5713 923.9317 237.7852 964.3663 c 128,-1,94
 277.9981 1004.8 277.9981 1004.8 336.133 1004.8 c 0,80,81
336.133 948.719 m 128,-1,96
 301.6018 948.719 301.6018 948.719 277.343 924.5891 c 128,-1,97
 253.0842 900.4602 253.0842 900.4602 253.0842 865.678 c 128,-1,98
 253.0842 830.8948 253.0842 830.8948 276.9065 807.4173 c 128,-1,99
 300.7278 783.9398 300.7278 783.9398 335.2581 783.9398 c 0,100,101
 370.2269 783.9398 370.2269 783.9398 394.9222 807.8519 c 128,-1,102
 419.6185 831.765 419.6185 831.765 419.6185 865.6781 c 0,103,104
 419.6185 900.0248 419.6185 900.0248 395.1419 924.3724 c 128,-1,95
 370.6634 948.719 370.6634 948.719 336.133 948.719 c 128,-1,96
336.133 534.805 m 0,105,106
 364.5441 534.805 364.5441 534.805 390.1144 524.1536 c 128,-1,107
 415.6847 513.5013 415.6847 513.5013 434.9171 493.5022 c 0,108,109
 454.587 473.9377 454.587 473.9377 464.8585 449.1545 c 128,-1,110
 475.13 424.3723 475.13 424.3723 475.13 395.6779 c 0,111,112
 475.13 338.2873 475.13 338.2873 434.4806 298.505 c 128,-1,113
 393.8302 258.7228 393.8302 258.7228 335.2579 258.7228 c 0,114,115
 276.2501 258.7228 276.2501 258.7228 236.9102 297.8527 c 128,-1,116
 197.5713 336.9826 197.5713 336.9826 197.5713 395.6779 c 0,117,118
 197.5713 453.9367 197.5713 453.9367 237.7852 494.3713 c 128,-1,119
 277.9981 534.805 277.9981 534.805 336.133 534.805 c 0,105,106
EndSplineSet
Validated: 1
EndChar

StartChar: uni280E
Encoding: 217 10254 216
GlifName: uni280E_
Width: 1234
LayerCount: 2
Fore
SplineSet
336.133 534.805 m 0,0,1
 364.5441 534.805 364.5441 534.805 390.1144 524.1536 c 128,-1,2
 415.6847 513.5013 415.6847 513.5013 434.9171 493.5022 c 0,3,4
 454.587 473.9377 454.587 473.9377 464.8585 449.1545 c 128,-1,5
 475.13 424.3723 475.13 424.3723 475.13 395.6779 c 0,6,7
 475.13 338.2873 475.13 338.2873 434.4806 298.505 c 128,-1,8
 393.8302 258.7228 393.8302 258.7228 335.2579 258.7228 c 0,9,10
 276.2501 258.7228 276.2501 258.7228 236.9102 297.8527 c 128,-1,11
 197.5713 336.9826 197.5713 336.9826 197.5713 395.6779 c 0,12,13
 197.5713 453.9367 197.5713 453.9367 237.7852 494.3713 c 128,-1,14
 277.9981 534.805 277.9981 534.805 336.133 534.805 c 0,0,1
336.133 1004.8 m 0,15,16
 364.5441 1004.8 364.5441 1004.8 390.1144 994.1486 c 128,-1,17
 415.6847 983.4963 415.6847 983.4963 434.9171 963.4972 c 0,18,19
 454.587 943.9327 454.587 943.9327 464.8585 919.1495 c 128,-1,20
 475.13 894.3673 475.13 894.3673 475.13 865.6729 c 0,21,22
 475.13 808.2823 475.13 808.2823 434.4806 768.5 c 128,-1,23
 393.8302 728.7178 393.8302 728.7178 335.2579 728.7178 c 0,24,25
 276.2501 728.7178 276.2501 728.7178 236.9102 767.8477 c 128,-1,26
 197.5713 806.9776 197.5713 806.9776 197.5713 865.6729 c 0,27,28
 197.5713 923.9317 197.5713 923.9317 237.7852 964.3663 c 128,-1,29
 277.9981 1004.8 277.9981 1004.8 336.133 1004.8 c 0,15,16
956.133 534.805 m 0,30,31
 984.5441 534.805 984.5441 534.805 1010.1144 524.1536 c 128,-1,32
 1035.6847 513.5013 1035.6847 513.5013 1054.9171 493.5022 c 0,33,34
 1074.587 473.9377 1074.587 473.9377 1084.8585 449.1545 c 128,-1,35
 1095.13 424.3723 1095.13 424.3723 1095.13 395.6779 c 0,36,37
 1095.13 338.2873 1095.13 338.2873 1054.4806 298.505 c 128,-1,38
 1013.8302 258.7228 1013.8302 258.7228 955.2579 258.7228 c 0,39,40
 896.2501 258.7228 896.2501 258.7228 856.9102 297.8527 c 128,-1,41
 817.5713 336.9826 817.5713 336.9826 817.5713 395.6779 c 0,42,43
 817.5713 453.9367 817.5713 453.9367 857.7852 494.3713 c 128,-1,44
 897.9981 534.805 897.9981 534.805 956.133 534.805 c 0,30,31
956.133 478.719 m 128,-1,46
 921.6018 478.719 921.6018 478.719 897.343 454.5891 c 128,-1,47
 873.0842 430.4602 873.0842 430.4602 873.0842 395.678 c 128,-1,48
 873.0842 360.8948 873.0842 360.8948 896.9065 337.4173 c 128,-1,49
 920.7278 313.9398 920.7278 313.9398 955.2581 313.9398 c 0,50,51
 990.2269 313.9398 990.2269 313.9398 1014.9222 337.8519 c 128,-1,52
 1039.6185 361.765 1039.6185 361.765 1039.6185 395.6781 c 0,53,54
 1039.6185 430.0248 1039.6185 430.0248 1015.1419 454.3724 c 128,-1,45
 990.6634 478.719 990.6634 478.719 956.133 478.719 c 128,-1,46
956.133 1004.8 m 0,55,56
 984.5441 1004.8 984.5441 1004.8 1010.1144 994.1486 c 128,-1,57
 1035.6847 983.4963 1035.6847 983.4963 1054.9171 963.4972 c 0,58,59
 1074.587 943.9327 1074.587 943.9327 1084.8585 919.1495 c 128,-1,60
 1095.13 894.3673 1095.13 894.3673 1095.13 865.6729 c 0,61,62
 1095.13 808.2823 1095.13 808.2823 1054.4806 768.5 c 128,-1,63
 1013.8302 728.7178 1013.8302 728.7178 955.2579 728.7178 c 0,64,65
 896.2501 728.7178 896.2501 728.7178 856.9102 767.8477 c 128,-1,66
 817.5713 806.9776 817.5713 806.9776 817.5713 865.6729 c 0,67,68
 817.5713 923.9317 817.5713 923.9317 857.7852 964.3663 c 128,-1,69
 897.9981 1004.8 897.9981 1004.8 956.133 1004.8 c 0,55,56
956.133 948.719 m 128,-1,71
 921.6018 948.719 921.6018 948.719 897.343 924.5891 c 128,-1,72
 873.0842 900.4602 873.0842 900.4602 873.0842 865.678 c 128,-1,73
 873.0842 830.8948 873.0842 830.8948 896.9065 807.4173 c 128,-1,74
 920.7278 783.9398 920.7278 783.9398 955.2581 783.9398 c 0,75,76
 990.2269 783.9398 990.2269 783.9398 1014.9222 807.8519 c 128,-1,77
 1039.6185 831.765 1039.6185 831.765 1039.6185 865.6781 c 0,78,79
 1039.6185 900.0248 1039.6185 900.0248 1015.1419 924.3724 c 128,-1,70
 990.6634 948.719 990.6634 948.719 956.133 948.719 c 128,-1,71
336.133 1404.8 m 0,80,81
 364.5441 1404.8 364.5441 1404.8 390.1144 1394.1486 c 128,-1,82
 415.6847 1383.4963 415.6847 1383.4963 434.9171 1363.4972 c 0,83,84
 454.587 1343.9327 454.587 1343.9327 464.8585 1319.1495 c 128,-1,85
 475.13 1294.3673 475.13 1294.3673 475.13 1265.6729 c 0,86,87
 475.13 1208.2823 475.13 1208.2823 434.4806 1168.5 c 128,-1,88
 393.8302 1128.7178 393.8302 1128.7178 335.2579 1128.7178 c 0,89,90
 276.2501 1128.7178 276.2501 1128.7178 236.9102 1167.8477 c 128,-1,91
 197.5713 1206.9776 197.5713 1206.9776 197.5713 1265.6729 c 0,92,93
 197.5713 1323.9317 197.5713 1323.9317 237.7852 1364.3663 c 128,-1,94
 277.9981 1404.8 277.9981 1404.8 336.133 1404.8 c 0,80,81
336.133 1348.72 m 128,-1,96
 301.6018 1348.72 301.6018 1348.72 277.343 1324.5901 c 128,-1,97
 253.0842 1300.4612 253.0842 1300.4612 253.0842 1265.679 c 128,-1,98
 253.0842 1230.8958 253.0842 1230.8958 276.9065 1207.4183 c 128,-1,99
 300.7278 1183.9408 300.7278 1183.9408 335.2581 1183.9408 c 0,100,101
 370.2269 1183.9408 370.2269 1183.9408 394.9222 1207.8529 c 128,-1,102
 419.6185 1231.766 419.6185 1231.766 419.6185 1265.6791 c 0,103,104
 419.6185 1300.0258 419.6185 1300.0258 395.1419 1324.3734 c 128,-1,95
 370.6634 1348.72 370.6634 1348.72 336.133 1348.72 c 128,-1,96
956.133 1404.8 m 0,105,106
 984.5441 1404.8 984.5441 1404.8 1010.1144 1394.1486 c 128,-1,107
 1035.6847 1383.4963 1035.6847 1383.4963 1054.9171 1363.4972 c 0,108,109
 1074.587 1343.9327 1074.587 1343.9327 1084.8585 1319.1495 c 128,-1,110
 1095.13 1294.3673 1095.13 1294.3673 1095.13 1265.6729 c 0,111,112
 1095.13 1208.2823 1095.13 1208.2823 1054.4806 1168.5 c 128,-1,113
 1013.8302 1128.7178 1013.8302 1128.7178 955.2579 1128.7178 c 0,114,115
 896.2501 1128.7178 896.2501 1128.7178 856.9102 1167.8477 c 128,-1,116
 817.5713 1206.9776 817.5713 1206.9776 817.5713 1265.6729 c 0,117,118
 817.5713 1323.9317 817.5713 1323.9317 857.7852 1364.3663 c 128,-1,119
 897.9981 1404.8 897.9981 1404.8 956.133 1404.8 c 0,105,106
EndSplineSet
Validated: 1
EndChar

StartChar: uni280F
Encoding: 218 10255 217
GlifName: uni280F_
Width: 1234
LayerCount: 2
Fore
SplineSet
336.133 534.805 m 0,0,1
 364.5441 534.805 364.5441 534.805 390.1144 524.1536 c 128,-1,2
 415.6847 513.5013 415.6847 513.5013 434.9171 493.5022 c 0,3,4
 454.587 473.9377 454.587 473.9377 464.8585 449.1545 c 128,-1,5
 475.13 424.3723 475.13 424.3723 475.13 395.6779 c 0,6,7
 475.13 338.2873 475.13 338.2873 434.4806 298.505 c 128,-1,8
 393.8302 258.7228 393.8302 258.7228 335.2579 258.7228 c 0,9,10
 276.2501 258.7228 276.2501 258.7228 236.9102 297.8527 c 128,-1,11
 197.5713 336.9826 197.5713 336.9826 197.5713 395.6779 c 0,12,13
 197.5713 453.9367 197.5713 453.9367 237.7852 494.3713 c 128,-1,14
 277.9981 534.805 277.9981 534.805 336.133 534.805 c 0,0,1
336.133 1004.8 m 0,15,16
 364.5441 1004.8 364.5441 1004.8 390.1144 994.1486 c 128,-1,17
 415.6847 983.4963 415.6847 983.4963 434.9171 963.4972 c 0,18,19
 454.587 943.9327 454.587 943.9327 464.8585 919.1495 c 128,-1,20
 475.13 894.3673 475.13 894.3673 475.13 865.6729 c 0,21,22
 475.13 808.2823 475.13 808.2823 434.4806 768.5 c 128,-1,23
 393.8302 728.7178 393.8302 728.7178 335.2579 728.7178 c 0,24,25
 276.2501 728.7178 276.2501 728.7178 236.9102 767.8477 c 128,-1,26
 197.5713 806.9776 197.5713 806.9776 197.5713 865.6729 c 0,27,28
 197.5713 923.9317 197.5713 923.9317 237.7852 964.3663 c 128,-1,29
 277.9981 1004.8 277.9981 1004.8 336.133 1004.8 c 0,15,16
336.133 1404.8 m 0,30,31
 364.5441 1404.8 364.5441 1404.8 390.1144 1394.1486 c 128,-1,32
 415.6847 1383.4963 415.6847 1383.4963 434.9171 1363.4972 c 0,33,34
 454.587 1343.9327 454.587 1343.9327 464.8585 1319.1495 c 128,-1,35
 475.13 1294.3673 475.13 1294.3673 475.13 1265.6729 c 0,36,37
 475.13 1208.2823 475.13 1208.2823 434.4806 1168.5 c 128,-1,38
 393.8302 1128.7178 393.8302 1128.7178 335.2579 1128.7178 c 0,39,40
 276.2501 1128.7178 276.2501 1128.7178 236.9102 1167.8477 c 128,-1,41
 197.5713 1206.9776 197.5713 1206.9776 197.5713 1265.6729 c 0,42,43
 197.5713 1323.9317 197.5713 1323.9317 237.7852 1364.3663 c 128,-1,44
 277.9981 1404.8 277.9981 1404.8 336.133 1404.8 c 0,30,31
956.133 534.805 m 0,45,46
 984.5441 534.805 984.5441 534.805 1010.1144 524.1536 c 128,-1,47
 1035.6847 513.5013 1035.6847 513.5013 1054.9171 493.5022 c 0,48,49
 1074.587 473.9377 1074.587 473.9377 1084.8585 449.1545 c 128,-1,50
 1095.13 424.3723 1095.13 424.3723 1095.13 395.6779 c 0,51,52
 1095.13 338.2873 1095.13 338.2873 1054.4806 298.505 c 128,-1,53
 1013.8302 258.7228 1013.8302 258.7228 955.2579 258.7228 c 0,54,55
 896.2501 258.7228 896.2501 258.7228 856.9102 297.8527 c 128,-1,56
 817.5713 336.9826 817.5713 336.9826 817.5713 395.6779 c 0,57,58
 817.5713 453.9367 817.5713 453.9367 857.7852 494.3713 c 128,-1,59
 897.9981 534.805 897.9981 534.805 956.133 534.805 c 0,45,46
956.133 478.719 m 128,-1,61
 921.6018 478.719 921.6018 478.719 897.343 454.5891 c 128,-1,62
 873.0842 430.4602 873.0842 430.4602 873.0842 395.678 c 128,-1,63
 873.0842 360.8948 873.0842 360.8948 896.9065 337.4173 c 128,-1,64
 920.7278 313.9398 920.7278 313.9398 955.2581 313.9398 c 0,65,66
 990.2269 313.9398 990.2269 313.9398 1014.9222 337.8519 c 128,-1,67
 1039.6185 361.765 1039.6185 361.765 1039.6185 395.6781 c 0,68,69
 1039.6185 430.0248 1039.6185 430.0248 1015.1419 454.3724 c 128,-1,60
 990.6634 478.719 990.6634 478.719 956.133 478.719 c 128,-1,61
956.133 1004.8 m 0,70,71
 984.5441 1004.8 984.5441 1004.8 1010.1144 994.1486 c 128,-1,72
 1035.6847 983.4963 1035.6847 983.4963 1054.9171 963.4972 c 0,73,74
 1074.587 943.9327 1074.587 943.9327 1084.8585 919.1495 c 128,-1,75
 1095.13 894.3673 1095.13 894.3673 1095.13 865.6729 c 0,76,77
 1095.13 808.2823 1095.13 808.2823 1054.4806 768.5 c 128,-1,78
 1013.8302 728.7178 1013.8302 728.7178 955.2579 728.7178 c 0,79,80
 896.2501 728.7178 896.2501 728.7178 856.9102 767.8477 c 128,-1,81
 817.5713 806.9776 817.5713 806.9776 817.5713 865.6729 c 0,82,83
 817.5713 923.9317 817.5713 923.9317 857.7852 964.3663 c 128,-1,84
 897.9981 1004.8 897.9981 1004.8 956.133 1004.8 c 0,70,71
956.133 948.719 m 128,-1,86
 921.6018 948.719 921.6018 948.719 897.343 924.5891 c 128,-1,87
 873.0842 900.4602 873.0842 900.4602 873.0842 865.678 c 128,-1,88
 873.0842 830.8948 873.0842 830.8948 896.9065 807.4173 c 128,-1,89
 920.7278 783.9398 920.7278 783.9398 955.2581 783.9398 c 0,90,91
 990.2269 783.9398 990.2269 783.9398 1014.9222 807.8519 c 128,-1,92
 1039.6185 831.765 1039.6185 831.765 1039.6185 865.6781 c 0,93,94
 1039.6185 900.0248 1039.6185 900.0248 1015.1419 924.3724 c 128,-1,85
 990.6634 948.719 990.6634 948.719 956.133 948.719 c 128,-1,86
956.133 1404.8 m 0,95,96
 984.5441 1404.8 984.5441 1404.8 1010.1144 1394.1486 c 128,-1,97
 1035.6847 1383.4963 1035.6847 1383.4963 1054.9171 1363.4972 c 0,98,99
 1074.587 1343.9327 1074.587 1343.9327 1084.8585 1319.1495 c 128,-1,100
 1095.13 1294.3673 1095.13 1294.3673 1095.13 1265.6729 c 0,101,102
 1095.13 1208.2823 1095.13 1208.2823 1054.4806 1168.5 c 128,-1,103
 1013.8302 1128.7178 1013.8302 1128.7178 955.2579 1128.7178 c 0,104,105
 896.2501 1128.7178 896.2501 1128.7178 856.9102 1167.8477 c 128,-1,106
 817.5713 1206.9776 817.5713 1206.9776 817.5713 1265.6729 c 0,107,108
 817.5713 1323.9317 817.5713 1323.9317 857.7852 1364.3663 c 128,-1,109
 897.9981 1404.8 897.9981 1404.8 956.133 1404.8 c 0,95,96
EndSplineSet
Validated: 1
EndChar

StartChar: uni2810
Encoding: 219 10256 218
GlifName: uni2810
Width: 1234
LayerCount: 2
Fore
SplineSet
336.133 1348.72 m 128,-1,1
 301.6018 1348.72 301.6018 1348.72 277.343 1324.5901 c 128,-1,2
 253.0842 1300.4612 253.0842 1300.4612 253.0842 1265.679 c 128,-1,3
 253.0842 1230.8958 253.0842 1230.8958 276.9065 1207.4183 c 128,-1,4
 300.7278 1183.9408 300.7278 1183.9408 335.2581 1183.9408 c 0,5,6
 370.2269 1183.9408 370.2269 1183.9408 394.9222 1207.8529 c 128,-1,7
 419.6185 1231.766 419.6185 1231.766 419.6185 1265.6791 c 0,8,9
 419.6185 1300.0258 419.6185 1300.0258 395.1419 1324.3734 c 128,-1,0
 370.6634 1348.72 370.6634 1348.72 336.133 1348.72 c 128,-1,1
336.133 1404.8 m 0,10,11
 364.5441 1404.8 364.5441 1404.8 390.1144 1394.1486 c 128,-1,12
 415.6847 1383.4963 415.6847 1383.4963 434.9171 1363.4972 c 0,13,14
 454.587 1343.9327 454.587 1343.9327 464.8585 1319.1495 c 128,-1,15
 475.13 1294.3673 475.13 1294.3673 475.13 1265.6729 c 0,16,17
 475.13 1208.2823 475.13 1208.2823 434.4806 1168.5 c 128,-1,18
 393.8302 1128.7178 393.8302 1128.7178 335.2579 1128.7178 c 0,19,20
 276.2501 1128.7178 276.2501 1128.7178 236.9102 1167.8477 c 128,-1,21
 197.5713 1206.9776 197.5713 1206.9776 197.5713 1265.6729 c 0,22,23
 197.5713 1323.9317 197.5713 1323.9317 237.7852 1364.3663 c 128,-1,24
 277.9981 1404.8 277.9981 1404.8 336.133 1404.8 c 0,10,11
956.133 1348.72 m 128,-1,26
 921.6018 1348.72 921.6018 1348.72 897.343 1324.5901 c 128,-1,27
 873.0842 1300.4612 873.0842 1300.4612 873.0842 1265.679 c 128,-1,28
 873.0842 1230.8958 873.0842 1230.8958 896.9065 1207.4183 c 128,-1,29
 920.7278 1183.9408 920.7278 1183.9408 955.2581 1183.9408 c 0,30,31
 990.2269 1183.9408 990.2269 1183.9408 1014.9222 1207.8529 c 128,-1,32
 1039.6185 1231.766 1039.6185 1231.766 1039.6185 1265.6791 c 0,33,34
 1039.6185 1300.0258 1039.6185 1300.0258 1015.1419 1324.3734 c 128,-1,25
 990.6634 1348.72 990.6634 1348.72 956.133 1348.72 c 128,-1,26
956.133 1404.8 m 0,35,36
 984.5441 1404.8 984.5441 1404.8 1010.1144 1394.1486 c 128,-1,37
 1035.6847 1383.4963 1035.6847 1383.4963 1054.9171 1363.4972 c 0,38,39
 1074.587 1343.9327 1074.587 1343.9327 1084.8585 1319.1495 c 128,-1,40
 1095.13 1294.3673 1095.13 1294.3673 1095.13 1265.6729 c 0,41,42
 1095.13 1208.2823 1095.13 1208.2823 1054.4806 1168.5 c 128,-1,43
 1013.8302 1128.7178 1013.8302 1128.7178 955.2579 1128.7178 c 0,44,45
 896.2501 1128.7178 896.2501 1128.7178 856.9102 1167.8477 c 128,-1,46
 817.5713 1206.9776 817.5713 1206.9776 817.5713 1265.6729 c 0,47,48
 817.5713 1323.9317 817.5713 1323.9317 857.7852 1364.3663 c 128,-1,49
 897.9981 1404.8 897.9981 1404.8 956.133 1404.8 c 0,35,36
336.133 948.719 m 128,-1,51
 301.6018 948.719 301.6018 948.719 277.343 924.5891 c 128,-1,52
 253.0842 900.4602 253.0842 900.4602 253.0842 865.678 c 128,-1,53
 253.0842 830.8948 253.0842 830.8948 276.9065 807.4173 c 128,-1,54
 300.7278 783.9398 300.7278 783.9398 335.2581 783.9398 c 0,55,56
 370.2269 783.9398 370.2269 783.9398 394.9222 807.8519 c 128,-1,57
 419.6185 831.765 419.6185 831.765 419.6185 865.6781 c 0,58,59
 419.6185 900.0248 419.6185 900.0248 395.1419 924.3724 c 128,-1,50
 370.6634 948.719 370.6634 948.719 336.133 948.719 c 128,-1,51
336.133 1004.8 m 0,60,61
 364.5441 1004.8 364.5441 1004.8 390.1144 994.1486 c 128,-1,62
 415.6847 983.4963 415.6847 983.4963 434.9171 963.4972 c 0,63,64
 454.587 943.9327 454.587 943.9327 464.8585 919.1495 c 128,-1,65
 475.13 894.3673 475.13 894.3673 475.13 865.6729 c 0,66,67
 475.13 808.2823 475.13 808.2823 434.4806 768.5 c 128,-1,68
 393.8302 728.7178 393.8302 728.7178 335.2579 728.7178 c 0,69,70
 276.2501 728.7178 276.2501 728.7178 236.9102 767.8477 c 128,-1,71
 197.5713 806.9776 197.5713 806.9776 197.5713 865.6729 c 0,72,73
 197.5713 923.9317 197.5713 923.9317 237.7852 964.3663 c 128,-1,74
 277.9981 1004.8 277.9981 1004.8 336.133 1004.8 c 0,60,61
336.133 478.719 m 128,-1,76
 301.6018 478.719 301.6018 478.719 277.343 454.5891 c 128,-1,77
 253.0842 430.4602 253.0842 430.4602 253.0842 395.678 c 128,-1,78
 253.0842 360.8948 253.0842 360.8948 276.9065 337.4173 c 128,-1,79
 300.7278 313.9398 300.7278 313.9398 335.2581 313.9398 c 0,80,81
 370.2269 313.9398 370.2269 313.9398 394.9222 337.8519 c 128,-1,82
 419.6185 361.765 419.6185 361.765 419.6185 395.6781 c 0,83,84
 419.6185 430.0248 419.6185 430.0248 395.1419 454.3724 c 128,-1,75
 370.6634 478.719 370.6634 478.719 336.133 478.719 c 128,-1,76
336.133 534.805 m 0,85,86
 364.5441 534.805 364.5441 534.805 390.1144 524.1536 c 128,-1,87
 415.6847 513.5013 415.6847 513.5013 434.9171 493.5022 c 0,88,89
 454.587 473.9377 454.587 473.9377 464.8585 449.1545 c 128,-1,90
 475.13 424.3723 475.13 424.3723 475.13 395.6779 c 0,91,92
 475.13 338.2873 475.13 338.2873 434.4806 298.505 c 128,-1,93
 393.8302 258.7228 393.8302 258.7228 335.2579 258.7228 c 0,94,95
 276.2501 258.7228 276.2501 258.7228 236.9102 297.8527 c 128,-1,96
 197.5713 336.9826 197.5713 336.9826 197.5713 395.6779 c 0,97,98
 197.5713 453.9367 197.5713 453.9367 237.7852 494.3713 c 128,-1,99
 277.9981 534.805 277.9981 534.805 336.133 534.805 c 0,85,86
956.133 478.719 m 128,-1,101
 921.6018 478.719 921.6018 478.719 897.343 454.5891 c 128,-1,102
 873.0842 430.4602 873.0842 430.4602 873.0842 395.678 c 128,-1,103
 873.0842 360.8948 873.0842 360.8948 896.9065 337.4173 c 128,-1,104
 920.7278 313.9398 920.7278 313.9398 955.2581 313.9398 c 0,105,106
 990.2269 313.9398 990.2269 313.9398 1014.9222 337.8519 c 128,-1,107
 1039.6185 361.765 1039.6185 361.765 1039.6185 395.6781 c 0,108,109
 1039.6185 430.0248 1039.6185 430.0248 1015.1419 454.3724 c 128,-1,100
 990.6634 478.719 990.6634 478.719 956.133 478.719 c 128,-1,101
956.133 534.805 m 0,110,111
 984.5441 534.805 984.5441 534.805 1010.1144 524.1536 c 128,-1,112
 1035.6847 513.5013 1035.6847 513.5013 1054.9171 493.5022 c 0,113,114
 1074.587 473.9377 1074.587 473.9377 1084.8585 449.1545 c 128,-1,115
 1095.13 424.3723 1095.13 424.3723 1095.13 395.6779 c 0,116,117
 1095.13 338.2873 1095.13 338.2873 1054.4806 298.505 c 128,-1,118
 1013.8302 258.7228 1013.8302 258.7228 955.2579 258.7228 c 0,119,120
 896.2501 258.7228 896.2501 258.7228 856.9102 297.8527 c 128,-1,121
 817.5713 336.9826 817.5713 336.9826 817.5713 395.6779 c 0,122,123
 817.5713 453.9367 817.5713 453.9367 857.7852 494.3713 c 128,-1,124
 897.9981 534.805 897.9981 534.805 956.133 534.805 c 0,110,111
956.133 1004.8 m 0,125,126
 984.5441 1004.8 984.5441 1004.8 1010.1144 994.1486 c 128,-1,127
 1035.6847 983.4963 1035.6847 983.4963 1054.9171 963.4972 c 0,128,129
 1074.587 943.9327 1074.587 943.9327 1084.8585 919.1495 c 128,-1,130
 1095.13 894.3673 1095.13 894.3673 1095.13 865.6729 c 0,131,132
 1095.13 808.2823 1095.13 808.2823 1054.4806 768.5 c 128,-1,133
 1013.8302 728.7178 1013.8302 728.7178 955.2579 728.7178 c 0,134,135
 896.2501 728.7178 896.2501 728.7178 856.9102 767.8477 c 128,-1,136
 817.5713 806.9776 817.5713 806.9776 817.5713 865.6729 c 0,137,138
 817.5713 923.9317 817.5713 923.9317 857.7852 964.3663 c 128,-1,139
 897.9981 1004.8 897.9981 1004.8 956.133 1004.8 c 0,125,126
EndSplineSet
Validated: 1
EndChar

